<?xml version="1.0" encoding="utf-8" standalone="no"?>
<!DOCTYPE svg PUBLIC "-//W3C//DTD SVG 1.1//EN"
  "http://www.w3.org/Graphics/SVG/1.1/DTD/svg11.dtd">
<svg xmlns:xlink="http://www.w3.org/1999/xlink" width="568.8pt" height="280.8pt" viewBox="0 0 568.8 280.8" xmlns="http://www.w3.org/2000/svg" version="1.1">
 <metadata>
  <rdf:RDF xmlns:dc="http://purl.org/dc/elements/1.1/" xmlns:cc="http://creativecommons.org/ns#" xmlns:rdf="http://www.w3.org/1999/02/22-rdf-syntax-ns#">
   <cc:Work>
    <dc:type rdf:resource="http://purl.org/dc/dcmitype/StillImage"/>
    <dc:date>2026-05-01T15:27:43.021439</dc:date>
    <dc:format>image/svg+xml</dc:format>
    <dc:creator>
     <cc:Agent>
      <dc:title>Matplotlib v3.10.9, https://matplotlib.org/</dc:title>
     </cc:Agent>
    </dc:creator>
   </cc:Work>
  </rdf:RDF>
 </metadata>
 <defs>
  <style type="text/css">*{stroke-linejoin: round; stroke-linecap: butt}</style>
 </defs>
 <g id="figure_1">
  <g id="patch_1">
   <path d="M 0 280.8
L 568.8 280.8
L 568.8 0
L 0 0
L 0 280.8
z
" style="fill: none"/>
  </g>
  <g id="axes_1">
   <g id="FillBetweenPolyCollection_1">
    <path d="M -23.6 175.452632
L -23.6 175.415103
L -22.365531 175.411979
L -21.131062 175.408612
L -19.896593 175.404986
L -18.662124 175.401082
L -17.427655 175.396881
L -16.193186 175.392361
L -14.958717 175.387501
L -13.724248 175.382278
L -12.48978 175.376666
L -11.255311 175.370639
L -10.020842 175.364169
L -8.786373 175.357228
L -7.551904 175.349783
L -6.317435 175.341802
L -5.082966 175.333249
L -3.848497 175.324088
L -2.614028 175.314279
L -1.379559 175.303782
L -0.14509 175.292553
L 1.089379 175.280546
L 2.323848 175.267712
L 3.558317 175.254001
L 4.792786 175.239359
L 6.027255 175.223729
L 7.261723 175.207053
L 8.496192 175.189268
L 9.730661 175.170308
L 10.96513 175.150105
L 12.199599 175.128586
L 13.434068 175.105676
L 14.668537 175.081295
L 15.903006 175.055361
L 17.137475 175.027786
L 18.371944 174.998479
L 19.606413 174.967346
L 20.840882 174.934287
L 22.075351 174.899198
L 23.30982 174.86197
L 24.544289 174.822492
L 25.778758 174.780645
L 27.013226 174.736307
L 28.247695 174.68935
L 29.482164 174.639641
L 30.716633 174.587043
L 31.951102 174.531412
L 33.185571 174.472599
L 34.42004 174.41045
L 35.654509 174.344805
L 36.888978 174.275497
L 38.123447 174.202356
L 39.357916 174.125204
L 40.592385 174.043856
L 41.826854 173.958124
L 43.061323 173.867811
L 44.295792 173.772715
L 45.530261 173.672628
L 46.764729 173.567335
L 47.999198 173.456616
L 49.233667 173.340243
L 50.468136 173.217982
L 51.702605 173.089595
L 52.937074 172.954835
L 54.171543 172.813449
L 55.406012 172.665181
L 56.640481 172.509764
L 57.87495 172.34693
L 59.109419 172.176402
L 60.343888 171.997899
L 61.578357 171.811132
L 62.812826 171.61581
L 64.047295 171.411634
L 65.281764 171.198302
L 66.516232 170.975507
L 67.750701 170.742935
L 68.98517 170.500272
L 70.219639 170.247196
L 71.454108 169.983385
L 72.688577 169.708511
L 73.923046 169.422244
L 75.157515 169.124254
L 76.391984 168.814204
L 77.626453 168.491761
L 78.860922 168.156586
L 80.095391 167.808342
L 81.32986 167.446693
L 82.564329 167.071301
L 83.798798 166.68183
L 85.033267 166.277946
L 86.267735 165.859318
L 87.502204 165.425615
L 88.736673 164.976514
L 89.971142 164.511693
L 91.205611 164.030835
L 92.44008 163.533631
L 93.674549 163.019778
L 94.909018 162.488979
L 96.143487 161.940945
L 97.377956 161.375399
L 98.612425 160.792069
L 99.846894 160.190698
L 101.081363 159.571039
L 102.315832 158.932856
L 103.550301 158.275928
L 104.78477 157.600048
L 106.019238 156.905023
L 107.253707 156.190678
L 108.488176 155.456851
L 109.722645 154.703403
L 110.957114 153.93021
L 112.191583 153.137168
L 113.426052 152.324196
L 114.660521 151.491231
L 115.89499 150.638235
L 117.129459 149.765191
L 118.363928 148.872108
L 119.598397 147.959019
L 120.832866 147.025982
L 122.067335 146.073082
L 123.301804 145.100432
L 124.536273 144.108172
L 125.770741 143.09647
L 127.00521 142.065525
L 128.239679 141.015564
L 129.474148 139.946846
L 130.708617 138.85966
L 131.943086 137.754328
L 133.177555 136.631202
L 134.412024 135.490667
L 135.646493 134.333142
L 136.880962 133.159076
L 138.115431 131.968955
L 139.3499 130.763296
L 140.584369 129.542649
L 141.818838 128.307599
L 143.053307 127.058763
L 144.287776 125.796792
L 145.522244 124.522371
L 146.756713 123.236216
L 147.991182 121.939077
L 149.225651 120.631736
L 150.46012 119.315006
L 151.694589 117.989732
L 152.929058 116.656789
L 154.163527 115.317082
L 155.397996 113.971545
L 156.632465 112.621139
L 157.866934 111.266855
L 159.101403 109.909708
L 160.335872 108.550739
L 161.570341 107.191013
L 162.80481 105.831618
L 164.039279 104.473661
L 165.273747 103.118274
L 166.508216 101.766603
L 167.742685 100.419814
L 168.977154 99.079087
L 170.211623 97.745617
L 171.446092 96.420612
L 172.680561 95.105287
L 173.91503 93.80087
L 175.149499 92.508593
L 176.383968 91.229695
L 177.618437 89.965417
L 178.852906 88.717001
L 180.087375 87.485689
L 181.321844 86.272719
L 182.556313 85.079326
L 183.790782 83.906735
L 185.025251 82.756165
L 186.259719 81.628821
L 187.494188 80.525898
L 188.728657 79.448574
L 189.963126 78.398008
L 191.197595 77.375342
L 192.432064 76.381696
L 193.666533 75.418165
L 194.901002 74.48582
L 196.135471 73.585704
L 197.36994 72.71883
L 198.604409 71.88618
L 199.838878 71.088703
L 201.073347 70.327313
L 202.307816 69.602887
L 203.542285 68.916262
L 204.776754 68.268238
L 206.011222 67.659571
L 207.245691 67.090974
L 208.48016 66.563118
L 209.714629 66.076626
L 210.949098 65.632073
L 212.183567 65.229988
L 213.418036 64.87085
L 214.652505 64.555088
L 215.886974 64.283079
L 217.121443 64.05515
L 218.355912 63.871574
L 219.590381 63.732572
L 220.82485 63.638311
L 222.059319 63.588904
L 223.293788 63.584412
L 224.528257 63.624838
L 225.762725 63.710136
L 226.997194 63.840202
L 228.231663 64.014879
L 229.466132 64.233957
L 230.700601 64.497174
L 231.93507 64.804215
L 233.169539 65.15471
L 234.404008 65.548242
L 235.638477 65.984342
L 236.872946 66.462492
L 238.107415 66.982123
L 239.341884 67.542624
L 240.576353 68.143332
L 241.810822 68.783544
L 243.045291 69.462511
L 244.27976 70.179443
L 245.514228 70.93351
L 246.748697 71.723841
L 247.983166 72.549531
L 249.217635 73.409638
L 250.452104 74.303186
L 251.686573 75.229167
L 252.921042 76.186546
L 254.155511 77.174256
L 255.38998 78.191207
L 256.624449 79.236283
L 257.858918 80.308348
L 259.093387 81.406245
L 260.327856 82.528799
L 261.562325 83.67482
L 262.796794 84.843104
L 264.031263 86.032435
L 265.265731 87.241588
L 266.5002 88.469331
L 267.734669 89.714425
L 268.969138 90.97563
L 270.203607 92.251703
L 271.438076 93.541404
L 272.672545 94.843491
L 273.907014 96.156733
L 275.141483 97.4799
L 276.375952 98.811774
L 277.610421 100.151146
L 278.84489 101.496817
L 280.079359 102.847605
L 281.313828 104.202342
L 282.548297 105.559875
L 283.782766 106.919072
L 285.017234 108.27882
L 286.251703 109.638027
L 287.486172 110.995622
L 288.720641 112.350561
L 289.95511 113.701822
L 291.189579 115.048411
L 292.424048 116.38936
L 293.658517 117.723729
L 294.892986 119.050608
L 296.127455 120.369115
L 297.361924 121.6784
L 298.596393 122.977642
L 299.830862 124.266055
L 301.065331 125.542881
L 302.2998 126.807398
L 303.534269 128.058914
L 304.768737 129.296772
L 306.003206 130.520347
L 307.237675 131.729049
L 308.472144 132.922321
L 309.706613 134.099637
L 310.941082 135.260507
L 312.175551 136.404475
L 313.41002 137.531114
L 314.644489 138.640035
L 315.878958 139.730876
L 317.113427 140.803312
L 318.347896 141.857046
L 319.582365 142.891814
L 320.816834 143.907381
L 322.051303 144.903544
L 323.285772 145.880128
L 324.52024 146.836988
L 325.754709 147.774005
L 326.989178 148.691089
L 328.223647 149.588177
L 329.458116 150.46523
L 330.692585 151.322235
L 331.927054 152.159204
L 333.161523 152.976171
L 334.395992 153.773192
L 335.630461 154.550348
L 336.86493 155.307736
L 338.099399 156.045476
L 339.333868 156.763705
L 340.568337 157.462581
L 341.802806 158.142275
L 343.037275 158.802977
L 344.271743 159.444892
L 345.506212 160.068237
L 346.740681 160.673246
L 347.97515 161.260164
L 349.209619 161.829246
L 350.444088 162.38076
L 351.678557 162.914983
L 352.913026 163.432202
L 354.147495 163.932712
L 355.381964 164.416814
L 356.616433 164.884817
L 357.850902 165.337037
L 359.085371 165.773794
L 360.31984 166.195411
L 361.554309 166.602217
L 362.788778 166.994544
L 364.023246 167.372725
L 365.257715 167.737096
L 366.492184 168.087993
L 367.726653 168.425755
L 368.961122 168.750718
L 370.195591 169.063219
L 371.43006 169.363595
L 372.664529 169.652179
L 373.898998 169.929305
L 375.133467 170.195303
L 376.367936 170.4505
L 377.602405 170.69522
L 378.836874 170.929784
L 380.071343 171.15451
L 381.305812 171.36971
L 382.540281 171.575693
L 383.774749 171.772761
L 385.009218 171.961216
L 386.243687 172.141349
L 387.478156 172.313449
L 388.712625 172.4778
L 389.947094 172.634678
L 391.181563 172.784355
L 392.416032 172.927096
L 393.650501 173.063161
L 394.88497 173.192803
L 396.119439 173.316269
L 397.353908 173.433801
L 398.588377 173.545633
L 399.822846 173.651993
L 401.057315 173.753104
L 402.291784 173.849181
L 403.526253 173.940434
L 404.760721 174.027067
L 405.99519 174.109276
L 407.229659 174.187253
L 408.464128 174.261181
L 409.698597 174.331242
L 410.933066 174.397606
L 412.167535 174.460441
L 413.402004 174.519909
L 414.636473 174.576164
L 415.870942 174.629357
L 417.105411 174.679633
L 418.33988 174.727129
L 419.574349 174.771981
L 420.808818 174.814316
L 422.043287 174.854259
L 423.277756 174.891927
L 424.512224 174.927435
L 425.746693 174.960892
L 426.981162 174.992402
L 428.215631 175.022066
L 429.4501 175.04998
L 430.684569 175.076236
L 431.919038 175.10092
L 433.153507 175.124118
L 434.387976 175.145909
L 435.622445 175.166369
L 436.856914 175.185572
L 438.091383 175.203587
L 439.325852 175.22048
L 440.560321 175.236314
L 441.79479 175.251149
L 443.029259 175.265042
L 444.263727 175.278047
L 445.498196 175.290215
L 446.732665 175.301596
L 447.967134 175.312236
L 449.201603 175.322179
L 450.436072 175.331467
L 451.670541 175.340138
L 452.90501 175.348231
L 454.139479 175.35578
L 455.373948 175.36282
L 456.608417 175.369381
L 457.842886 175.375494
L 459.077355 175.381187
L 460.311824 175.386486
L 461.546293 175.391417
L 462.780762 175.396003
L 464.01523 175.400266
L 465.249699 175.404228
L 466.484168 175.407908
L 467.718637 175.411325
L 468.953106 175.414497
L 470.187575 175.417438
L 471.422044 175.420166
L 472.656513 175.422695
L 473.890982 175.425038
L 475.125451 175.427207
L 476.35992 175.429215
L 477.594389 175.431074
L 478.828858 175.432793
L 480.063327 175.434382
L 481.297796 175.43585
L 482.532265 175.437207
L 483.766733 175.43846
L 485.001202 175.439616
L 486.235671 175.440682
L 487.47014 175.441666
L 488.704609 175.442573
L 489.939078 175.443408
L 491.173547 175.444178
L 492.408016 175.444886
L 493.642485 175.445538
L 494.876954 175.446137
L 496.111423 175.446689
L 497.345892 175.447195
L 498.580361 175.447661
L 499.81483 175.448088
L 501.049299 175.448481
L 502.283768 175.448841
L 503.518236 175.449171
L 504.752705 175.449474
L 505.987174 175.449751
L 507.221643 175.450005
L 508.456112 175.450238
L 509.690581 175.450451
L 510.92505 175.450645
L 512.159519 175.450823
L 513.393988 175.450986
L 514.628457 175.451135
L 515.862926 175.451271
L 517.097395 175.451395
L 518.331864 175.451508
L 519.566333 175.451611
L 520.800802 175.451705
L 522.035271 175.451791
L 523.269739 175.451869
L 524.504208 175.45194
L 525.738677 175.452005
L 526.973146 175.452064
L 528.207615 175.452117
L 529.442084 175.452166
L 530.676553 175.45221
L 531.911022 175.452251
L 533.145491 175.452287
L 534.37996 175.45232
L 535.614429 175.45235
L 536.848898 175.452378
L 538.083367 175.452402
L 539.317836 175.452425
L 540.552305 175.452445
L 541.786774 175.452463
L 543.021242 175.45248
L 544.255711 175.452495
L 545.49018 175.452509
L 546.724649 175.452521
L 547.959118 175.452532
L 549.193587 175.452542
L 550.428056 175.452551
L 551.662525 175.452559
L 552.896994 175.452567
L 554.131463 175.452573
L 555.365932 175.452579
L 556.600401 175.452585
L 557.83487 175.452589
L 559.069339 175.452594
L 560.303808 175.452598
L 561.538277 175.452601
L 562.772745 175.452604
L 564.007214 175.452607
L 565.241683 175.45261
L 566.476152 175.452612
L 567.710621 175.452614
L 568.94509 175.452616
L 570.179559 175.452618
L 571.414028 175.452619
L 572.648497 175.45262
L 573.882966 175.452622
L 575.117435 175.452623
L 576.351904 175.452624
L 577.586373 175.452625
L 578.820842 175.452625
L 580.055311 175.452626
L 581.28978 175.452627
L 582.524248 175.452627
L 583.758717 175.452628
L 584.993186 175.452628
L 586.227655 175.452628
L 587.462124 175.452629
L 588.696593 175.452629
L 589.931062 175.452629
L 591.165531 175.45263
L 592.4 175.45263
L 592.4 175.452632
L 592.4 175.452632
L 591.165531 175.452632
L 589.931062 175.452632
L 588.696593 175.452632
L 587.462124 175.452632
L 586.227655 175.452632
L 584.993186 175.452632
L 583.758717 175.452632
L 582.524248 175.452632
L 581.28978 175.452632
L 580.055311 175.452632
L 578.820842 175.452632
L 577.586373 175.452632
L 576.351904 175.452632
L 575.117435 175.452632
L 573.882966 175.452632
L 572.648497 175.452632
L 571.414028 175.452632
L 570.179559 175.452632
L 568.94509 175.452632
L 567.710621 175.452632
L 566.476152 175.452632
L 565.241683 175.452632
L 564.007214 175.452632
L 562.772745 175.452632
L 561.538277 175.452632
L 560.303808 175.452632
L 559.069339 175.452632
L 557.83487 175.452632
L 556.600401 175.452632
L 555.365932 175.452632
L 554.131463 175.452632
L 552.896994 175.452632
L 551.662525 175.452632
L 550.428056 175.452632
L 549.193587 175.452632
L 547.959118 175.452632
L 546.724649 175.452632
L 545.49018 175.452632
L 544.255711 175.452632
L 543.021242 175.452632
L 541.786774 175.452632
L 540.552305 175.452632
L 539.317836 175.452632
L 538.083367 175.452632
L 536.848898 175.452632
L 535.614429 175.452632
L 534.37996 175.452632
L 533.145491 175.452632
L 531.911022 175.452632
L 530.676553 175.452632
L 529.442084 175.452632
L 528.207615 175.452632
L 526.973146 175.452632
L 525.738677 175.452632
L 524.504208 175.452632
L 523.269739 175.452632
L 522.035271 175.452632
L 520.800802 175.452632
L 519.566333 175.452632
L 518.331864 175.452632
L 517.097395 175.452632
L 515.862926 175.452632
L 514.628457 175.452632
L 513.393988 175.452632
L 512.159519 175.452632
L 510.92505 175.452632
L 509.690581 175.452632
L 508.456112 175.452632
L 507.221643 175.452632
L 505.987174 175.452632
L 504.752705 175.452632
L 503.518236 175.452632
L 502.283768 175.452632
L 501.049299 175.452632
L 499.81483 175.452632
L 498.580361 175.452632
L 497.345892 175.452632
L 496.111423 175.452632
L 494.876954 175.452632
L 493.642485 175.452632
L 492.408016 175.452632
L 491.173547 175.452632
L 489.939078 175.452632
L 488.704609 175.452632
L 487.47014 175.452632
L 486.235671 175.452632
L 485.001202 175.452632
L 483.766733 175.452632
L 482.532265 175.452632
L 481.297796 175.452632
L 480.063327 175.452632
L 478.828858 175.452632
L 477.594389 175.452632
L 476.35992 175.452632
L 475.125451 175.452632
L 473.890982 175.452632
L 472.656513 175.452632
L 471.422044 175.452632
L 470.187575 175.452632
L 468.953106 175.452632
L 467.718637 175.452632
L 466.484168 175.452632
L 465.249699 175.452632
L 464.01523 175.452632
L 462.780762 175.452632
L 461.546293 175.452632
L 460.311824 175.452632
L 459.077355 175.452632
L 457.842886 175.452632
L 456.608417 175.452632
L 455.373948 175.452632
L 454.139479 175.452632
L 452.90501 175.452632
L 451.670541 175.452632
L 450.436072 175.452632
L 449.201603 175.452632
L 447.967134 175.452632
L 446.732665 175.452632
L 445.498196 175.452632
L 444.263727 175.452632
L 443.029259 175.452632
L 441.79479 175.452632
L 440.560321 175.452632
L 439.325852 175.452632
L 438.091383 175.452632
L 436.856914 175.452632
L 435.622445 175.452632
L 434.387976 175.452632
L 433.153507 175.452632
L 431.919038 175.452632
L 430.684569 175.452632
L 429.4501 175.452632
L 428.215631 175.452632
L 426.981162 175.452632
L 425.746693 175.452632
L 424.512224 175.452632
L 423.277756 175.452632
L 422.043287 175.452632
L 420.808818 175.452632
L 419.574349 175.452632
L 418.33988 175.452632
L 417.105411 175.452632
L 415.870942 175.452632
L 414.636473 175.452632
L 413.402004 175.452632
L 412.167535 175.452632
L 410.933066 175.452632
L 409.698597 175.452632
L 408.464128 175.452632
L 407.229659 175.452632
L 405.99519 175.452632
L 404.760721 175.452632
L 403.526253 175.452632
L 402.291784 175.452632
L 401.057315 175.452632
L 399.822846 175.452632
L 398.588377 175.452632
L 397.353908 175.452632
L 396.119439 175.452632
L 394.88497 175.452632
L 393.650501 175.452632
L 392.416032 175.452632
L 391.181563 175.452632
L 389.947094 175.452632
L 388.712625 175.452632
L 387.478156 175.452632
L 386.243687 175.452632
L 385.009218 175.452632
L 383.774749 175.452632
L 382.540281 175.452632
L 381.305812 175.452632
L 380.071343 175.452632
L 378.836874 175.452632
L 377.602405 175.452632
L 376.367936 175.452632
L 375.133467 175.452632
L 373.898998 175.452632
L 372.664529 175.452632
L 371.43006 175.452632
L 370.195591 175.452632
L 368.961122 175.452632
L 367.726653 175.452632
L 366.492184 175.452632
L 365.257715 175.452632
L 364.023246 175.452632
L 362.788778 175.452632
L 361.554309 175.452632
L 360.31984 175.452632
L 359.085371 175.452632
L 357.850902 175.452632
L 356.616433 175.452632
L 355.381964 175.452632
L 354.147495 175.452632
L 352.913026 175.452632
L 351.678557 175.452632
L 350.444088 175.452632
L 349.209619 175.452632
L 347.97515 175.452632
L 346.740681 175.452632
L 345.506212 175.452632
L 344.271743 175.452632
L 343.037275 175.452632
L 341.802806 175.452632
L 340.568337 175.452632
L 339.333868 175.452632
L 338.099399 175.452632
L 336.86493 175.452632
L 335.630461 175.452632
L 334.395992 175.452632
L 333.161523 175.452632
L 331.927054 175.452632
L 330.692585 175.452632
L 329.458116 175.452632
L 328.223647 175.452632
L 326.989178 175.452632
L 325.754709 175.452632
L 324.52024 175.452632
L 323.285772 175.452632
L 322.051303 175.452632
L 320.816834 175.452632
L 319.582365 175.452632
L 318.347896 175.452632
L 317.113427 175.452632
L 315.878958 175.452632
L 314.644489 175.452632
L 313.41002 175.452632
L 312.175551 175.452632
L 310.941082 175.452632
L 309.706613 175.452632
L 308.472144 175.452632
L 307.237675 175.452632
L 306.003206 175.452632
L 304.768737 175.452632
L 303.534269 175.452632
L 302.2998 175.452632
L 301.065331 175.452632
L 299.830862 175.452632
L 298.596393 175.452632
L 297.361924 175.452632
L 296.127455 175.452632
L 294.892986 175.452632
L 293.658517 175.452632
L 292.424048 175.452632
L 291.189579 175.452632
L 289.95511 175.452632
L 288.720641 175.452632
L 287.486172 175.452632
L 286.251703 175.452632
L 285.017234 175.452632
L 283.782766 175.452632
L 282.548297 175.452632
L 281.313828 175.452632
L 280.079359 175.452632
L 278.84489 175.452632
L 277.610421 175.452632
L 276.375952 175.452632
L 275.141483 175.452632
L 273.907014 175.452632
L 272.672545 175.452632
L 271.438076 175.452632
L 270.203607 175.452632
L 268.969138 175.452632
L 267.734669 175.452632
L 266.5002 175.452632
L 265.265731 175.452632
L 264.031263 175.452632
L 262.796794 175.452632
L 261.562325 175.452632
L 260.327856 175.452632
L 259.093387 175.452632
L 257.858918 175.452632
L 256.624449 175.452632
L 255.38998 175.452632
L 254.155511 175.452632
L 252.921042 175.452632
L 251.686573 175.452632
L 250.452104 175.452632
L 249.217635 175.452632
L 247.983166 175.452632
L 246.748697 175.452632
L 245.514228 175.452632
L 244.27976 175.452632
L 243.045291 175.452632
L 241.810822 175.452632
L 240.576353 175.452632
L 239.341884 175.452632
L 238.107415 175.452632
L 236.872946 175.452632
L 235.638477 175.452632
L 234.404008 175.452632
L 233.169539 175.452632
L 231.93507 175.452632
L 230.700601 175.452632
L 229.466132 175.452632
L 228.231663 175.452632
L 226.997194 175.452632
L 225.762725 175.452632
L 224.528257 175.452632
L 223.293788 175.452632
L 222.059319 175.452632
L 220.82485 175.452632
L 219.590381 175.452632
L 218.355912 175.452632
L 217.121443 175.452632
L 215.886974 175.452632
L 214.652505 175.452632
L 213.418036 175.452632
L 212.183567 175.452632
L 210.949098 175.452632
L 209.714629 175.452632
L 208.48016 175.452632
L 207.245691 175.452632
L 206.011222 175.452632
L 204.776754 175.452632
L 203.542285 175.452632
L 202.307816 175.452632
L 201.073347 175.452632
L 199.838878 175.452632
L 198.604409 175.452632
L 197.36994 175.452632
L 196.135471 175.452632
L 194.901002 175.452632
L 193.666533 175.452632
L 192.432064 175.452632
L 191.197595 175.452632
L 189.963126 175.452632
L 188.728657 175.452632
L 187.494188 175.452632
L 186.259719 175.452632
L 185.025251 175.452632
L 183.790782 175.452632
L 182.556313 175.452632
L 181.321844 175.452632
L 180.087375 175.452632
L 178.852906 175.452632
L 177.618437 175.452632
L 176.383968 175.452632
L 175.149499 175.452632
L 173.91503 175.452632
L 172.680561 175.452632
L 171.446092 175.452632
L 170.211623 175.452632
L 168.977154 175.452632
L 167.742685 175.452632
L 166.508216 175.452632
L 165.273747 175.452632
L 164.039279 175.452632
L 162.80481 175.452632
L 161.570341 175.452632
L 160.335872 175.452632
L 159.101403 175.452632
L 157.866934 175.452632
L 156.632465 175.452632
L 155.397996 175.452632
L 154.163527 175.452632
L 152.929058 175.452632
L 151.694589 175.452632
L 150.46012 175.452632
L 149.225651 175.452632
L 147.991182 175.452632
L 146.756713 175.452632
L 145.522244 175.452632
L 144.287776 175.452632
L 143.053307 175.452632
L 141.818838 175.452632
L 140.584369 175.452632
L 139.3499 175.452632
L 138.115431 175.452632
L 136.880962 175.452632
L 135.646493 175.452632
L 134.412024 175.452632
L 133.177555 175.452632
L 131.943086 175.452632
L 130.708617 175.452632
L 129.474148 175.452632
L 128.239679 175.452632
L 127.00521 175.452632
L 125.770741 175.452632
L 124.536273 175.452632
L 123.301804 175.452632
L 122.067335 175.452632
L 120.832866 175.452632
L 119.598397 175.452632
L 118.363928 175.452632
L 117.129459 175.452632
L 115.89499 175.452632
L 114.660521 175.452632
L 113.426052 175.452632
L 112.191583 175.452632
L 110.957114 175.452632
L 109.722645 175.452632
L 108.488176 175.452632
L 107.253707 175.452632
L 106.019238 175.452632
L 104.78477 175.452632
L 103.550301 175.452632
L 102.315832 175.452632
L 101.081363 175.452632
L 99.846894 175.452632
L 98.612425 175.452632
L 97.377956 175.452632
L 96.143487 175.452632
L 94.909018 175.452632
L 93.674549 175.452632
L 92.44008 175.452632
L 91.205611 175.452632
L 89.971142 175.452632
L 88.736673 175.452632
L 87.502204 175.452632
L 86.267735 175.452632
L 85.033267 175.452632
L 83.798798 175.452632
L 82.564329 175.452632
L 81.32986 175.452632
L 80.095391 175.452632
L 78.860922 175.452632
L 77.626453 175.452632
L 76.391984 175.452632
L 75.157515 175.452632
L 73.923046 175.452632
L 72.688577 175.452632
L 71.454108 175.452632
L 70.219639 175.452632
L 68.98517 175.452632
L 67.750701 175.452632
L 66.516232 175.452632
L 65.281764 175.452632
L 64.047295 175.452632
L 62.812826 175.452632
L 61.578357 175.452632
L 60.343888 175.452632
L 59.109419 175.452632
L 57.87495 175.452632
L 56.640481 175.452632
L 55.406012 175.452632
L 54.171543 175.452632
L 52.937074 175.452632
L 51.702605 175.452632
L 50.468136 175.452632
L 49.233667 175.452632
L 47.999198 175.452632
L 46.764729 175.452632
L 45.530261 175.452632
L 44.295792 175.452632
L 43.061323 175.452632
L 41.826854 175.452632
L 40.592385 175.452632
L 39.357916 175.452632
L 38.123447 175.452632
L 36.888978 175.452632
L 35.654509 175.452632
L 34.42004 175.452632
L 33.185571 175.452632
L 31.951102 175.452632
L 30.716633 175.452632
L 29.482164 175.452632
L 28.247695 175.452632
L 27.013226 175.452632
L 25.778758 175.452632
L 24.544289 175.452632
L 23.30982 175.452632
L 22.075351 175.452632
L 20.840882 175.452632
L 19.606413 175.452632
L 18.371944 175.452632
L 17.137475 175.452632
L 15.903006 175.452632
L 14.668537 175.452632
L 13.434068 175.452632
L 12.199599 175.452632
L 10.96513 175.452632
L 9.730661 175.452632
L 8.496192 175.452632
L 7.261723 175.452632
L 6.027255 175.452632
L 4.792786 175.452632
L 3.558317 175.452632
L 2.323848 175.452632
L 1.089379 175.452632
L -0.14509 175.452632
L -1.379559 175.452632
L -2.614028 175.452632
L -3.848497 175.452632
L -5.082966 175.452632
L -6.317435 175.452632
L -7.551904 175.452632
L -8.786373 175.452632
L -10.020842 175.452632
L -11.255311 175.452632
L -12.48978 175.452632
L -13.724248 175.452632
L -14.958717 175.452632
L -16.193186 175.452632
L -17.427655 175.452632
L -18.662124 175.452632
L -19.896593 175.452632
L -21.131062 175.452632
L -22.365531 175.452632
L -23.6 175.452632
z
" clip-path="url(#pe8a10cce25)" style="fill: #4a90e2; fill-opacity: 0.15; stroke: #4a90e2; stroke-opacity: 0.15"/>
   </g>
   <g id="FillBetweenPolyCollection_2">
    <path d="M -23.6 175.452632
L -23.6 175.452631
L -22.365531 175.452631
L -21.131062 175.452631
L -19.896593 175.452631
L -18.662124 175.452631
L -17.427655 175.452631
L -16.193186 175.45263
L -14.958717 175.45263
L -13.724248 175.45263
L -12.48978 175.45263
L -11.255311 175.452629
L -10.020842 175.452629
L -8.786373 175.452629
L -7.551904 175.452628
L -6.317435 175.452628
L -5.082966 175.452627
L -3.848497 175.452626
L -2.614028 175.452626
L -1.379559 175.452625
L -0.14509 175.452624
L 1.089379 175.452622
L 2.323848 175.452621
L 3.558317 175.452619
L 4.792786 175.452617
L 6.027255 175.452615
L 7.261723 175.452613
L 8.496192 175.45261
L 9.730661 175.452606
L 10.96513 175.452603
L 12.199599 175.452598
L 13.434068 175.452594
L 14.668537 175.452588
L 15.903006 175.452582
L 17.137475 175.452574
L 18.371944 175.452566
L 19.606413 175.452556
L 20.840882 175.452546
L 22.075351 175.452533
L 23.30982 175.452519
L 24.544289 175.452503
L 25.778758 175.452485
L 27.013226 175.452465
L 28.247695 175.452442
L 29.482164 175.452415
L 30.716633 175.452385
L 31.951102 175.452352
L 33.185571 175.452313
L 34.42004 175.45227
L 35.654509 175.452221
L 36.888978 175.452166
L 38.123447 175.452104
L 39.357916 175.452034
L 40.592385 175.451955
L 41.826854 175.451866
L 43.061323 175.451765
L 44.295792 175.451652
L 45.530261 175.451526
L 46.764729 175.451383
L 47.999198 175.451224
L 49.233667 175.451044
L 50.468136 175.450843
L 51.702605 175.450618
L 52.937074 175.450366
L 54.171543 175.450084
L 55.406012 175.449768
L 56.640481 175.449416
L 57.87495 175.449022
L 59.109419 175.448583
L 60.343888 175.448094
L 61.578357 175.447548
L 62.812826 175.44694
L 64.047295 175.446263
L 65.281764 175.445511
L 66.516232 175.444674
L 67.750701 175.443745
L 68.98517 175.442713
L 70.219639 175.441569
L 71.454108 175.440301
L 72.688577 175.438895
L 73.923046 175.437339
L 75.157515 175.435618
L 76.391984 175.433714
L 77.626453 175.431611
L 78.860922 175.429289
L 80.095391 175.426726
L 81.32986 175.4239
L 82.564329 175.420786
L 83.798798 175.417356
L 85.033267 175.413581
L 86.267735 175.40943
L 87.502204 175.404867
L 88.736673 175.399856
L 89.971142 175.394355
L 91.205611 175.388321
L 92.44008 175.381708
L 93.674549 175.374463
L 94.909018 175.366532
L 96.143487 175.357856
L 97.377956 175.348371
L 98.612425 175.338008
L 99.846894 175.326695
L 101.081363 175.314352
L 102.315832 175.300895
L 103.550301 175.286232
L 104.78477 175.270267
L 106.019238 175.252896
L 107.253707 175.234007
L 108.488176 175.213482
L 109.722645 175.191194
L 110.957114 175.167008
L 112.191583 175.14078
L 113.426052 175.112358
L 114.660521 175.081578
L 115.89499 175.048268
L 117.129459 175.012244
L 118.363928 174.973312
L 119.598397 174.931264
L 120.832866 174.885885
L 122.067335 174.836941
L 123.301804 174.784191
L 124.536273 174.727376
L 125.770741 174.666227
L 127.00521 174.600456
L 128.239679 174.529763
L 129.474148 174.453834
L 130.708617 174.372335
L 131.943086 174.284919
L 133.177555 174.191222
L 134.412024 174.090861
L 135.646493 173.983437
L 136.880962 173.868534
L 138.115431 173.745715
L 139.3499 173.614528
L 140.584369 173.4745
L 141.818838 173.32514
L 143.053307 173.165938
L 144.287776 172.996364
L 145.522244 172.815871
L 146.756713 172.62389
L 147.991182 172.419834
L 149.225651 172.203099
L 150.46012 171.973059
L 151.694589 171.729071
L 152.929058 171.470474
L 154.163527 171.19659
L 155.397996 170.906722
L 156.632465 170.600158
L 157.866934 170.27617
L 159.101403 169.934013
L 160.335872 169.572931
L 161.570341 169.192153
L 162.80481 168.790897
L 164.039279 168.368371
L 165.273747 167.92377
L 166.508216 167.456287
L 167.742685 166.965104
L 168.977154 166.449401
L 170.211623 165.908355
L 171.446092 165.341142
L 172.680561 164.74694
L 173.91503 164.12493
L 175.149499 163.474299
L 176.383968 162.794244
L 177.618437 162.083971
L 178.852906 161.342701
L 180.087375 160.569671
L 181.321844 159.764137
L 182.556313 158.925378
L 183.790782 158.052699
L 185.025251 157.145431
L 186.259719 156.20294
L 187.494188 155.224624
L 188.728657 154.209923
L 189.963126 153.158314
L 191.197595 152.069325
L 192.432064 150.942527
L 193.666533 149.777548
L 194.901002 148.574069
L 196.135471 147.331829
L 197.36994 146.050634
L 198.604409 144.730351
L 199.838878 143.370919
L 201.073347 141.972349
L 202.307816 140.534728
L 203.542285 139.058222
L 204.776754 137.543077
L 206.011222 135.989627
L 207.245691 134.398289
L 208.48016 132.769573
L 209.714629 131.10408
L 210.949098 129.402505
L 212.183567 127.665641
L 213.418036 125.894375
L 214.652505 124.089696
L 215.886974 122.252694
L 217.121443 120.384557
L 218.355912 118.486577
L 219.590381 116.560149
L 220.82485 114.606768
L 222.059319 112.628031
L 223.293788 110.625637
L 224.528257 108.601384
L 225.762725 106.557168
L 226.997194 104.494984
L 228.231663 102.416919
L 229.466132 100.325154
L 230.700601 98.221958
L 231.93507 96.109687
L 233.169539 93.99078
L 234.404008 91.867751
L 235.638477 89.743194
L 236.872946 87.619767
L 238.107415 85.500197
L 239.341884 83.387267
L 240.576353 81.283817
L 241.810822 79.19273
L 243.045291 77.116936
L 244.27976 75.059395
L 245.514228 73.023098
L 246.748697 71.011057
L 247.983166 69.026298
L 249.217635 67.071852
L 250.452104 65.150752
L 251.686573 63.266018
L 252.921042 61.420659
L 254.155511 59.617656
L 255.38998 57.859958
L 256.624449 56.150474
L 257.858918 54.492068
L 259.093387 52.887542
L 260.327856 51.339639
L 261.562325 49.851027
L 262.796794 48.424298
L 264.031263 47.061953
L 265.265731 45.766403
L 266.5002 44.539953
L 267.734669 43.384805
L 268.969138 42.303042
L 270.203607 41.29663
L 271.438076 40.367403
L 272.672545 39.517068
L 273.907014 38.747191
L 275.141483 38.059196
L 276.375952 37.454361
L 277.610421 36.933812
L 278.84489 36.498521
L 280.079359 36.149304
L 281.313828 35.886815
L 282.548297 35.711548
L 283.782766 35.623832
L 285.017234 35.623832
L 286.251703 35.711548
L 287.486172 35.886815
L 288.720641 36.149304
L 289.95511 36.498521
L 291.189579 36.933812
L 292.424048 37.454361
L 293.658517 38.059196
L 294.892986 38.747191
L 296.127455 39.517068
L 297.361924 40.367403
L 298.596393 41.29663
L 299.830862 42.303042
L 301.065331 43.384805
L 302.2998 44.539953
L 303.534269 45.766403
L 304.768737 47.061953
L 306.003206 48.424298
L 307.237675 49.851027
L 308.472144 51.339639
L 309.706613 52.887542
L 310.941082 54.492068
L 312.175551 56.150474
L 313.41002 57.859958
L 314.644489 59.617656
L 315.878958 61.420659
L 317.113427 63.266018
L 318.347896 65.150752
L 319.582365 67.071852
L 320.816834 69.026298
L 322.051303 71.011057
L 323.285772 73.023098
L 324.52024 75.059395
L 325.754709 77.116936
L 326.989178 79.19273
L 328.223647 81.283817
L 329.458116 83.387267
L 330.692585 85.500197
L 331.927054 87.619767
L 333.161523 89.743194
L 334.395992 91.867751
L 335.630461 93.99078
L 336.86493 96.109687
L 338.099399 98.221958
L 339.333868 100.325154
L 340.568337 102.416919
L 341.802806 104.494984
L 343.037275 106.557168
L 344.271743 108.601384
L 345.506212 110.625637
L 346.740681 112.628031
L 347.97515 114.606768
L 349.209619 116.560149
L 350.444088 118.486577
L 351.678557 120.384557
L 352.913026 122.252694
L 354.147495 124.089696
L 355.381964 125.894375
L 356.616433 127.665641
L 357.850902 129.402505
L 359.085371 131.10408
L 360.31984 132.769573
L 361.554309 134.398289
L 362.788778 135.989627
L 364.023246 137.543077
L 365.257715 139.058222
L 366.492184 140.534728
L 367.726653 141.972349
L 368.961122 143.370919
L 370.195591 144.730351
L 371.43006 146.050634
L 372.664529 147.331829
L 373.898998 148.574069
L 375.133467 149.777548
L 376.367936 150.942527
L 377.602405 152.069325
L 378.836874 153.158314
L 380.071343 154.209923
L 381.305812 155.224624
L 382.540281 156.20294
L 383.774749 157.145431
L 385.009218 158.052699
L 386.243687 158.925378
L 387.478156 159.764137
L 388.712625 160.569671
L 389.947094 161.342701
L 391.181563 162.083971
L 392.416032 162.794244
L 393.650501 163.474299
L 394.88497 164.12493
L 396.119439 164.74694
L 397.353908 165.341142
L 398.588377 165.908355
L 399.822846 166.449401
L 401.057315 166.965104
L 402.291784 167.456287
L 403.526253 167.92377
L 404.760721 168.368371
L 405.99519 168.790897
L 407.229659 169.192153
L 408.464128 169.572931
L 409.698597 169.934013
L 410.933066 170.27617
L 412.167535 170.600158
L 413.402004 170.906722
L 414.636473 171.19659
L 415.870942 171.470474
L 417.105411 171.729071
L 418.33988 171.973059
L 419.574349 172.203099
L 420.808818 172.419834
L 422.043287 172.62389
L 423.277756 172.815871
L 424.512224 172.996364
L 425.746693 173.165938
L 426.981162 173.32514
L 428.215631 173.4745
L 429.4501 173.614528
L 430.684569 173.745715
L 431.919038 173.868534
L 433.153507 173.983437
L 434.387976 174.090861
L 435.622445 174.191222
L 436.856914 174.284919
L 438.091383 174.372335
L 439.325852 174.453834
L 440.560321 174.529763
L 441.79479 174.600456
L 443.029259 174.666227
L 444.263727 174.727376
L 445.498196 174.784191
L 446.732665 174.836941
L 447.967134 174.885885
L 449.201603 174.931264
L 450.436072 174.973312
L 451.670541 175.012244
L 452.90501 175.048268
L 454.139479 175.081578
L 455.373948 175.112358
L 456.608417 175.14078
L 457.842886 175.167008
L 459.077355 175.191194
L 460.311824 175.213482
L 461.546293 175.234007
L 462.780762 175.252896
L 464.01523 175.270267
L 465.249699 175.286232
L 466.484168 175.300895
L 467.718637 175.314352
L 468.953106 175.326695
L 470.187575 175.338008
L 471.422044 175.348371
L 472.656513 175.357856
L 473.890982 175.366532
L 475.125451 175.374463
L 476.35992 175.381708
L 477.594389 175.388321
L 478.828858 175.394355
L 480.063327 175.399856
L 481.297796 175.404867
L 482.532265 175.40943
L 483.766733 175.413581
L 485.001202 175.417356
L 486.235671 175.420786
L 487.47014 175.4239
L 488.704609 175.426726
L 489.939078 175.429289
L 491.173547 175.431611
L 492.408016 175.433714
L 493.642485 175.435618
L 494.876954 175.437339
L 496.111423 175.438895
L 497.345892 175.440301
L 498.580361 175.441569
L 499.81483 175.442713
L 501.049299 175.443745
L 502.283768 175.444674
L 503.518236 175.445511
L 504.752705 175.446263
L 505.987174 175.44694
L 507.221643 175.447548
L 508.456112 175.448094
L 509.690581 175.448583
L 510.92505 175.449022
L 512.159519 175.449416
L 513.393988 175.449768
L 514.628457 175.450084
L 515.862926 175.450366
L 517.097395 175.450618
L 518.331864 175.450843
L 519.566333 175.451044
L 520.800802 175.451224
L 522.035271 175.451383
L 523.269739 175.451526
L 524.504208 175.451652
L 525.738677 175.451765
L 526.973146 175.451866
L 528.207615 175.451955
L 529.442084 175.452034
L 530.676553 175.452104
L 531.911022 175.452166
L 533.145491 175.452221
L 534.37996 175.45227
L 535.614429 175.452313
L 536.848898 175.452352
L 538.083367 175.452385
L 539.317836 175.452415
L 540.552305 175.452442
L 541.786774 175.452465
L 543.021242 175.452485
L 544.255711 175.452503
L 545.49018 175.452519
L 546.724649 175.452533
L 547.959118 175.452546
L 549.193587 175.452556
L 550.428056 175.452566
L 551.662525 175.452574
L 552.896994 175.452582
L 554.131463 175.452588
L 555.365932 175.452594
L 556.600401 175.452598
L 557.83487 175.452603
L 559.069339 175.452606
L 560.303808 175.45261
L 561.538277 175.452613
L 562.772745 175.452615
L 564.007214 175.452617
L 565.241683 175.452619
L 566.476152 175.452621
L 567.710621 175.452622
L 568.94509 175.452624
L 570.179559 175.452625
L 571.414028 175.452626
L 572.648497 175.452626
L 573.882966 175.452627
L 575.117435 175.452628
L 576.351904 175.452628
L 577.586373 175.452629
L 578.820842 175.452629
L 580.055311 175.452629
L 581.28978 175.45263
L 582.524248 175.45263
L 583.758717 175.45263
L 584.993186 175.45263
L 586.227655 175.452631
L 587.462124 175.452631
L 588.696593 175.452631
L 589.931062 175.452631
L 591.165531 175.452631
L 592.4 175.452631
L 592.4 175.452632
L 592.4 175.452632
L 591.165531 175.452632
L 589.931062 175.452632
L 588.696593 175.452632
L 587.462124 175.452632
L 586.227655 175.452632
L 584.993186 175.452632
L 583.758717 175.452632
L 582.524248 175.452632
L 581.28978 175.452632
L 580.055311 175.452632
L 578.820842 175.452632
L 577.586373 175.452632
L 576.351904 175.452632
L 575.117435 175.452632
L 573.882966 175.452632
L 572.648497 175.452632
L 571.414028 175.452632
L 570.179559 175.452632
L 568.94509 175.452632
L 567.710621 175.452632
L 566.476152 175.452632
L 565.241683 175.452632
L 564.007214 175.452632
L 562.772745 175.452632
L 561.538277 175.452632
L 560.303808 175.452632
L 559.069339 175.452632
L 557.83487 175.452632
L 556.600401 175.452632
L 555.365932 175.452632
L 554.131463 175.452632
L 552.896994 175.452632
L 551.662525 175.452632
L 550.428056 175.452632
L 549.193587 175.452632
L 547.959118 175.452632
L 546.724649 175.452632
L 545.49018 175.452632
L 544.255711 175.452632
L 543.021242 175.452632
L 541.786774 175.452632
L 540.552305 175.452632
L 539.317836 175.452632
L 538.083367 175.452632
L 536.848898 175.452632
L 535.614429 175.452632
L 534.37996 175.452632
L 533.145491 175.452632
L 531.911022 175.452632
L 530.676553 175.452632
L 529.442084 175.452632
L 528.207615 175.452632
L 526.973146 175.452632
L 525.738677 175.452632
L 524.504208 175.452632
L 523.269739 175.452632
L 522.035271 175.452632
L 520.800802 175.452632
L 519.566333 175.452632
L 518.331864 175.452632
L 517.097395 175.452632
L 515.862926 175.452632
L 514.628457 175.452632
L 513.393988 175.452632
L 512.159519 175.452632
L 510.92505 175.452632
L 509.690581 175.452632
L 508.456112 175.452632
L 507.221643 175.452632
L 505.987174 175.452632
L 504.752705 175.452632
L 503.518236 175.452632
L 502.283768 175.452632
L 501.049299 175.452632
L 499.81483 175.452632
L 498.580361 175.452632
L 497.345892 175.452632
L 496.111423 175.452632
L 494.876954 175.452632
L 493.642485 175.452632
L 492.408016 175.452632
L 491.173547 175.452632
L 489.939078 175.452632
L 488.704609 175.452632
L 487.47014 175.452632
L 486.235671 175.452632
L 485.001202 175.452632
L 483.766733 175.452632
L 482.532265 175.452632
L 481.297796 175.452632
L 480.063327 175.452632
L 478.828858 175.452632
L 477.594389 175.452632
L 476.35992 175.452632
L 475.125451 175.452632
L 473.890982 175.452632
L 472.656513 175.452632
L 471.422044 175.452632
L 470.187575 175.452632
L 468.953106 175.452632
L 467.718637 175.452632
L 466.484168 175.452632
L 465.249699 175.452632
L 464.01523 175.452632
L 462.780762 175.452632
L 461.546293 175.452632
L 460.311824 175.452632
L 459.077355 175.452632
L 457.842886 175.452632
L 456.608417 175.452632
L 455.373948 175.452632
L 454.139479 175.452632
L 452.90501 175.452632
L 451.670541 175.452632
L 450.436072 175.452632
L 449.201603 175.452632
L 447.967134 175.452632
L 446.732665 175.452632
L 445.498196 175.452632
L 444.263727 175.452632
L 443.029259 175.452632
L 441.79479 175.452632
L 440.560321 175.452632
L 439.325852 175.452632
L 438.091383 175.452632
L 436.856914 175.452632
L 435.622445 175.452632
L 434.387976 175.452632
L 433.153507 175.452632
L 431.919038 175.452632
L 430.684569 175.452632
L 429.4501 175.452632
L 428.215631 175.452632
L 426.981162 175.452632
L 425.746693 175.452632
L 424.512224 175.452632
L 423.277756 175.452632
L 422.043287 175.452632
L 420.808818 175.452632
L 419.574349 175.452632
L 418.33988 175.452632
L 417.105411 175.452632
L 415.870942 175.452632
L 414.636473 175.452632
L 413.402004 175.452632
L 412.167535 175.452632
L 410.933066 175.452632
L 409.698597 175.452632
L 408.464128 175.452632
L 407.229659 175.452632
L 405.99519 175.452632
L 404.760721 175.452632
L 403.526253 175.452632
L 402.291784 175.452632
L 401.057315 175.452632
L 399.822846 175.452632
L 398.588377 175.452632
L 397.353908 175.452632
L 396.119439 175.452632
L 394.88497 175.452632
L 393.650501 175.452632
L 392.416032 175.452632
L 391.181563 175.452632
L 389.947094 175.452632
L 388.712625 175.452632
L 387.478156 175.452632
L 386.243687 175.452632
L 385.009218 175.452632
L 383.774749 175.452632
L 382.540281 175.452632
L 381.305812 175.452632
L 380.071343 175.452632
L 378.836874 175.452632
L 377.602405 175.452632
L 376.367936 175.452632
L 375.133467 175.452632
L 373.898998 175.452632
L 372.664529 175.452632
L 371.43006 175.452632
L 370.195591 175.452632
L 368.961122 175.452632
L 367.726653 175.452632
L 366.492184 175.452632
L 365.257715 175.452632
L 364.023246 175.452632
L 362.788778 175.452632
L 361.554309 175.452632
L 360.31984 175.452632
L 359.085371 175.452632
L 357.850902 175.452632
L 356.616433 175.452632
L 355.381964 175.452632
L 354.147495 175.452632
L 352.913026 175.452632
L 351.678557 175.452632
L 350.444088 175.452632
L 349.209619 175.452632
L 347.97515 175.452632
L 346.740681 175.452632
L 345.506212 175.452632
L 344.271743 175.452632
L 343.037275 175.452632
L 341.802806 175.452632
L 340.568337 175.452632
L 339.333868 175.452632
L 338.099399 175.452632
L 336.86493 175.452632
L 335.630461 175.452632
L 334.395992 175.452632
L 333.161523 175.452632
L 331.927054 175.452632
L 330.692585 175.452632
L 329.458116 175.452632
L 328.223647 175.452632
L 326.989178 175.452632
L 325.754709 175.452632
L 324.52024 175.452632
L 323.285772 175.452632
L 322.051303 175.452632
L 320.816834 175.452632
L 319.582365 175.452632
L 318.347896 175.452632
L 317.113427 175.452632
L 315.878958 175.452632
L 314.644489 175.452632
L 313.41002 175.452632
L 312.175551 175.452632
L 310.941082 175.452632
L 309.706613 175.452632
L 308.472144 175.452632
L 307.237675 175.452632
L 306.003206 175.452632
L 304.768737 175.452632
L 303.534269 175.452632
L 302.2998 175.452632
L 301.065331 175.452632
L 299.830862 175.452632
L 298.596393 175.452632
L 297.361924 175.452632
L 296.127455 175.452632
L 294.892986 175.452632
L 293.658517 175.452632
L 292.424048 175.452632
L 291.189579 175.452632
L 289.95511 175.452632
L 288.720641 175.452632
L 287.486172 175.452632
L 286.251703 175.452632
L 285.017234 175.452632
L 283.782766 175.452632
L 282.548297 175.452632
L 281.313828 175.452632
L 280.079359 175.452632
L 278.84489 175.452632
L 277.610421 175.452632
L 276.375952 175.452632
L 275.141483 175.452632
L 273.907014 175.452632
L 272.672545 175.452632
L 271.438076 175.452632
L 270.203607 175.452632
L 268.969138 175.452632
L 267.734669 175.452632
L 266.5002 175.452632
L 265.265731 175.452632
L 264.031263 175.452632
L 262.796794 175.452632
L 261.562325 175.452632
L 260.327856 175.452632
L 259.093387 175.452632
L 257.858918 175.452632
L 256.624449 175.452632
L 255.38998 175.452632
L 254.155511 175.452632
L 252.921042 175.452632
L 251.686573 175.452632
L 250.452104 175.452632
L 249.217635 175.452632
L 247.983166 175.452632
L 246.748697 175.452632
L 245.514228 175.452632
L 244.27976 175.452632
L 243.045291 175.452632
L 241.810822 175.452632
L 240.576353 175.452632
L 239.341884 175.452632
L 238.107415 175.452632
L 236.872946 175.452632
L 235.638477 175.452632
L 234.404008 175.452632
L 233.169539 175.452632
L 231.93507 175.452632
L 230.700601 175.452632
L 229.466132 175.452632
L 228.231663 175.452632
L 226.997194 175.452632
L 225.762725 175.452632
L 224.528257 175.452632
L 223.293788 175.452632
L 222.059319 175.452632
L 220.82485 175.452632
L 219.590381 175.452632
L 218.355912 175.452632
L 217.121443 175.452632
L 215.886974 175.452632
L 214.652505 175.452632
L 213.418036 175.452632
L 212.183567 175.452632
L 210.949098 175.452632
L 209.714629 175.452632
L 208.48016 175.452632
L 207.245691 175.452632
L 206.011222 175.452632
L 204.776754 175.452632
L 203.542285 175.452632
L 202.307816 175.452632
L 201.073347 175.452632
L 199.838878 175.452632
L 198.604409 175.452632
L 197.36994 175.452632
L 196.135471 175.452632
L 194.901002 175.452632
L 193.666533 175.452632
L 192.432064 175.452632
L 191.197595 175.452632
L 189.963126 175.452632
L 188.728657 175.452632
L 187.494188 175.452632
L 186.259719 175.452632
L 185.025251 175.452632
L 183.790782 175.452632
L 182.556313 175.452632
L 181.321844 175.452632
L 180.087375 175.452632
L 178.852906 175.452632
L 177.618437 175.452632
L 176.383968 175.452632
L 175.149499 175.452632
L 173.91503 175.452632
L 172.680561 175.452632
L 171.446092 175.452632
L 170.211623 175.452632
L 168.977154 175.452632
L 167.742685 175.452632
L 166.508216 175.452632
L 165.273747 175.452632
L 164.039279 175.452632
L 162.80481 175.452632
L 161.570341 175.452632
L 160.335872 175.452632
L 159.101403 175.452632
L 157.866934 175.452632
L 156.632465 175.452632
L 155.397996 175.452632
L 154.163527 175.452632
L 152.929058 175.452632
L 151.694589 175.452632
L 150.46012 175.452632
L 149.225651 175.452632
L 147.991182 175.452632
L 146.756713 175.452632
L 145.522244 175.452632
L 144.287776 175.452632
L 143.053307 175.452632
L 141.818838 175.452632
L 140.584369 175.452632
L 139.3499 175.452632
L 138.115431 175.452632
L 136.880962 175.452632
L 135.646493 175.452632
L 134.412024 175.452632
L 133.177555 175.452632
L 131.943086 175.452632
L 130.708617 175.452632
L 129.474148 175.452632
L 128.239679 175.452632
L 127.00521 175.452632
L 125.770741 175.452632
L 124.536273 175.452632
L 123.301804 175.452632
L 122.067335 175.452632
L 120.832866 175.452632
L 119.598397 175.452632
L 118.363928 175.452632
L 117.129459 175.452632
L 115.89499 175.452632
L 114.660521 175.452632
L 113.426052 175.452632
L 112.191583 175.452632
L 110.957114 175.452632
L 109.722645 175.452632
L 108.488176 175.452632
L 107.253707 175.452632
L 106.019238 175.452632
L 104.78477 175.452632
L 103.550301 175.452632
L 102.315832 175.452632
L 101.081363 175.452632
L 99.846894 175.452632
L 98.612425 175.452632
L 97.377956 175.452632
L 96.143487 175.452632
L 94.909018 175.452632
L 93.674549 175.452632
L 92.44008 175.452632
L 91.205611 175.452632
L 89.971142 175.452632
L 88.736673 175.452632
L 87.502204 175.452632
L 86.267735 175.452632
L 85.033267 175.452632
L 83.798798 175.452632
L 82.564329 175.452632
L 81.32986 175.452632
L 80.095391 175.452632
L 78.860922 175.452632
L 77.626453 175.452632
L 76.391984 175.452632
L 75.157515 175.452632
L 73.923046 175.452632
L 72.688577 175.452632
L 71.454108 175.452632
L 70.219639 175.452632
L 68.98517 175.452632
L 67.750701 175.452632
L 66.516232 175.452632
L 65.281764 175.452632
L 64.047295 175.452632
L 62.812826 175.452632
L 61.578357 175.452632
L 60.343888 175.452632
L 59.109419 175.452632
L 57.87495 175.452632
L 56.640481 175.452632
L 55.406012 175.452632
L 54.171543 175.452632
L 52.937074 175.452632
L 51.702605 175.452632
L 50.468136 175.452632
L 49.233667 175.452632
L 47.999198 175.452632
L 46.764729 175.452632
L 45.530261 175.452632
L 44.295792 175.452632
L 43.061323 175.452632
L 41.826854 175.452632
L 40.592385 175.452632
L 39.357916 175.452632
L 38.123447 175.452632
L 36.888978 175.452632
L 35.654509 175.452632
L 34.42004 175.452632
L 33.185571 175.452632
L 31.951102 175.452632
L 30.716633 175.452632
L 29.482164 175.452632
L 28.247695 175.452632
L 27.013226 175.452632
L 25.778758 175.452632
L 24.544289 175.452632
L 23.30982 175.452632
L 22.075351 175.452632
L 20.840882 175.452632
L 19.606413 175.452632
L 18.371944 175.452632
L 17.137475 175.452632
L 15.903006 175.452632
L 14.668537 175.452632
L 13.434068 175.452632
L 12.199599 175.452632
L 10.96513 175.452632
L 9.730661 175.452632
L 8.496192 175.452632
L 7.261723 175.452632
L 6.027255 175.452632
L 4.792786 175.452632
L 3.558317 175.452632
L 2.323848 175.452632
L 1.089379 175.452632
L -0.14509 175.452632
L -1.379559 175.452632
L -2.614028 175.452632
L -3.848497 175.452632
L -5.082966 175.452632
L -6.317435 175.452632
L -7.551904 175.452632
L -8.786373 175.452632
L -10.020842 175.452632
L -11.255311 175.452632
L -12.48978 175.452632
L -13.724248 175.452632
L -14.958717 175.452632
L -16.193186 175.452632
L -17.427655 175.452632
L -18.662124 175.452632
L -19.896593 175.452632
L -21.131062 175.452632
L -22.365531 175.452632
L -23.6 175.452632
z
" clip-path="url(#pe8a10cce25)" style="fill: #e94e77; fill-opacity: 0.15; stroke: #e94e77; stroke-opacity: 0.15"/>
   </g>
   <g id="FillBetweenPolyCollection_3">
    <path d="M -23.6 175.452632
L -23.6 175.45263
L -22.365531 175.45263
L -21.131062 175.452629
L -19.896593 175.452629
L -18.662124 175.452629
L -17.427655 175.452628
L -16.193186 175.452628
L -14.958717 175.452628
L -13.724248 175.452627
L -12.48978 175.452627
L -11.255311 175.452626
L -10.020842 175.452625
L -8.786373 175.452625
L -7.551904 175.452624
L -6.317435 175.452623
L -5.082966 175.452622
L -3.848497 175.45262
L -2.614028 175.452619
L -1.379559 175.452618
L -0.14509 175.452616
L 1.089379 175.452614
L 2.323848 175.452612
L 3.558317 175.45261
L 4.792786 175.452607
L 6.027255 175.452604
L 7.261723 175.452601
L 8.496192 175.452598
L 9.730661 175.452594
L 10.96513 175.452589
L 12.199599 175.452585
L 13.434068 175.452579
L 14.668537 175.452573
L 15.903006 175.452567
L 17.137475 175.452559
L 18.371944 175.452551
L 19.606413 175.452542
L 20.840882 175.452532
L 22.075351 175.452521
L 23.30982 175.452509
L 24.544289 175.452495
L 25.778758 175.45248
L 27.013226 175.452463
L 28.247695 175.452445
L 29.482164 175.452425
L 30.716633 175.452402
L 31.951102 175.452378
L 33.185571 175.45235
L 34.42004 175.45232
L 35.654509 175.452287
L 36.888978 175.452251
L 38.123447 175.45221
L 39.357916 175.452166
L 40.592385 175.452117
L 41.826854 175.452064
L 43.061323 175.452005
L 44.295792 175.45194
L 45.530261 175.451869
L 46.764729 175.451791
L 47.999198 175.451705
L 49.233667 175.451611
L 50.468136 175.451508
L 51.702605 175.451395
L 52.937074 175.451271
L 54.171543 175.451135
L 55.406012 175.450986
L 56.640481 175.450823
L 57.87495 175.450645
L 59.109419 175.450451
L 60.343888 175.450238
L 61.578357 175.450005
L 62.812826 175.449751
L 64.047295 175.449474
L 65.281764 175.449171
L 66.516232 175.448841
L 67.750701 175.448481
L 68.98517 175.448088
L 70.219639 175.447661
L 71.454108 175.447195
L 72.688577 175.446689
L 73.923046 175.446137
L 75.157515 175.445538
L 76.391984 175.444886
L 77.626453 175.444178
L 78.860922 175.443408
L 80.095391 175.442573
L 81.32986 175.441666
L 82.564329 175.440682
L 83.798798 175.439616
L 85.033267 175.43846
L 86.267735 175.437207
L 87.502204 175.43585
L 88.736673 175.434382
L 89.971142 175.432793
L 91.205611 175.431074
L 92.44008 175.429215
L 93.674549 175.427207
L 94.909018 175.425038
L 96.143487 175.422695
L 97.377956 175.420166
L 98.612425 175.417438
L 99.846894 175.414497
L 101.081363 175.411325
L 102.315832 175.407908
L 103.550301 175.404228
L 104.78477 175.400266
L 106.019238 175.396003
L 107.253707 175.391417
L 108.488176 175.386486
L 109.722645 175.381187
L 110.957114 175.375494
L 112.191583 175.369381
L 113.426052 175.36282
L 114.660521 175.35578
L 115.89499 175.348231
L 117.129459 175.340138
L 118.363928 175.331467
L 119.598397 175.322179
L 120.832866 175.312236
L 122.067335 175.301596
L 123.301804 175.290215
L 124.536273 175.278047
L 125.770741 175.265042
L 127.00521 175.251149
L 128.239679 175.236314
L 129.474148 175.22048
L 130.708617 175.203587
L 131.943086 175.185572
L 133.177555 175.166369
L 134.412024 175.145909
L 135.646493 175.124118
L 136.880962 175.10092
L 138.115431 175.076236
L 139.3499 175.04998
L 140.584369 175.022066
L 141.818838 174.992402
L 143.053307 174.960892
L 144.287776 174.927435
L 145.522244 174.891927
L 146.756713 174.854259
L 147.991182 174.814316
L 149.225651 174.771981
L 150.46012 174.727129
L 151.694589 174.679633
L 152.929058 174.629357
L 154.163527 174.576164
L 155.397996 174.519909
L 156.632465 174.460441
L 157.866934 174.397606
L 159.101403 174.331242
L 160.335872 174.261181
L 161.570341 174.187253
L 162.80481 174.109276
L 164.039279 174.027067
L 165.273747 173.940434
L 166.508216 173.849181
L 167.742685 173.753104
L 168.977154 173.651993
L 170.211623 173.545633
L 171.446092 173.433801
L 172.680561 173.316269
L 173.91503 173.192803
L 175.149499 173.063161
L 176.383968 172.927096
L 177.618437 172.784355
L 178.852906 172.634678
L 180.087375 172.4778
L 181.321844 172.313449
L 182.556313 172.141349
L 183.790782 171.961216
L 185.025251 171.772761
L 186.259719 171.575693
L 187.494188 171.36971
L 188.728657 171.15451
L 189.963126 170.929784
L 191.197595 170.69522
L 192.432064 170.4505
L 193.666533 170.195303
L 194.901002 169.929305
L 196.135471 169.652179
L 197.36994 169.363595
L 198.604409 169.063219
L 199.838878 168.750718
L 201.073347 168.425755
L 202.307816 168.087993
L 203.542285 167.737096
L 204.776754 167.372725
L 206.011222 166.994544
L 207.245691 166.602217
L 208.48016 166.195411
L 209.714629 165.773794
L 210.949098 165.337037
L 212.183567 164.884817
L 213.418036 164.416814
L 214.652505 163.932712
L 215.886974 163.432202
L 217.121443 162.914983
L 218.355912 162.38076
L 219.590381 161.829246
L 220.82485 161.260164
L 222.059319 160.673246
L 223.293788 160.068237
L 224.528257 159.444892
L 225.762725 158.802977
L 226.997194 158.142275
L 228.231663 157.462581
L 229.466132 156.763705
L 230.700601 156.045476
L 231.93507 155.307736
L 233.169539 154.550348
L 234.404008 153.773192
L 235.638477 152.976171
L 236.872946 152.159204
L 238.107415 151.322235
L 239.341884 150.46523
L 240.576353 149.588177
L 241.810822 148.691089
L 243.045291 147.774005
L 244.27976 146.836988
L 245.514228 145.880128
L 246.748697 144.903544
L 247.983166 143.907381
L 249.217635 142.891814
L 250.452104 141.857046
L 251.686573 140.803312
L 252.921042 139.730876
L 254.155511 138.640035
L 255.38998 137.531114
L 256.624449 136.404475
L 257.858918 135.260507
L 259.093387 134.099637
L 260.327856 132.922321
L 261.562325 131.729049
L 262.796794 130.520347
L 264.031263 129.296772
L 265.265731 128.058914
L 266.5002 126.807398
L 267.734669 125.542881
L 268.969138 124.266055
L 270.203607 122.977642
L 271.438076 121.6784
L 272.672545 120.369115
L 273.907014 119.050608
L 275.141483 117.723729
L 276.375952 116.38936
L 277.610421 115.048411
L 278.84489 113.701822
L 280.079359 112.350561
L 281.313828 110.995622
L 282.548297 109.638027
L 283.782766 108.27882
L 285.017234 106.919072
L 286.251703 105.559875
L 287.486172 104.202342
L 288.720641 102.847605
L 289.95511 101.496817
L 291.189579 100.151146
L 292.424048 98.811774
L 293.658517 97.4799
L 294.892986 96.156733
L 296.127455 94.843491
L 297.361924 93.541404
L 298.596393 92.251703
L 299.830862 90.97563
L 301.065331 89.714425
L 302.2998 88.469331
L 303.534269 87.241588
L 304.768737 86.032435
L 306.003206 84.843104
L 307.237675 83.67482
L 308.472144 82.528799
L 309.706613 81.406245
L 310.941082 80.308348
L 312.175551 79.236283
L 313.41002 78.191207
L 314.644489 77.174256
L 315.878958 76.186546
L 317.113427 75.229167
L 318.347896 74.303186
L 319.582365 73.409638
L 320.816834 72.549531
L 322.051303 71.723841
L 323.285772 70.93351
L 324.52024 70.179443
L 325.754709 69.462511
L 326.989178 68.783544
L 328.223647 68.143332
L 329.458116 67.542624
L 330.692585 66.982123
L 331.927054 66.462492
L 333.161523 65.984342
L 334.395992 65.548242
L 335.630461 65.15471
L 336.86493 64.804215
L 338.099399 64.497174
L 339.333868 64.233957
L 340.568337 64.014879
L 341.802806 63.840202
L 343.037275 63.710136
L 344.271743 63.624838
L 345.506212 63.584412
L 346.740681 63.588904
L 347.97515 63.638311
L 349.209619 63.732572
L 350.444088 63.871574
L 351.678557 64.05515
L 352.913026 64.283079
L 354.147495 64.555088
L 355.381964 64.87085
L 356.616433 65.229988
L 357.850902 65.632073
L 359.085371 66.076626
L 360.31984 66.563118
L 361.554309 67.090974
L 362.788778 67.659571
L 364.023246 68.268238
L 365.257715 68.916262
L 366.492184 69.602887
L 367.726653 70.327313
L 368.961122 71.088703
L 370.195591 71.88618
L 371.43006 72.71883
L 372.664529 73.585704
L 373.898998 74.48582
L 375.133467 75.418165
L 376.367936 76.381696
L 377.602405 77.375342
L 378.836874 78.398008
L 380.071343 79.448574
L 381.305812 80.525898
L 382.540281 81.628821
L 383.774749 82.756165
L 385.009218 83.906735
L 386.243687 85.079326
L 387.478156 86.272719
L 388.712625 87.485689
L 389.947094 88.717001
L 391.181563 89.965417
L 392.416032 91.229695
L 393.650501 92.508593
L 394.88497 93.80087
L 396.119439 95.105287
L 397.353908 96.420612
L 398.588377 97.745617
L 399.822846 99.079087
L 401.057315 100.419814
L 402.291784 101.766603
L 403.526253 103.118274
L 404.760721 104.473661
L 405.99519 105.831618
L 407.229659 107.191013
L 408.464128 108.550739
L 409.698597 109.909708
L 410.933066 111.266855
L 412.167535 112.621139
L 413.402004 113.971545
L 414.636473 115.317082
L 415.870942 116.656789
L 417.105411 117.989732
L 418.33988 119.315006
L 419.574349 120.631736
L 420.808818 121.939077
L 422.043287 123.236216
L 423.277756 124.522371
L 424.512224 125.796792
L 425.746693 127.058763
L 426.981162 128.307599
L 428.215631 129.542649
L 429.4501 130.763296
L 430.684569 131.968955
L 431.919038 133.159076
L 433.153507 134.333142
L 434.387976 135.490667
L 435.622445 136.631202
L 436.856914 137.754328
L 438.091383 138.85966
L 439.325852 139.946846
L 440.560321 141.015564
L 441.79479 142.065525
L 443.029259 143.09647
L 444.263727 144.108172
L 445.498196 145.100432
L 446.732665 146.073082
L 447.967134 147.025982
L 449.201603 147.959019
L 450.436072 148.872108
L 451.670541 149.765191
L 452.90501 150.638235
L 454.139479 151.491231
L 455.373948 152.324196
L 456.608417 153.137168
L 457.842886 153.93021
L 459.077355 154.703403
L 460.311824 155.456851
L 461.546293 156.190678
L 462.780762 156.905023
L 464.01523 157.600048
L 465.249699 158.275928
L 466.484168 158.932856
L 467.718637 159.571039
L 468.953106 160.190698
L 470.187575 160.792069
L 471.422044 161.375399
L 472.656513 161.940945
L 473.890982 162.488979
L 475.125451 163.019778
L 476.35992 163.533631
L 477.594389 164.030835
L 478.828858 164.511693
L 480.063327 164.976514
L 481.297796 165.425615
L 482.532265 165.859318
L 483.766733 166.277946
L 485.001202 166.68183
L 486.235671 167.071301
L 487.47014 167.446693
L 488.704609 167.808342
L 489.939078 168.156586
L 491.173547 168.491761
L 492.408016 168.814204
L 493.642485 169.124254
L 494.876954 169.422244
L 496.111423 169.708511
L 497.345892 169.983385
L 498.580361 170.247196
L 499.81483 170.500272
L 501.049299 170.742935
L 502.283768 170.975507
L 503.518236 171.198302
L 504.752705 171.411634
L 505.987174 171.61581
L 507.221643 171.811132
L 508.456112 171.997899
L 509.690581 172.176402
L 510.92505 172.34693
L 512.159519 172.509764
L 513.393988 172.665181
L 514.628457 172.813449
L 515.862926 172.954835
L 517.097395 173.089595
L 518.331864 173.217982
L 519.566333 173.340243
L 520.800802 173.456616
L 522.035271 173.567335
L 523.269739 173.672628
L 524.504208 173.772715
L 525.738677 173.867811
L 526.973146 173.958124
L 528.207615 174.043856
L 529.442084 174.125204
L 530.676553 174.202356
L 531.911022 174.275497
L 533.145491 174.344805
L 534.37996 174.41045
L 535.614429 174.472599
L 536.848898 174.531412
L 538.083367 174.587043
L 539.317836 174.639641
L 540.552305 174.68935
L 541.786774 174.736307
L 543.021242 174.780645
L 544.255711 174.822492
L 545.49018 174.86197
L 546.724649 174.899198
L 547.959118 174.934287
L 549.193587 174.967346
L 550.428056 174.998479
L 551.662525 175.027786
L 552.896994 175.055361
L 554.131463 175.081295
L 555.365932 175.105676
L 556.600401 175.128586
L 557.83487 175.150105
L 559.069339 175.170308
L 560.303808 175.189268
L 561.538277 175.207053
L 562.772745 175.223729
L 564.007214 175.239359
L 565.241683 175.254001
L 566.476152 175.267712
L 567.710621 175.280546
L 568.94509 175.292553
L 570.179559 175.303782
L 571.414028 175.314279
L 572.648497 175.324088
L 573.882966 175.333249
L 575.117435 175.341802
L 576.351904 175.349783
L 577.586373 175.357228
L 578.820842 175.364169
L 580.055311 175.370639
L 581.28978 175.376666
L 582.524248 175.382278
L 583.758717 175.387501
L 584.993186 175.392361
L 586.227655 175.396881
L 587.462124 175.401082
L 588.696593 175.404986
L 589.931062 175.408612
L 591.165531 175.411979
L 592.4 175.415103
L 592.4 175.452632
L 592.4 175.452632
L 591.165531 175.452632
L 589.931062 175.452632
L 588.696593 175.452632
L 587.462124 175.452632
L 586.227655 175.452632
L 584.993186 175.452632
L 583.758717 175.452632
L 582.524248 175.452632
L 581.28978 175.452632
L 580.055311 175.452632
L 578.820842 175.452632
L 577.586373 175.452632
L 576.351904 175.452632
L 575.117435 175.452632
L 573.882966 175.452632
L 572.648497 175.452632
L 571.414028 175.452632
L 570.179559 175.452632
L 568.94509 175.452632
L 567.710621 175.452632
L 566.476152 175.452632
L 565.241683 175.452632
L 564.007214 175.452632
L 562.772745 175.452632
L 561.538277 175.452632
L 560.303808 175.452632
L 559.069339 175.452632
L 557.83487 175.452632
L 556.600401 175.452632
L 555.365932 175.452632
L 554.131463 175.452632
L 552.896994 175.452632
L 551.662525 175.452632
L 550.428056 175.452632
L 549.193587 175.452632
L 547.959118 175.452632
L 546.724649 175.452632
L 545.49018 175.452632
L 544.255711 175.452632
L 543.021242 175.452632
L 541.786774 175.452632
L 540.552305 175.452632
L 539.317836 175.452632
L 538.083367 175.452632
L 536.848898 175.452632
L 535.614429 175.452632
L 534.37996 175.452632
L 533.145491 175.452632
L 531.911022 175.452632
L 530.676553 175.452632
L 529.442084 175.452632
L 528.207615 175.452632
L 526.973146 175.452632
L 525.738677 175.452632
L 524.504208 175.452632
L 523.269739 175.452632
L 522.035271 175.452632
L 520.800802 175.452632
L 519.566333 175.452632
L 518.331864 175.452632
L 517.097395 175.452632
L 515.862926 175.452632
L 514.628457 175.452632
L 513.393988 175.452632
L 512.159519 175.452632
L 510.92505 175.452632
L 509.690581 175.452632
L 508.456112 175.452632
L 507.221643 175.452632
L 505.987174 175.452632
L 504.752705 175.452632
L 503.518236 175.452632
L 502.283768 175.452632
L 501.049299 175.452632
L 499.81483 175.452632
L 498.580361 175.452632
L 497.345892 175.452632
L 496.111423 175.452632
L 494.876954 175.452632
L 493.642485 175.452632
L 492.408016 175.452632
L 491.173547 175.452632
L 489.939078 175.452632
L 488.704609 175.452632
L 487.47014 175.452632
L 486.235671 175.452632
L 485.001202 175.452632
L 483.766733 175.452632
L 482.532265 175.452632
L 481.297796 175.452632
L 480.063327 175.452632
L 478.828858 175.452632
L 477.594389 175.452632
L 476.35992 175.452632
L 475.125451 175.452632
L 473.890982 175.452632
L 472.656513 175.452632
L 471.422044 175.452632
L 470.187575 175.452632
L 468.953106 175.452632
L 467.718637 175.452632
L 466.484168 175.452632
L 465.249699 175.452632
L 464.01523 175.452632
L 462.780762 175.452632
L 461.546293 175.452632
L 460.311824 175.452632
L 459.077355 175.452632
L 457.842886 175.452632
L 456.608417 175.452632
L 455.373948 175.452632
L 454.139479 175.452632
L 452.90501 175.452632
L 451.670541 175.452632
L 450.436072 175.452632
L 449.201603 175.452632
L 447.967134 175.452632
L 446.732665 175.452632
L 445.498196 175.452632
L 444.263727 175.452632
L 443.029259 175.452632
L 441.79479 175.452632
L 440.560321 175.452632
L 439.325852 175.452632
L 438.091383 175.452632
L 436.856914 175.452632
L 435.622445 175.452632
L 434.387976 175.452632
L 433.153507 175.452632
L 431.919038 175.452632
L 430.684569 175.452632
L 429.4501 175.452632
L 428.215631 175.452632
L 426.981162 175.452632
L 425.746693 175.452632
L 424.512224 175.452632
L 423.277756 175.452632
L 422.043287 175.452632
L 420.808818 175.452632
L 419.574349 175.452632
L 418.33988 175.452632
L 417.105411 175.452632
L 415.870942 175.452632
L 414.636473 175.452632
L 413.402004 175.452632
L 412.167535 175.452632
L 410.933066 175.452632
L 409.698597 175.452632
L 408.464128 175.452632
L 407.229659 175.452632
L 405.99519 175.452632
L 404.760721 175.452632
L 403.526253 175.452632
L 402.291784 175.452632
L 401.057315 175.452632
L 399.822846 175.452632
L 398.588377 175.452632
L 397.353908 175.452632
L 396.119439 175.452632
L 394.88497 175.452632
L 393.650501 175.452632
L 392.416032 175.452632
L 391.181563 175.452632
L 389.947094 175.452632
L 388.712625 175.452632
L 387.478156 175.452632
L 386.243687 175.452632
L 385.009218 175.452632
L 383.774749 175.452632
L 382.540281 175.452632
L 381.305812 175.452632
L 380.071343 175.452632
L 378.836874 175.452632
L 377.602405 175.452632
L 376.367936 175.452632
L 375.133467 175.452632
L 373.898998 175.452632
L 372.664529 175.452632
L 371.43006 175.452632
L 370.195591 175.452632
L 368.961122 175.452632
L 367.726653 175.452632
L 366.492184 175.452632
L 365.257715 175.452632
L 364.023246 175.452632
L 362.788778 175.452632
L 361.554309 175.452632
L 360.31984 175.452632
L 359.085371 175.452632
L 357.850902 175.452632
L 356.616433 175.452632
L 355.381964 175.452632
L 354.147495 175.452632
L 352.913026 175.452632
L 351.678557 175.452632
L 350.444088 175.452632
L 349.209619 175.452632
L 347.97515 175.452632
L 346.740681 175.452632
L 345.506212 175.452632
L 344.271743 175.452632
L 343.037275 175.452632
L 341.802806 175.452632
L 340.568337 175.452632
L 339.333868 175.452632
L 338.099399 175.452632
L 336.86493 175.452632
L 335.630461 175.452632
L 334.395992 175.452632
L 333.161523 175.452632
L 331.927054 175.452632
L 330.692585 175.452632
L 329.458116 175.452632
L 328.223647 175.452632
L 326.989178 175.452632
L 325.754709 175.452632
L 324.52024 175.452632
L 323.285772 175.452632
L 322.051303 175.452632
L 320.816834 175.452632
L 319.582365 175.452632
L 318.347896 175.452632
L 317.113427 175.452632
L 315.878958 175.452632
L 314.644489 175.452632
L 313.41002 175.452632
L 312.175551 175.452632
L 310.941082 175.452632
L 309.706613 175.452632
L 308.472144 175.452632
L 307.237675 175.452632
L 306.003206 175.452632
L 304.768737 175.452632
L 303.534269 175.452632
L 302.2998 175.452632
L 301.065331 175.452632
L 299.830862 175.452632
L 298.596393 175.452632
L 297.361924 175.452632
L 296.127455 175.452632
L 294.892986 175.452632
L 293.658517 175.452632
L 292.424048 175.452632
L 291.189579 175.452632
L 289.95511 175.452632
L 288.720641 175.452632
L 287.486172 175.452632
L 286.251703 175.452632
L 285.017234 175.452632
L 283.782766 175.452632
L 282.548297 175.452632
L 281.313828 175.452632
L 280.079359 175.452632
L 278.84489 175.452632
L 277.610421 175.452632
L 276.375952 175.452632
L 275.141483 175.452632
L 273.907014 175.452632
L 272.672545 175.452632
L 271.438076 175.452632
L 270.203607 175.452632
L 268.969138 175.452632
L 267.734669 175.452632
L 266.5002 175.452632
L 265.265731 175.452632
L 264.031263 175.452632
L 262.796794 175.452632
L 261.562325 175.452632
L 260.327856 175.452632
L 259.093387 175.452632
L 257.858918 175.452632
L 256.624449 175.452632
L 255.38998 175.452632
L 254.155511 175.452632
L 252.921042 175.452632
L 251.686573 175.452632
L 250.452104 175.452632
L 249.217635 175.452632
L 247.983166 175.452632
L 246.748697 175.452632
L 245.514228 175.452632
L 244.27976 175.452632
L 243.045291 175.452632
L 241.810822 175.452632
L 240.576353 175.452632
L 239.341884 175.452632
L 238.107415 175.452632
L 236.872946 175.452632
L 235.638477 175.452632
L 234.404008 175.452632
L 233.169539 175.452632
L 231.93507 175.452632
L 230.700601 175.452632
L 229.466132 175.452632
L 228.231663 175.452632
L 226.997194 175.452632
L 225.762725 175.452632
L 224.528257 175.452632
L 223.293788 175.452632
L 222.059319 175.452632
L 220.82485 175.452632
L 219.590381 175.452632
L 218.355912 175.452632
L 217.121443 175.452632
L 215.886974 175.452632
L 214.652505 175.452632
L 213.418036 175.452632
L 212.183567 175.452632
L 210.949098 175.452632
L 209.714629 175.452632
L 208.48016 175.452632
L 207.245691 175.452632
L 206.011222 175.452632
L 204.776754 175.452632
L 203.542285 175.452632
L 202.307816 175.452632
L 201.073347 175.452632
L 199.838878 175.452632
L 198.604409 175.452632
L 197.36994 175.452632
L 196.135471 175.452632
L 194.901002 175.452632
L 193.666533 175.452632
L 192.432064 175.452632
L 191.197595 175.452632
L 189.963126 175.452632
L 188.728657 175.452632
L 187.494188 175.452632
L 186.259719 175.452632
L 185.025251 175.452632
L 183.790782 175.452632
L 182.556313 175.452632
L 181.321844 175.452632
L 180.087375 175.452632
L 178.852906 175.452632
L 177.618437 175.452632
L 176.383968 175.452632
L 175.149499 175.452632
L 173.91503 175.452632
L 172.680561 175.452632
L 171.446092 175.452632
L 170.211623 175.452632
L 168.977154 175.452632
L 167.742685 175.452632
L 166.508216 175.452632
L 165.273747 175.452632
L 164.039279 175.452632
L 162.80481 175.452632
L 161.570341 175.452632
L 160.335872 175.452632
L 159.101403 175.452632
L 157.866934 175.452632
L 156.632465 175.452632
L 155.397996 175.452632
L 154.163527 175.452632
L 152.929058 175.452632
L 151.694589 175.452632
L 150.46012 175.452632
L 149.225651 175.452632
L 147.991182 175.452632
L 146.756713 175.452632
L 145.522244 175.452632
L 144.287776 175.452632
L 143.053307 175.452632
L 141.818838 175.452632
L 140.584369 175.452632
L 139.3499 175.452632
L 138.115431 175.452632
L 136.880962 175.452632
L 135.646493 175.452632
L 134.412024 175.452632
L 133.177555 175.452632
L 131.943086 175.452632
L 130.708617 175.452632
L 129.474148 175.452632
L 128.239679 175.452632
L 127.00521 175.452632
L 125.770741 175.452632
L 124.536273 175.452632
L 123.301804 175.452632
L 122.067335 175.452632
L 120.832866 175.452632
L 119.598397 175.452632
L 118.363928 175.452632
L 117.129459 175.452632
L 115.89499 175.452632
L 114.660521 175.452632
L 113.426052 175.452632
L 112.191583 175.452632
L 110.957114 175.452632
L 109.722645 175.452632
L 108.488176 175.452632
L 107.253707 175.452632
L 106.019238 175.452632
L 104.78477 175.452632
L 103.550301 175.452632
L 102.315832 175.452632
L 101.081363 175.452632
L 99.846894 175.452632
L 98.612425 175.452632
L 97.377956 175.452632
L 96.143487 175.452632
L 94.909018 175.452632
L 93.674549 175.452632
L 92.44008 175.452632
L 91.205611 175.452632
L 89.971142 175.452632
L 88.736673 175.452632
L 87.502204 175.452632
L 86.267735 175.452632
L 85.033267 175.452632
L 83.798798 175.452632
L 82.564329 175.452632
L 81.32986 175.452632
L 80.095391 175.452632
L 78.860922 175.452632
L 77.626453 175.452632
L 76.391984 175.452632
L 75.157515 175.452632
L 73.923046 175.452632
L 72.688577 175.452632
L 71.454108 175.452632
L 70.219639 175.452632
L 68.98517 175.452632
L 67.750701 175.452632
L 66.516232 175.452632
L 65.281764 175.452632
L 64.047295 175.452632
L 62.812826 175.452632
L 61.578357 175.452632
L 60.343888 175.452632
L 59.109419 175.452632
L 57.87495 175.452632
L 56.640481 175.452632
L 55.406012 175.452632
L 54.171543 175.452632
L 52.937074 175.452632
L 51.702605 175.452632
L 50.468136 175.452632
L 49.233667 175.452632
L 47.999198 175.452632
L 46.764729 175.452632
L 45.530261 175.452632
L 44.295792 175.452632
L 43.061323 175.452632
L 41.826854 175.452632
L 40.592385 175.452632
L 39.357916 175.452632
L 38.123447 175.452632
L 36.888978 175.452632
L 35.654509 175.452632
L 34.42004 175.452632
L 33.185571 175.452632
L 31.951102 175.452632
L 30.716633 175.452632
L 29.482164 175.452632
L 28.247695 175.452632
L 27.013226 175.452632
L 25.778758 175.452632
L 24.544289 175.452632
L 23.30982 175.452632
L 22.075351 175.452632
L 20.840882 175.452632
L 19.606413 175.452632
L 18.371944 175.452632
L 17.137475 175.452632
L 15.903006 175.452632
L 14.668537 175.452632
L 13.434068 175.452632
L 12.199599 175.452632
L 10.96513 175.452632
L 9.730661 175.452632
L 8.496192 175.452632
L 7.261723 175.452632
L 6.027255 175.452632
L 4.792786 175.452632
L 3.558317 175.452632
L 2.323848 175.452632
L 1.089379 175.452632
L -0.14509 175.452632
L -1.379559 175.452632
L -2.614028 175.452632
L -3.848497 175.452632
L -5.082966 175.452632
L -6.317435 175.452632
L -7.551904 175.452632
L -8.786373 175.452632
L -10.020842 175.452632
L -11.255311 175.452632
L -12.48978 175.452632
L -13.724248 175.452632
L -14.958717 175.452632
L -16.193186 175.452632
L -17.427655 175.452632
L -18.662124 175.452632
L -19.896593 175.452632
L -21.131062 175.452632
L -22.365531 175.452632
L -23.6 175.452632
z
" clip-path="url(#pe8a10cce25)" style="fill: #50e3c2; fill-opacity: 0.15; stroke: #50e3c2; stroke-opacity: 0.15"/>
   </g>
   <g id="line2d_1">
    <path d="M -1 175.30033
L 17.137475 175.027786
L 29.482164 174.639641
L 39.357916 174.125204
L 47.999198 173.456616
L 55.406012 172.665181
L 61.578357 171.811132
L 67.750701 170.742935
L 73.923046 169.422244
L 78.860922 168.156586
L 83.798798 166.68183
L 88.736673 164.976514
L 93.674549 163.019778
L 98.612425 160.792069
L 103.550301 158.275928
L 108.488176 155.456851
L 113.426052 152.324196
L 118.363928 148.872108
L 123.301804 145.100432
L 128.239679 141.015564
L 133.177555 136.631202
L 138.115431 131.968955
L 144.287776 125.796792
L 150.46012 119.315006
L 160.335872 108.550739
L 172.680561 95.105287
L 178.852906 88.717001
L 183.790782 83.906735
L 188.728657 79.448574
L 192.432064 76.381696
L 196.135471 73.585704
L 199.838878 71.088703
L 203.542285 68.916262
L 207.245691 67.090974
L 209.714629 66.076626
L 212.183567 65.229988
L 214.652505 64.555088
L 217.121443 64.05515
L 219.590381 63.732572
L 222.059319 63.588904
L 224.528257 63.624838
L 226.997194 63.840202
L 229.466132 64.233957
L 231.93507 64.804215
L 234.404008 65.548242
L 236.872946 66.462492
L 239.341884 67.542624
L 243.045291 69.462511
L 246.748697 71.723841
L 250.452104 74.303186
L 254.155511 77.174256
L 257.858918 80.308348
L 262.796794 84.843104
L 267.734669 89.714425
L 273.907014 96.156733
L 282.548297 105.559875
L 296.127455 120.369115
L 302.2998 126.807398
L 308.472144 132.922321
L 313.41002 137.531114
L 318.347896 141.857046
L 323.285772 145.880128
L 328.223647 149.588177
L 333.161523 152.976171
L 338.099399 156.045476
L 343.037275 158.802977
L 347.97515 161.260164
L 352.913026 163.432202
L 357.850902 165.337037
L 362.788778 166.994544
L 367.726653 168.425755
L 372.664529 169.652179
L 378.836874 170.929784
L 385.009218 171.961216
L 391.181563 172.784355
L 398.588377 173.545633
L 407.229659 174.187253
L 417.105411 174.679633
L 429.4501 175.04998
L 445.498196 175.290215
L 471.422044 175.420166
L 540.552305 175.452445
L 569.8 175.452617
L 569.8 175.452617
" clip-path="url(#pe8a10cce25)" style="fill: none; stroke: #4a90e2; stroke-opacity: 0.9; stroke-width: 6; stroke-linecap: square"/>
   </g>
   <g id="line2d_2">
    <path d="M -1 175.452624
L 97.377956 175.348371
L 113.426052 175.112358
L 124.536273 174.727376
L 133.177555 174.191222
L 139.3499 173.614528
L 145.522244 172.815871
L 150.46012 171.973059
L 155.397996 170.906722
L 160.335872 169.572931
L 164.039279 168.368371
L 167.742685 166.965104
L 171.446092 165.341142
L 175.149499 163.474299
L 178.852906 161.342701
L 182.556313 158.925378
L 186.259719 156.20294
L 189.963126 153.158314
L 193.666533 149.777548
L 197.36994 146.050634
L 201.073347 141.972349
L 204.776754 137.543077
L 208.48016 132.769573
L 212.183567 127.665641
L 215.886974 122.252694
L 220.82485 114.606768
L 225.762725 106.557168
L 233.169539 93.99078
L 244.27976 75.059395
L 249.217635 67.071852
L 252.921042 61.420659
L 256.624449 56.150474
L 260.327856 51.339639
L 262.796794 48.424298
L 265.265731 45.766403
L 267.734669 43.384805
L 270.203607 41.29663
L 272.672545 39.517068
L 275.141483 38.059196
L 277.610421 36.933812
L 280.079359 36.149304
L 282.548297 35.711548
L 285.017234 35.623832
L 287.486172 35.886815
L 289.95511 36.498521
L 292.424048 37.454361
L 294.892986 38.747191
L 297.361924 40.367403
L 299.830862 42.303042
L 302.2998 44.539953
L 304.768737 47.061953
L 307.237675 49.851027
L 309.706613 52.887542
L 313.41002 57.859958
L 317.113427 63.266018
L 320.816834 69.026298
L 325.754709 77.116936
L 333.161523 89.743194
L 343.037275 106.557168
L 347.97515 114.606768
L 352.913026 122.252694
L 357.850902 129.402505
L 361.554309 134.398289
L 365.257715 139.058222
L 368.961122 143.370919
L 372.664529 147.331829
L 376.367936 150.942527
L 380.071343 154.209923
L 383.774749 157.145431
L 387.478156 159.764137
L 391.181563 162.083971
L 394.88497 164.12493
L 398.588377 165.908355
L 402.291784 167.456287
L 405.99519 168.790897
L 409.698597 169.934013
L 414.636473 171.19659
L 419.574349 172.203099
L 424.512224 172.996364
L 430.684569 173.745715
L 438.091383 174.372335
L 446.732665 174.836941
L 457.842886 175.167008
L 472.656513 175.357856
L 499.81483 175.442713
L 569.8 175.452624
L 569.8 175.452624
" clip-path="url(#pe8a10cce25)" style="fill: none; stroke: #e94e77; stroke-opacity: 0.9; stroke-width: 6; stroke-linecap: square"/>
   </g>
   <g id="line2d_3">
    <path d="M -1 175.452617
L 115.89499 175.348231
L 136.880962 175.10092
L 150.46012 174.727129
L 160.335872 174.261181
L 168.977154 173.651993
L 176.383968 172.927096
L 183.790782 171.961216
L 189.963126 170.929784
L 196.135471 169.652179
L 201.073347 168.425755
L 206.011222 166.994544
L 210.949098 165.337037
L 215.886974 163.432202
L 220.82485 161.260164
L 225.762725 158.802977
L 230.700601 156.045476
L 235.638477 152.976171
L 240.576353 149.588177
L 245.514228 145.880128
L 250.452104 141.857046
L 255.38998 137.531114
L 260.327856 132.922321
L 266.5002 126.807398
L 272.672545 120.369115
L 281.313828 110.995622
L 296.127455 94.843491
L 302.2998 88.469331
L 307.237675 83.67482
L 312.175551 79.236283
L 315.878958 76.186546
L 319.582365 73.409638
L 323.285772 70.93351
L 326.989178 68.783544
L 330.692585 66.982123
L 333.161523 65.984342
L 335.630461 65.15471
L 338.099399 64.497174
L 340.568337 64.014879
L 343.037275 63.710136
L 345.506212 63.584412
L 347.97515 63.638311
L 350.444088 63.871574
L 352.913026 64.283079
L 355.381964 64.87085
L 357.850902 65.632073
L 360.31984 66.563118
L 362.788778 67.659571
L 366.492184 69.602887
L 370.195591 71.88618
L 373.898998 74.48582
L 377.602405 77.375342
L 381.305812 80.525898
L 386.243687 85.079326
L 391.181563 89.965417
L 397.353908 96.420612
L 405.99519 105.831618
L 419.574349 120.631736
L 425.746693 127.058763
L 431.919038 133.159076
L 436.856914 137.754328
L 441.79479 142.065525
L 446.732665 146.073082
L 451.670541 149.765191
L 456.608417 153.137168
L 461.546293 156.190678
L 466.484168 158.932856
L 471.422044 161.375399
L 476.35992 163.533631
L 481.297796 165.425615
L 486.235671 167.071301
L 491.173547 168.491761
L 496.111423 169.708511
L 502.283768 170.975507
L 508.456112 171.997899
L 514.628457 172.813449
L 522.035271 173.567335
L 530.676553 174.202356
L 540.552305 174.68935
L 552.896994 175.055361
L 569.8 175.30033
L 569.8 175.30033
" clip-path="url(#pe8a10cce25)" style="fill: none; stroke: #50e3c2; stroke-opacity: 0.9; stroke-width: 6; stroke-linecap: square"/>
   </g>
   <g id="text_1">
    <!-- ModernGraph -->
    <g style="fill: #2d3436" transform="translate(127.125 238.887237) scale(0.48 -0.48)">
     <defs>
      <path id="Inter-Regular-4d" d="M 563 0
L 563 4656
L 1406 4656
L 2553 1719
Q 2594 1616 2645 1461
Q 2697 1306 2755 1125
Q 2813 944 2866 764
Q 2919 584 2959 431
L 2828 431
Q 2872 575 2925 751
Q 2978 928 3036 1111
Q 3094 1294 3147 1453
Q 3200 1613 3241 1719
L 4372 4656
L 5219 4656
L 5219 0
L 4634 0
L 4634 2659
Q 4634 2803 4636 2987
Q 4638 3172 4642 3375
Q 4647 3578 4651 3787
Q 4656 3997 4659 4194
L 4709 4194
Q 4644 3978 4570 3754
Q 4497 3531 4426 3323
Q 4356 3116 4293 2944
Q 4231 2772 4188 2659
L 3147 0
L 2631 0
L 1575 2659
Q 1531 2769 1472 2936
Q 1413 3103 1342 3308
Q 1272 3513 1197 3739
Q 1122 3966 1044 4194
L 1100 4194
Q 1106 4019 1111 3816
Q 1116 3613 1119 3405
Q 1122 3197 1125 3005
Q 1128 2813 1128 2659
L 1128 0
L 563 0
z
" transform="scale(0.015625)"/>
      <path id="Inter-Regular-6f" d="M 1916 -75
Q 1441 -75 1083 150
Q 725 375 525 781
Q 325 1188 325 1725
Q 325 2272 525 2680
Q 725 3088 1083 3313
Q 1441 3538 1916 3538
Q 2394 3538 2753 3313
Q 3113 3088 3313 2680
Q 3513 2272 3513 1725
Q 3513 1188 3313 781
Q 3113 375 2753 150
Q 2394 -75 1916 -75
z
M 1916 428
Q 2269 428 2497 609
Q 2725 791 2834 1086
Q 2944 1381 2944 1725
Q 2944 2072 2834 2370
Q 2725 2669 2497 2851
Q 2269 3034 1916 3034
Q 1566 3034 1341 2851
Q 1116 2669 1006 2372
Q 897 2075 897 1725
Q 897 1381 1006 1086
Q 1116 791 1341 609
Q 1566 428 1916 428
z
" transform="scale(0.015625)"/>
      <path id="Inter-Regular-64" d="M 1803 -75
Q 1369 -75 1034 147
Q 700 369 512 775
Q 325 1181 325 1738
Q 325 2291 514 2695
Q 703 3100 1037 3319
Q 1372 3538 1806 3538
Q 2147 3538 2347 3425
Q 2547 3313 2655 3170
Q 2763 3028 2819 2934
L 2863 2934
L 2863 4656
L 3425 4656
L 3425 0
L 2881 0
L 2881 541
L 2819 541
Q 2763 444 2652 298
Q 2541 153 2339 39
Q 2138 -75 1803 -75
z
M 1888 428
Q 2206 428 2425 595
Q 2644 763 2756 1059
Q 2869 1356 2869 1744
Q 2869 2131 2758 2420
Q 2647 2709 2428 2871
Q 2209 3034 1888 3034
Q 1556 3034 1336 2862
Q 1116 2691 1006 2398
Q 897 2106 897 1744
Q 897 1378 1008 1079
Q 1119 781 1341 604
Q 1563 428 1888 428
z
" transform="scale(0.015625)"/>
      <path id="Inter-Regular-65" d="M 1963 -75
Q 1456 -75 1089 150
Q 722 375 523 778
Q 325 1181 325 1719
Q 325 2256 519 2665
Q 713 3075 1067 3306
Q 1422 3538 1897 3538
Q 2175 3538 2445 3445
Q 2716 3353 2936 3148
Q 3156 2944 3287 2609
Q 3419 2275 3419 1791
L 3419 1556
L 706 1556
L 706 2031
L 3116 2031
L 2853 1856
Q 2853 2200 2745 2467
Q 2638 2734 2425 2886
Q 2213 3038 1897 3038
Q 1581 3038 1356 2883
Q 1131 2728 1012 2479
Q 894 2231 894 1947
L 894 1631
Q 894 1244 1028 973
Q 1163 703 1405 564
Q 1647 425 1966 425
Q 2172 425 2340 484
Q 2509 544 2631 664
Q 2753 784 2819 963
L 3363 813
Q 3281 550 3087 350
Q 2894 150 2608 37
Q 2322 -75 1963 -75
z
" transform="scale(0.015625)"/>
      <path id="Inter-Regular-72" d="M 494 0
L 494 3494
L 1038 3494
L 1038 2956
L 1075 2956
Q 1172 3222 1420 3383
Q 1669 3544 1981 3544
Q 2044 3544 2130 3541
Q 2216 3538 2266 3534
L 2266 2969
Q 2241 2975 2141 2987
Q 2041 3000 1928 3000
Q 1678 3000 1479 2895
Q 1281 2791 1168 2608
Q 1056 2425 1056 2188
L 1056 0
L 494 0
z
" transform="scale(0.015625)"/>
      <path id="Inter-Regular-6e" d="M 1056 2094
L 1056 0
L 494 0
L 494 3494
L 1034 3494
L 1038 2647
L 959 2647
Q 1119 3131 1414 3334
Q 1709 3538 2106 3538
Q 2459 3538 2725 3392
Q 2991 3247 3139 2955
Q 3288 2663 3288 2219
L 3288 0
L 2725 0
L 2725 2172
Q 2725 2575 2514 2803
Q 2303 3031 1938 3031
Q 1688 3031 1488 2922
Q 1288 2813 1172 2603
Q 1056 2394 1056 2094
z
" transform="scale(0.015625)"/>
      <path id="Inter-Regular-47" d="M 2466 -63
Q 1844 -63 1375 228
Q 906 519 643 1055
Q 381 1591 381 2325
Q 381 3066 643 3602
Q 906 4138 1368 4428
Q 1831 4719 2428 4719
Q 2797 4719 3117 4609
Q 3438 4500 3691 4297
Q 3944 4094 4111 3814
Q 4278 3534 4341 3197
L 3728 3197
Q 3656 3422 3537 3600
Q 3419 3778 3255 3906
Q 3091 4034 2884 4101
Q 2678 4169 2431 4169
Q 2022 4169 1687 3958
Q 1353 3747 1156 3336
Q 959 2925 959 2325
Q 959 1731 1157 1322
Q 1356 913 1697 700
Q 2038 488 2466 488
Q 2859 488 3159 655
Q 3459 822 3626 1130
Q 3794 1438 3794 1856
L 3972 1822
L 2588 1822
L 2588 2341
L 4375 2341
L 4375 1831
Q 4375 1253 4128 828
Q 3881 403 3451 170
Q 3022 -63 2466 -63
z
" transform="scale(0.015625)"/>
      <path id="Inter-Regular-61" d="M 1472 -81
Q 1141 -81 870 44
Q 600 169 440 409
Q 281 650 281 994
Q 281 1294 400 1481
Q 519 1669 717 1776
Q 916 1884 1156 1937
Q 1397 1991 1641 2022
Q 1953 2063 2150 2084
Q 2347 2106 2442 2159
Q 2538 2213 2538 2341
L 2538 2359
Q 2538 2578 2456 2729
Q 2375 2881 2212 2962
Q 2050 3044 1806 3044
Q 1556 3044 1378 2966
Q 1200 2888 1089 2770
Q 978 2653 922 2531
L 381 2709
Q 516 3028 744 3208
Q 972 3388 1247 3463
Q 1522 3538 1791 3538
Q 1966 3538 2189 3495
Q 2413 3453 2620 3328
Q 2828 3203 2964 2958
Q 3100 2713 3100 2303
L 3100 0
L 2547 0
L 2547 475
L 2509 475
Q 2450 353 2319 223
Q 2188 94 1978 6
Q 1769 -81 1472 -81
z
M 1569 416
Q 1881 416 2097 537
Q 2313 659 2425 854
Q 2538 1050 2538 1263
L 2538 1747
Q 2503 1706 2387 1673
Q 2272 1641 2123 1616
Q 1975 1591 1836 1573
Q 1697 1556 1616 1547
Q 1413 1522 1236 1461
Q 1059 1400 953 1283
Q 847 1166 847 966
Q 847 784 940 662
Q 1034 541 1196 478
Q 1359 416 1569 416
z
" transform="scale(0.015625)"/>
      <path id="Inter-Regular-70" d="M 494 -1306
L 494 3494
L 1038 3494
L 1038 2934
L 1100 2934
Q 1159 3028 1265 3170
Q 1372 3313 1572 3425
Q 1772 3538 2113 3538
Q 2550 3538 2883 3319
Q 3216 3100 3405 2695
Q 3594 2291 3594 1738
Q 3594 1181 3406 775
Q 3219 369 2886 147
Q 2553 -75 2116 -75
Q 1784 -75 1581 39
Q 1378 153 1268 298
Q 1159 444 1100 541
L 1056 541
L 1056 -1306
L 494 -1306
z
M 2031 428
Q 2359 428 2579 604
Q 2800 781 2911 1079
Q 3022 1378 3022 1744
Q 3022 2106 2912 2398
Q 2803 2691 2583 2862
Q 2363 3034 2031 3034
Q 1709 3034 1490 2871
Q 1272 2709 1161 2420
Q 1050 2131 1050 1744
Q 1050 1356 1162 1059
Q 1275 763 1495 595
Q 1716 428 2031 428
z
" transform="scale(0.015625)"/>
      <path id="Inter-Regular-68" d="M 1056 2094
L 1056 0
L 494 0
L 494 4656
L 1056 4656
L 1056 2647
L 959 2647
Q 1119 3131 1414 3334
Q 1709 3538 2106 3538
Q 2459 3538 2726 3392
Q 2994 3247 3142 2955
Q 3291 2663 3291 2219
L 3291 0
L 2725 0
L 2725 2172
Q 2725 2575 2514 2803
Q 2303 3031 1938 3031
Q 1688 3031 1488 2922
Q 1288 2813 1172 2603
Q 1056 2394 1056 2094
z
" transform="scale(0.015625)"/>
     </defs>
     <use xlink:href="#Inter-Regular-4d"/>
     <use xlink:href="#Inter-Regular-6f" transform="translate(90.332031 0)"/>
     <use xlink:href="#Inter-Regular-64" transform="translate(150.292969 0)"/>
     <use xlink:href="#Inter-Regular-65" transform="translate(211.523438 0)"/>
     <use xlink:href="#Inter-Regular-72" transform="translate(269.824219 0)"/>
     <use xlink:href="#Inter-Regular-6e" transform="translate(307.470703 0)"/>
     <use xlink:href="#Inter-Regular-47" transform="translate(366.552734 0)"/>
     <use xlink:href="#Inter-Regular-72" transform="translate(441.162109 0)"/>
     <use xlink:href="#Inter-Regular-61" transform="translate(478.808594 0)"/>
     <use xlink:href="#Inter-Regular-70" transform="translate(534.960938 0)"/>
     <use xlink:href="#Inter-Regular-68" transform="translate(596.191406 0)"/>
    </g>
   </g>
  </g>
 </g>
 <defs>
  <clipPath id="pe8a10cce25">
   <rect x="7.2" y="7.2" width="554.4" height="266.4"/>
  </clipPath>
 </defs>
</svg>
