<?xml version="1.0" encoding="utf-8" standalone="no"?>
<!DOCTYPE svg PUBLIC "-//W3C//DTD SVG 1.1//EN"
  "http://www.w3.org/Graphics/SVG/1.1/DTD/svg11.dtd">
<svg xmlns:xlink="http://www.w3.org/1999/xlink" width="564.48pt" height="276.48pt" viewBox="0 0 564.48 276.48" xmlns="http://www.w3.org/2000/svg" version="1.1">
 <metadata>
  <rdf:RDF xmlns:dc="http://purl.org/dc/elements/1.1/" xmlns:cc="http://creativecommons.org/ns#" xmlns:rdf="http://www.w3.org/1999/02/22-rdf-syntax-ns#">
   <cc:Work>
    <dc:type rdf:resource="http://purl.org/dc/dcmitype/StillImage"/>
    <dc:date>2026-04-30T19:11:14.914649</dc:date>
    <dc:format>image/svg+xml</dc:format>
    <dc:creator>
     <cc:Agent>
      <dc:title>Matplotlib v3.10.9, https://matplotlib.org/</dc:title>
     </cc:Agent>
    </dc:creator>
   </cc:Work>
  </rdf:RDF>
 </metadata>
 <defs>
  <style type="text/css">*{stroke-linejoin: round; stroke-linecap: butt}</style>
 </defs>
 <g id="figure_1">
  <g id="patch_1">
   <path d="M 0 276.48 
L 564.48 276.48 
L 564.48 0 
L 0 0 
L 0 276.48 
z
" style="fill: none"/>
  </g>
  <g id="axes_1">
   <g id="FillBetweenPolyCollection_1">
    <path d="M -23.36 172.724211 
L -23.36 172.68729 
L -22.13515 172.684217 
L -20.910301 172.680905 
L -19.685451 172.677338 
L -18.460601 172.673497 
L -17.235752 172.669364 
L -16.010902 172.664917 
L -14.786052 172.660136 
L -13.561202 172.654997 
L -12.336353 172.649476 
L -11.111503 172.643547 
L -9.886653 172.637183 
L -8.661804 172.630354 
L -7.436954 172.62303 
L -6.212104 172.615178 
L -4.987255 172.606764 
L -3.762405 172.597751 
L -2.537555 172.588102 
L -1.312705 172.577775 
L -0.087856 172.566728 
L 1.136994 172.554915 
L 2.361844 172.542289 
L 3.586693 172.528801 
L 4.811543 172.514396 
L 6.036393 172.49902 
L 7.261242 172.482615 
L 8.486092 172.465118 
L 9.710942 172.446465 
L 10.935792 172.42659 
L 12.160641 172.40542 
L 13.385491 172.382881 
L 14.610341 172.358896 
L 15.83519 172.333382 
L 17.06004 172.306254 
L 18.28489 172.277423 
L 19.509739 172.246795 
L 20.734589 172.214271 
L 21.959439 172.179751 
L 23.184289 172.143128 
L 24.409138 172.10429 
L 25.633988 172.063121 
L 26.858838 172.019502 
L 28.083687 171.973306 
L 29.308537 171.924404 
L 30.533387 171.872659 
L 31.758236 171.81793 
L 32.983086 171.76007 
L 34.207936 171.698929 
L 35.432786 171.634348 
L 36.657635 171.566165 
L 37.882485 171.49421 
L 39.107335 171.418309 
L 40.332184 171.33828 
L 41.557034 171.253938 
L 42.781884 171.16509 
L 44.006733 171.071536 
L 45.231583 170.973072 
L 46.456433 170.869487 
L 47.681283 170.760563 
L 48.906132 170.646077 
L 50.130982 170.525799 
L 51.355832 170.399493 
L 52.580681 170.266918 
L 53.805531 170.127826 
L 55.030381 169.981961 
L 56.25523 169.829065 
L 57.48008 169.668872 
L 58.70493 169.501109 
L 59.92978 169.3255 
L 61.154629 169.141762 
L 62.379479 168.949608 
L 63.604329 168.748743 
L 64.829178 168.53887 
L 66.054028 168.319688 
L 67.278878 168.090888 
L 68.503727 167.852159 
L 69.728577 167.603187 
L 70.953427 167.343654 
L 72.178277 167.073238 
L 73.403126 166.791613 
L 74.627976 166.498455 
L 75.852826 166.193433 
L 77.077675 165.876219 
L 78.302525 165.546479 
L 79.527375 165.203883 
L 80.752224 164.848098 
L 81.977074 164.478793 
L 83.201924 164.095638 
L 84.426774 163.698304 
L 85.651623 163.286464 
L 86.876473 162.859795 
L 88.101323 162.417976 
L 89.326172 161.960692 
L 90.551022 161.487632 
L 91.775872 160.998491 
L 93.000721 160.492971 
L 94.225571 159.970779 
L 95.450421 159.431633 
L 96.675271 158.875257 
L 97.90012 158.301387 
L 99.12497 157.709768 
L 100.34982 157.100157 
L 101.574669 156.472323 
L 102.799519 155.826049 
L 104.024369 155.161129 
L 105.249218 154.477374 
L 106.474068 153.774613 
L 107.698918 153.052686 
L 108.923768 152.311456 
L 110.148617 151.550801 
L 111.373467 150.77062 
L 112.598317 149.970831 
L 113.823166 149.151373 
L 115.048016 148.312209 
L 116.272866 147.453323 
L 117.497715 146.574723 
L 118.722565 145.67644 
L 119.947415 144.758534 
L 121.172265 143.821086 
L 122.397114 142.864209 
L 123.621964 141.888039 
L 124.846814 140.892744 
L 126.071663 139.878516 
L 127.296513 138.845582 
L 128.521363 137.794194 
L 129.746212 136.724639 
L 130.971062 135.637231 
L 132.195912 134.532317 
L 133.420762 133.410278 
L 134.645611 132.271523 
L 135.870461 131.116497 
L 137.095311 129.945675 
L 138.32016 128.759567 
L 139.54501 127.558714 
L 140.76986 126.343692 
L 141.994709 125.115107 
L 143.219559 123.873601 
L 144.444409 122.619846 
L 145.669259 121.354548 
L 146.894108 120.078444 
L 148.118958 118.792303 
L 149.343808 117.496925 
L 150.568657 116.193142 
L 151.793507 114.881814 
L 153.018357 113.563832 
L 154.243206 112.240114 
L 155.468056 110.911607 
L 156.692906 109.579285 
L 157.917756 108.244146 
L 159.142605 106.907214 
L 160.367455 105.569537 
L 161.592305 104.232186 
L 162.817154 102.896251 
L 164.042004 101.562842 
L 165.266854 100.233091 
L 166.491703 98.908141 
L 167.716553 97.589156 
L 168.941403 96.27731 
L 170.166253 94.973791 
L 171.391102 93.679796 
L 172.615952 92.396531 
L 173.840802 91.12521 
L 175.065651 89.867051 
L 176.290501 88.623275 
L 177.515351 87.395104 
L 178.7402 86.183759 
L 179.96505 84.990459 
L 181.1899 83.816418 
L 182.414749 82.662842 
L 183.639599 81.53093 
L 184.864449 80.421868 
L 186.089299 79.33683 
L 187.314148 78.276975 
L 188.538998 77.243446 
L 189.763848 76.237364 
L 190.988697 75.259831 
L 192.213547 74.311925 
L 193.438397 73.394699 
L 194.663246 72.509179 
L 195.888096 71.656363 
L 197.112946 70.837215 
L 198.337796 70.05267 
L 199.562645 69.303627 
L 200.787495 68.590948 
L 202.012345 67.915458 
L 203.237194 67.277942 
L 204.462044 66.679145 
L 205.686894 66.119769 
L 206.911743 65.600473 
L 208.136593 65.12187 
L 209.361443 64.684526 
L 210.586293 64.288961 
L 211.811142 63.935647 
L 213.035992 63.625005 
L 214.260842 63.357407 
L 215.485691 63.133175 
L 216.710541 62.952575 
L 217.935391 62.815827 
L 219.16024 62.723095 
L 220.38509 62.67449 
L 221.60994 62.67007 
L 222.83479 62.709841 
L 224.059639 62.793755 
L 225.284489 62.921712 
L 226.509339 63.093556 
L 227.734188 63.309082 
L 228.959038 63.568031 
L 230.183888 63.870092 
L 231.408737 64.214904 
L 232.633587 64.602055 
L 233.858437 65.031083 
L 235.083287 65.501478 
L 236.308136 66.012684 
L 237.532986 66.564095 
L 238.757836 67.155062 
L 239.982685 67.784892 
L 241.207535 68.452849 
L 242.432385 69.158155 
L 243.657234 69.899994 
L 244.882084 70.677509 
L 246.106934 71.489809 
L 247.331784 72.335968 
L 248.556633 73.215026 
L 249.781483 74.125992 
L 251.006333 75.067845 
L 252.231182 76.039538 
L 253.456032 77.039998 
L 254.680882 78.068127 
L 255.905731 79.122808 
L 257.130581 80.202901 
L 258.355431 81.307251 
L 259.580281 82.434688 
L 260.80513 83.584027 
L 262.02998 84.754071 
L 263.25483 85.943616 
L 264.479679 87.15145 
L 265.704529 88.376353 
L 266.929379 89.617106 
L 268.154228 90.872487 
L 269.379078 92.141273 
L 270.603928 93.422246 
L 271.828778 94.714191 
L 273.053627 96.015902 
L 274.278477 97.326178 
L 275.503327 98.64383 
L 276.728176 99.96768 
L 277.953026 101.296563 
L 279.177876 102.629331 
L 280.402725 103.96485 
L 281.627575 105.302006 
L 282.852425 106.639704 
L 284.077275 107.976869 
L 285.302124 109.31245 
L 286.526974 110.645416 
L 287.751824 111.974765 
L 288.976673 113.299517 
L 290.201523 114.618721 
L 291.426373 115.931452 
L 292.651222 117.236814 
L 293.876072 118.53394 
L 295.100922 119.821993 
L 296.325772 121.100167 
L 297.550621 122.367687 
L 298.775471 123.623808 
L 300.000321 124.867819 
L 301.22517 126.09904 
L 302.45002 127.316824 
L 303.67487 128.520558 
L 304.899719 129.709659 
L 306.124569 130.88358 
L 307.349419 132.041805 
L 308.574269 133.18385 
L 309.799118 134.309267 
L 311.023968 135.417637 
L 312.248818 136.508575 
L 313.473667 137.581727 
L 314.698517 138.636772 
L 315.923367 139.673418 
L 317.148216 140.691406 
L 318.373066 141.690505 
L 319.597916 142.670514 
L 320.822766 143.631261 
L 322.047615 144.572604 
L 323.272465 145.494426 
L 324.497315 146.396639 
L 325.722164 147.279179 
L 326.947014 148.14201 
L 328.171864 148.985118 
L 329.396713 149.808514 
L 330.621563 150.612233 
L 331.846413 151.39633 
L 333.071263 152.160883 
L 334.296112 152.905989 
L 335.520962 153.631765 
L 336.745812 154.338348 
L 337.970661 155.02589 
L 339.195511 155.694562 
L 340.420361 156.34455 
L 341.64521 156.976056 
L 342.87006 157.589293 
L 344.09491 158.184491 
L 345.31976 158.761891 
L 346.544609 159.321745 
L 347.769459 159.864315 
L 348.994309 160.389875 
L 350.219158 160.898707 
L 351.444008 161.3911 
L 352.668858 161.867352 
L 353.893707 162.327766 
L 355.118557 162.772653 
L 356.343407 163.202327 
L 357.568257 163.617107 
L 358.793106 164.017316 
L 360.017956 164.403281 
L 361.242806 164.775329 
L 362.467655 165.133792 
L 363.692505 165.478999 
L 364.917355 165.811283 
L 366.142204 166.130976 
L 367.367054 166.43841 
L 368.591904 166.733915 
L 369.816754 167.01782 
L 371.041603 167.290452 
L 372.266453 167.552136 
L 373.491303 167.803194 
L 374.716152 168.043946 
L 375.941002 168.274707 
L 377.165852 168.495788 
L 378.390701 168.707499 
L 379.615551 168.910141 
L 380.840401 169.104014 
L 382.065251 169.289412 
L 383.2901 169.466624 
L 384.51495 169.635934 
L 385.7398 169.797619 
L 386.964649 169.951953 
L 388.189499 170.099203 
L 389.414349 170.239629 
L 390.639198 170.373488 
L 391.864048 170.501028 
L 393.088898 170.622492 
L 394.313747 170.738118 
L 395.538597 170.848136 
L 396.763447 170.952771 
L 397.988297 171.052243 
L 399.213146 171.146762 
L 400.437996 171.236535 
L 401.662846 171.321763 
L 402.887695 171.402639 
L 404.112545 171.479351 
L 405.337395 171.552081 
L 406.562244 171.621005 
L 407.787094 171.686293 
L 409.011944 171.74811 
L 410.236794 171.806613 
L 411.461643 171.861956 
L 412.686493 171.914287 
L 413.911343 171.963747 
L 415.136192 172.010473 
L 416.361042 172.054597 
L 417.585892 172.096246 
L 418.810741 172.135541 
L 420.035591 172.172598 
L 421.260441 172.20753 
L 422.485291 172.240445 
L 423.71014 172.271444 
L 424.93499 172.300627 
L 426.15984 172.328089 
L 427.384689 172.353918 
L 428.609539 172.378203 
L 429.834389 172.401024 
L 431.059238 172.422462 
L 432.284088 172.44259 
L 433.508938 172.461482 
L 434.733788 172.479205 
L 435.958637 172.495823 
L 437.183487 172.511401 
L 438.408337 172.525995 
L 439.633186 172.539662 
L 440.858036 172.552457 
L 442.082886 172.564428 
L 443.307735 172.575625 
L 444.532585 172.586092 
L 445.757435 172.595874 
L 446.982285 172.60501 
L 448.207134 172.613541 
L 449.431984 172.621503 
L 450.656834 172.62893 
L 451.881683 172.635855 
L 453.106533 172.64231 
L 454.331383 172.648324 
L 455.556232 172.653925 
L 456.781082 172.659138 
L 458.005932 172.663989 
L 459.230782 172.6685 
L 460.455631 172.672695 
L 461.680481 172.676592 
L 462.905331 172.680213 
L 464.13018 172.683574 
L 465.35503 172.686694 
L 466.57988 172.689588 
L 467.804729 172.692272 
L 469.029579 172.694759 
L 470.254429 172.697064 
L 471.479279 172.699198 
L 472.704128 172.701174 
L 473.928978 172.703002 
L 475.153828 172.704693 
L 476.378677 172.706257 
L 477.603527 172.707702 
L 478.828377 172.709036 
L 480.053226 172.710268 
L 481.278076 172.711406 
L 482.502926 172.712455 
L 483.727776 172.713423 
L 484.952625 172.714315 
L 486.177475 172.715137 
L 487.402325 172.715894 
L 488.627174 172.716591 
L 489.852024 172.717232 
L 491.076874 172.717822 
L 492.301723 172.718364 
L 493.526573 172.718863 
L 494.751423 172.71932 
L 495.976273 172.719741 
L 497.201122 172.720127 
L 498.425972 172.720481 
L 499.650822 172.720806 
L 500.875671 172.721104 
L 502.100521 172.721377 
L 503.325371 172.721627 
L 504.55022 172.721855 
L 505.77507 172.722065 
L 506.99992 172.722256 
L 508.22477 172.722432 
L 509.449619 172.722592 
L 510.674469 172.722738 
L 511.899319 172.722872 
L 513.124168 172.722994 
L 514.349018 172.723105 
L 515.573868 172.723207 
L 516.798717 172.723299 
L 518.023567 172.723384 
L 519.248417 172.72346 
L 520.473267 172.72353 
L 521.698116 172.723594 
L 522.922966 172.723652 
L 524.147816 172.723705 
L 525.372665 172.723753 
L 526.597515 172.723796 
L 527.822365 172.723836 
L 529.047214 172.723872 
L 530.272064 172.723904 
L 531.496914 172.723934 
L 532.721764 172.723961 
L 533.946613 172.723985 
L 535.171463 172.724007 
L 536.396313 172.724027 
L 537.621162 172.724045 
L 538.846012 172.724061 
L 540.070862 172.724076 
L 541.295711 172.72409 
L 542.520561 172.724102 
L 543.745411 172.724113 
L 544.970261 172.724122 
L 546.19511 172.724131 
L 547.41996 172.724139 
L 548.64481 172.724147 
L 549.869659 172.724153 
L 551.094509 172.724159 
L 552.319359 172.724164 
L 553.544208 172.724169 
L 554.769058 172.724173 
L 555.993908 172.724177 
L 557.218758 172.724181 
L 558.443607 172.724184 
L 559.668457 172.724187 
L 560.893307 172.724189 
L 562.118156 172.724191 
L 563.343006 172.724193 
L 564.567856 172.724195 
L 565.792705 172.724197 
L 567.017555 172.724198 
L 568.242405 172.7242 
L 569.467255 172.724201 
L 570.692104 172.724202 
L 571.916954 172.724203 
L 573.141804 172.724204 
L 574.366653 172.724204 
L 575.591503 172.724205 
L 576.816353 172.724206 
L 578.041202 172.724206 
L 579.266052 172.724207 
L 580.490902 172.724207 
L 581.715752 172.724207 
L 582.940601 172.724208 
L 584.165451 172.724208 
L 585.390301 172.724208 
L 586.61515 172.724209 
L 587.84 172.724209 
L 587.84 172.724211 
L 587.84 172.724211 
L 586.61515 172.724211 
L 585.390301 172.724211 
L 584.165451 172.724211 
L 582.940601 172.724211 
L 581.715752 172.724211 
L 580.490902 172.724211 
L 579.266052 172.724211 
L 578.041202 172.724211 
L 576.816353 172.724211 
L 575.591503 172.724211 
L 574.366653 172.724211 
L 573.141804 172.724211 
L 571.916954 172.724211 
L 570.692104 172.724211 
L 569.467255 172.724211 
L 568.242405 172.724211 
L 567.017555 172.724211 
L 565.792705 172.724211 
L 564.567856 172.724211 
L 563.343006 172.724211 
L 562.118156 172.724211 
L 560.893307 172.724211 
L 559.668457 172.724211 
L 558.443607 172.724211 
L 557.218758 172.724211 
L 555.993908 172.724211 
L 554.769058 172.724211 
L 553.544208 172.724211 
L 552.319359 172.724211 
L 551.094509 172.724211 
L 549.869659 172.724211 
L 548.64481 172.724211 
L 547.41996 172.724211 
L 546.19511 172.724211 
L 544.970261 172.724211 
L 543.745411 172.724211 
L 542.520561 172.724211 
L 541.295711 172.724211 
L 540.070862 172.724211 
L 538.846012 172.724211 
L 537.621162 172.724211 
L 536.396313 172.724211 
L 535.171463 172.724211 
L 533.946613 172.724211 
L 532.721764 172.724211 
L 531.496914 172.724211 
L 530.272064 172.724211 
L 529.047214 172.724211 
L 527.822365 172.724211 
L 526.597515 172.724211 
L 525.372665 172.724211 
L 524.147816 172.724211 
L 522.922966 172.724211 
L 521.698116 172.724211 
L 520.473267 172.724211 
L 519.248417 172.724211 
L 518.023567 172.724211 
L 516.798717 172.724211 
L 515.573868 172.724211 
L 514.349018 172.724211 
L 513.124168 172.724211 
L 511.899319 172.724211 
L 510.674469 172.724211 
L 509.449619 172.724211 
L 508.22477 172.724211 
L 506.99992 172.724211 
L 505.77507 172.724211 
L 504.55022 172.724211 
L 503.325371 172.724211 
L 502.100521 172.724211 
L 500.875671 172.724211 
L 499.650822 172.724211 
L 498.425972 172.724211 
L 497.201122 172.724211 
L 495.976273 172.724211 
L 494.751423 172.724211 
L 493.526573 172.724211 
L 492.301723 172.724211 
L 491.076874 172.724211 
L 489.852024 172.724211 
L 488.627174 172.724211 
L 487.402325 172.724211 
L 486.177475 172.724211 
L 484.952625 172.724211 
L 483.727776 172.724211 
L 482.502926 172.724211 
L 481.278076 172.724211 
L 480.053226 172.724211 
L 478.828377 172.724211 
L 477.603527 172.724211 
L 476.378677 172.724211 
L 475.153828 172.724211 
L 473.928978 172.724211 
L 472.704128 172.724211 
L 471.479279 172.724211 
L 470.254429 172.724211 
L 469.029579 172.724211 
L 467.804729 172.724211 
L 466.57988 172.724211 
L 465.35503 172.724211 
L 464.13018 172.724211 
L 462.905331 172.724211 
L 461.680481 172.724211 
L 460.455631 172.724211 
L 459.230782 172.724211 
L 458.005932 172.724211 
L 456.781082 172.724211 
L 455.556232 172.724211 
L 454.331383 172.724211 
L 453.106533 172.724211 
L 451.881683 172.724211 
L 450.656834 172.724211 
L 449.431984 172.724211 
L 448.207134 172.724211 
L 446.982285 172.724211 
L 445.757435 172.724211 
L 444.532585 172.724211 
L 443.307735 172.724211 
L 442.082886 172.724211 
L 440.858036 172.724211 
L 439.633186 172.724211 
L 438.408337 172.724211 
L 437.183487 172.724211 
L 435.958637 172.724211 
L 434.733788 172.724211 
L 433.508938 172.724211 
L 432.284088 172.724211 
L 431.059238 172.724211 
L 429.834389 172.724211 
L 428.609539 172.724211 
L 427.384689 172.724211 
L 426.15984 172.724211 
L 424.93499 172.724211 
L 423.71014 172.724211 
L 422.485291 172.724211 
L 421.260441 172.724211 
L 420.035591 172.724211 
L 418.810741 172.724211 
L 417.585892 172.724211 
L 416.361042 172.724211 
L 415.136192 172.724211 
L 413.911343 172.724211 
L 412.686493 172.724211 
L 411.461643 172.724211 
L 410.236794 172.724211 
L 409.011944 172.724211 
L 407.787094 172.724211 
L 406.562244 172.724211 
L 405.337395 172.724211 
L 404.112545 172.724211 
L 402.887695 172.724211 
L 401.662846 172.724211 
L 400.437996 172.724211 
L 399.213146 172.724211 
L 397.988297 172.724211 
L 396.763447 172.724211 
L 395.538597 172.724211 
L 394.313747 172.724211 
L 393.088898 172.724211 
L 391.864048 172.724211 
L 390.639198 172.724211 
L 389.414349 172.724211 
L 388.189499 172.724211 
L 386.964649 172.724211 
L 385.7398 172.724211 
L 384.51495 172.724211 
L 383.2901 172.724211 
L 382.065251 172.724211 
L 380.840401 172.724211 
L 379.615551 172.724211 
L 378.390701 172.724211 
L 377.165852 172.724211 
L 375.941002 172.724211 
L 374.716152 172.724211 
L 373.491303 172.724211 
L 372.266453 172.724211 
L 371.041603 172.724211 
L 369.816754 172.724211 
L 368.591904 172.724211 
L 367.367054 172.724211 
L 366.142204 172.724211 
L 364.917355 172.724211 
L 363.692505 172.724211 
L 362.467655 172.724211 
L 361.242806 172.724211 
L 360.017956 172.724211 
L 358.793106 172.724211 
L 357.568257 172.724211 
L 356.343407 172.724211 
L 355.118557 172.724211 
L 353.893707 172.724211 
L 352.668858 172.724211 
L 351.444008 172.724211 
L 350.219158 172.724211 
L 348.994309 172.724211 
L 347.769459 172.724211 
L 346.544609 172.724211 
L 345.31976 172.724211 
L 344.09491 172.724211 
L 342.87006 172.724211 
L 341.64521 172.724211 
L 340.420361 172.724211 
L 339.195511 172.724211 
L 337.970661 172.724211 
L 336.745812 172.724211 
L 335.520962 172.724211 
L 334.296112 172.724211 
L 333.071263 172.724211 
L 331.846413 172.724211 
L 330.621563 172.724211 
L 329.396713 172.724211 
L 328.171864 172.724211 
L 326.947014 172.724211 
L 325.722164 172.724211 
L 324.497315 172.724211 
L 323.272465 172.724211 
L 322.047615 172.724211 
L 320.822766 172.724211 
L 319.597916 172.724211 
L 318.373066 172.724211 
L 317.148216 172.724211 
L 315.923367 172.724211 
L 314.698517 172.724211 
L 313.473667 172.724211 
L 312.248818 172.724211 
L 311.023968 172.724211 
L 309.799118 172.724211 
L 308.574269 172.724211 
L 307.349419 172.724211 
L 306.124569 172.724211 
L 304.899719 172.724211 
L 303.67487 172.724211 
L 302.45002 172.724211 
L 301.22517 172.724211 
L 300.000321 172.724211 
L 298.775471 172.724211 
L 297.550621 172.724211 
L 296.325772 172.724211 
L 295.100922 172.724211 
L 293.876072 172.724211 
L 292.651222 172.724211 
L 291.426373 172.724211 
L 290.201523 172.724211 
L 288.976673 172.724211 
L 287.751824 172.724211 
L 286.526974 172.724211 
L 285.302124 172.724211 
L 284.077275 172.724211 
L 282.852425 172.724211 
L 281.627575 172.724211 
L 280.402725 172.724211 
L 279.177876 172.724211 
L 277.953026 172.724211 
L 276.728176 172.724211 
L 275.503327 172.724211 
L 274.278477 172.724211 
L 273.053627 172.724211 
L 271.828778 172.724211 
L 270.603928 172.724211 
L 269.379078 172.724211 
L 268.154228 172.724211 
L 266.929379 172.724211 
L 265.704529 172.724211 
L 264.479679 172.724211 
L 263.25483 172.724211 
L 262.02998 172.724211 
L 260.80513 172.724211 
L 259.580281 172.724211 
L 258.355431 172.724211 
L 257.130581 172.724211 
L 255.905731 172.724211 
L 254.680882 172.724211 
L 253.456032 172.724211 
L 252.231182 172.724211 
L 251.006333 172.724211 
L 249.781483 172.724211 
L 248.556633 172.724211 
L 247.331784 172.724211 
L 246.106934 172.724211 
L 244.882084 172.724211 
L 243.657234 172.724211 
L 242.432385 172.724211 
L 241.207535 172.724211 
L 239.982685 172.724211 
L 238.757836 172.724211 
L 237.532986 172.724211 
L 236.308136 172.724211 
L 235.083287 172.724211 
L 233.858437 172.724211 
L 232.633587 172.724211 
L 231.408737 172.724211 
L 230.183888 172.724211 
L 228.959038 172.724211 
L 227.734188 172.724211 
L 226.509339 172.724211 
L 225.284489 172.724211 
L 224.059639 172.724211 
L 222.83479 172.724211 
L 221.60994 172.724211 
L 220.38509 172.724211 
L 219.16024 172.724211 
L 217.935391 172.724211 
L 216.710541 172.724211 
L 215.485691 172.724211 
L 214.260842 172.724211 
L 213.035992 172.724211 
L 211.811142 172.724211 
L 210.586293 172.724211 
L 209.361443 172.724211 
L 208.136593 172.724211 
L 206.911743 172.724211 
L 205.686894 172.724211 
L 204.462044 172.724211 
L 203.237194 172.724211 
L 202.012345 172.724211 
L 200.787495 172.724211 
L 199.562645 172.724211 
L 198.337796 172.724211 
L 197.112946 172.724211 
L 195.888096 172.724211 
L 194.663246 172.724211 
L 193.438397 172.724211 
L 192.213547 172.724211 
L 190.988697 172.724211 
L 189.763848 172.724211 
L 188.538998 172.724211 
L 187.314148 172.724211 
L 186.089299 172.724211 
L 184.864449 172.724211 
L 183.639599 172.724211 
L 182.414749 172.724211 
L 181.1899 172.724211 
L 179.96505 172.724211 
L 178.7402 172.724211 
L 177.515351 172.724211 
L 176.290501 172.724211 
L 175.065651 172.724211 
L 173.840802 172.724211 
L 172.615952 172.724211 
L 171.391102 172.724211 
L 170.166253 172.724211 
L 168.941403 172.724211 
L 167.716553 172.724211 
L 166.491703 172.724211 
L 165.266854 172.724211 
L 164.042004 172.724211 
L 162.817154 172.724211 
L 161.592305 172.724211 
L 160.367455 172.724211 
L 159.142605 172.724211 
L 157.917756 172.724211 
L 156.692906 172.724211 
L 155.468056 172.724211 
L 154.243206 172.724211 
L 153.018357 172.724211 
L 151.793507 172.724211 
L 150.568657 172.724211 
L 149.343808 172.724211 
L 148.118958 172.724211 
L 146.894108 172.724211 
L 145.669259 172.724211 
L 144.444409 172.724211 
L 143.219559 172.724211 
L 141.994709 172.724211 
L 140.76986 172.724211 
L 139.54501 172.724211 
L 138.32016 172.724211 
L 137.095311 172.724211 
L 135.870461 172.724211 
L 134.645611 172.724211 
L 133.420762 172.724211 
L 132.195912 172.724211 
L 130.971062 172.724211 
L 129.746212 172.724211 
L 128.521363 172.724211 
L 127.296513 172.724211 
L 126.071663 172.724211 
L 124.846814 172.724211 
L 123.621964 172.724211 
L 122.397114 172.724211 
L 121.172265 172.724211 
L 119.947415 172.724211 
L 118.722565 172.724211 
L 117.497715 172.724211 
L 116.272866 172.724211 
L 115.048016 172.724211 
L 113.823166 172.724211 
L 112.598317 172.724211 
L 111.373467 172.724211 
L 110.148617 172.724211 
L 108.923768 172.724211 
L 107.698918 172.724211 
L 106.474068 172.724211 
L 105.249218 172.724211 
L 104.024369 172.724211 
L 102.799519 172.724211 
L 101.574669 172.724211 
L 100.34982 172.724211 
L 99.12497 172.724211 
L 97.90012 172.724211 
L 96.675271 172.724211 
L 95.450421 172.724211 
L 94.225571 172.724211 
L 93.000721 172.724211 
L 91.775872 172.724211 
L 90.551022 172.724211 
L 89.326172 172.724211 
L 88.101323 172.724211 
L 86.876473 172.724211 
L 85.651623 172.724211 
L 84.426774 172.724211 
L 83.201924 172.724211 
L 81.977074 172.724211 
L 80.752224 172.724211 
L 79.527375 172.724211 
L 78.302525 172.724211 
L 77.077675 172.724211 
L 75.852826 172.724211 
L 74.627976 172.724211 
L 73.403126 172.724211 
L 72.178277 172.724211 
L 70.953427 172.724211 
L 69.728577 172.724211 
L 68.503727 172.724211 
L 67.278878 172.724211 
L 66.054028 172.724211 
L 64.829178 172.724211 
L 63.604329 172.724211 
L 62.379479 172.724211 
L 61.154629 172.724211 
L 59.92978 172.724211 
L 58.70493 172.724211 
L 57.48008 172.724211 
L 56.25523 172.724211 
L 55.030381 172.724211 
L 53.805531 172.724211 
L 52.580681 172.724211 
L 51.355832 172.724211 
L 50.130982 172.724211 
L 48.906132 172.724211 
L 47.681283 172.724211 
L 46.456433 172.724211 
L 45.231583 172.724211 
L 44.006733 172.724211 
L 42.781884 172.724211 
L 41.557034 172.724211 
L 40.332184 172.724211 
L 39.107335 172.724211 
L 37.882485 172.724211 
L 36.657635 172.724211 
L 35.432786 172.724211 
L 34.207936 172.724211 
L 32.983086 172.724211 
L 31.758236 172.724211 
L 30.533387 172.724211 
L 29.308537 172.724211 
L 28.083687 172.724211 
L 26.858838 172.724211 
L 25.633988 172.724211 
L 24.409138 172.724211 
L 23.184289 172.724211 
L 21.959439 172.724211 
L 20.734589 172.724211 
L 19.509739 172.724211 
L 18.28489 172.724211 
L 17.06004 172.724211 
L 15.83519 172.724211 
L 14.610341 172.724211 
L 13.385491 172.724211 
L 12.160641 172.724211 
L 10.935792 172.724211 
L 9.710942 172.724211 
L 8.486092 172.724211 
L 7.261242 172.724211 
L 6.036393 172.724211 
L 4.811543 172.724211 
L 3.586693 172.724211 
L 2.361844 172.724211 
L 1.136994 172.724211 
L -0.087856 172.724211 
L -1.312705 172.724211 
L -2.537555 172.724211 
L -3.762405 172.724211 
L -4.987255 172.724211 
L -6.212104 172.724211 
L -7.436954 172.724211 
L -8.661804 172.724211 
L -9.886653 172.724211 
L -11.111503 172.724211 
L -12.336353 172.724211 
L -13.561202 172.724211 
L -14.786052 172.724211 
L -16.010902 172.724211 
L -17.235752 172.724211 
L -18.460601 172.724211 
L -19.685451 172.724211 
L -20.910301 172.724211 
L -22.13515 172.724211 
L -23.36 172.724211 
z
" clip-path="url(#pb9f8c8616b)" style="fill: #4a90e2; fill-opacity: 0.15; stroke: #4a90e2; stroke-opacity: 0.15"/>
   </g>
   <g id="FillBetweenPolyCollection_2">
    <path d="M -23.36 172.724211 
L -23.36 172.72421 
L -22.13515 172.72421 
L -20.910301 172.72421 
L -19.685451 172.72421 
L -18.460601 172.72421 
L -17.235752 172.72421 
L -16.010902 172.724209 
L -14.786052 172.724209 
L -13.561202 172.724209 
L -12.336353 172.724209 
L -11.111503 172.724208 
L -9.886653 172.724208 
L -8.661804 172.724208 
L -7.436954 172.724207 
L -6.212104 172.724207 
L -4.987255 172.724206 
L -3.762405 172.724205 
L -2.537555 172.724205 
L -1.312705 172.724204 
L -0.087856 172.724203 
L 1.136994 172.724201 
L 2.361844 172.7242 
L 3.586693 172.724198 
L 4.811543 172.724196 
L 6.036393 172.724194 
L 7.261242 172.724192 
L 8.486092 172.724189 
L 9.710942 172.724186 
L 10.935792 172.724182 
L 12.160641 172.724178 
L 13.385491 172.724173 
L 14.610341 172.724168 
L 15.83519 172.724161 
L 17.06004 172.724154 
L 18.28489 172.724146 
L 19.509739 172.724137 
L 20.734589 172.724126 
L 21.959439 172.724114 
L 23.184289 172.7241 
L 24.409138 172.724084 
L 25.633988 172.724067 
L 26.858838 172.724046 
L 28.083687 172.724024 
L 29.308537 172.723998 
L 30.533387 172.723968 
L 31.758236 172.723935 
L 32.983086 172.723897 
L 34.207936 172.723855 
L 35.432786 172.723807 
L 36.657635 172.723753 
L 37.882485 172.723691 
L 39.107335 172.723622 
L 40.332184 172.723545 
L 41.557034 172.723457 
L 42.781884 172.723358 
L 44.006733 172.723247 
L 45.231583 172.723123 
L 46.456433 172.722983 
L 47.681283 172.722825 
L 48.906132 172.722649 
L 50.130982 172.722451 
L 51.355832 172.72223 
L 52.580681 172.721982 
L 53.805531 172.721704 
L 55.030381 172.721394 
L 56.25523 172.721047 
L 57.48008 172.72066 
L 58.70493 172.720228 
L 59.92978 172.719746 
L 61.154629 172.719209 
L 62.379479 172.718611 
L 63.604329 172.717945 
L 64.829178 172.717205 
L 66.054028 172.716382 
L 67.278878 172.715468 
L 68.503727 172.714453 
L 69.728577 172.713327 
L 70.953427 172.712079 
L 72.178277 172.710697 
L 73.403126 172.709166 
L 74.627976 172.707473 
L 75.852826 172.7056 
L 77.077675 172.703531 
L 78.302525 172.701246 
L 79.527375 172.698725 
L 80.752224 172.695945 
L 81.977074 172.692881 
L 83.201924 172.689507 
L 84.426774 172.685794 
L 85.651623 172.68171 
L 86.876473 172.677221 
L 88.101323 172.672291 
L 89.326172 172.666879 
L 90.551022 172.660943 
L 91.775872 172.654437 
L 93.000721 172.647309 
L 94.225571 172.639507 
L 95.450421 172.630971 
L 96.675271 172.62164 
L 97.90012 172.611446 
L 99.12497 172.600316 
L 100.34982 172.588174 
L 101.574669 172.574934 
L 102.799519 172.560509 
L 104.024369 172.544803 
L 105.249218 172.527714 
L 106.474068 172.509131 
L 107.698918 172.488939 
L 108.923768 172.467012 
L 110.148617 172.443219 
L 111.373467 172.417416 
L 112.598317 172.389455 
L 113.823166 172.359174 
L 115.048016 172.326404 
L 116.272866 172.290964 
L 117.497715 172.252663 
L 118.722565 172.211298 
L 119.947415 172.166654 
L 121.172265 172.118504 
L 122.397114 172.066609 
L 123.621964 172.010716 
L 124.846814 171.950558 
L 126.071663 171.885854 
L 127.296513 171.816308 
L 128.521363 171.741609 
L 129.746212 171.661432 
L 130.971062 171.575434 
L 132.195912 171.483256 
L 133.420762 171.384523 
L 134.645611 171.278841 
L 135.870461 171.165801 
L 137.095311 171.044974 
L 138.32016 170.915914 
L 139.54501 170.778157 
L 140.76986 170.631219 
L 141.994709 170.474598 
L 143.219559 170.307775 
L 144.444409 170.130208 
L 145.669259 169.94134 
L 146.894108 169.740594 
L 148.118958 169.527373 
L 149.343808 169.301063 
L 150.568657 169.061032 
L 151.793507 168.806629 
L 153.018357 168.537186 
L 154.243206 168.252019 
L 155.468056 167.950426 
L 156.692906 167.631691 
L 157.917756 167.295083 
L 159.142605 166.939856 
L 160.367455 166.565253 
L 161.592305 166.170505 
L 162.817154 165.754829 
L 164.042004 165.317439 
L 165.266854 164.857536 
L 166.491703 164.374319 
L 167.716553 163.866978 
L 168.941403 163.334706 
L 170.166253 162.776691 
L 171.391102 162.192125 
L 172.615952 161.580201 
L 173.840802 160.940122 
L 175.065651 160.271094 
L 176.290501 159.572339 
L 177.515351 158.84309 
L 178.7402 158.082595 
L 179.96505 157.290124 
L 181.1899 156.464967 
L 182.414749 155.606439 
L 183.639599 154.713884 
L 184.864449 153.786676 
L 186.089299 152.824225 
L 187.314148 151.825978 
L 188.538998 150.791423 
L 189.763848 149.720093 
L 190.988697 148.611568 
L 192.213547 147.46548 
L 193.438397 146.281516 
L 194.663246 145.059421 
L 195.888096 143.799002 
L 197.112946 142.500129 
L 198.337796 141.162742 
L 199.562645 139.786852 
L 200.787495 138.372544 
L 202.012345 136.91998 
L 203.237194 135.429406 
L 204.462044 133.901146 
L 205.686894 132.335614 
L 206.911743 130.733309 
L 208.136593 129.094825 
L 209.361443 127.420843 
L 210.586293 125.712144 
L 211.811142 123.969601 
L 213.035992 122.194188 
L 214.260842 120.386974 
L 215.485691 118.549131 
L 216.710541 116.68193 
L 217.935391 114.786741 
L 219.16024 112.865037 
L 220.38509 110.918387 
L 221.60994 108.948464 
L 222.83479 106.957037 
L 224.059639 104.945971 
L 225.284489 102.917228 
L 226.509339 100.872861 
L 227.734188 98.815017 
L 228.959038 96.745927 
L 230.183888 94.667909 
L 231.408737 92.583361 
L 232.633587 90.494761 
L 233.858437 88.404655 
L 235.083287 86.315663 
L 236.308136 84.230464 
L 237.532986 82.151798 
L 238.757836 80.082457 
L 239.982685 78.025281 
L 241.207535 75.983147 
L 242.432385 73.958972 
L 243.657234 71.955697 
L 244.882084 69.976284 
L 246.106934 68.023709 
L 247.331784 66.100957 
L 248.556633 64.21101 
L 249.781483 62.35684 
L 251.006333 60.541405 
L 252.231182 58.76764 
L 253.456032 57.038445 
L 254.680882 55.356683 
L 255.905731 53.725169 
L 257.130581 52.146663 
L 258.355431 50.623861 
L 259.580281 49.159389 
L 260.80513 47.755796 
L 262.02998 46.415543 
L 263.25483 45.141001 
L 264.479679 43.934441 
L 265.704529 42.798024 
L 266.929379 41.733804 
L 268.154228 40.743711 
L 269.379078 39.829554 
L 270.603928 38.993008 
L 271.828778 38.235615 
L 273.053627 37.558777 
L 274.278477 36.96375 
L 275.503327 36.451642 
L 276.728176 36.02341 
L 277.953026 35.679856 
L 279.177876 35.421624 
L 280.402725 35.249199 
L 281.627575 35.162905 
L 282.852425 35.162905 
L 284.077275 35.249199 
L 285.302124 35.421624 
L 286.526974 35.679856 
L 287.751824 36.02341 
L 288.976673 36.451642 
L 290.201523 36.96375 
L 291.426373 37.558777 
L 292.651222 38.235615 
L 293.876072 38.993008 
L 295.100922 39.829554 
L 296.325772 40.743711 
L 297.550621 41.733804 
L 298.775471 42.798024 
L 300.000321 43.934441 
L 301.22517 45.141001 
L 302.45002 46.415543 
L 303.67487 47.755796 
L 304.899719 49.159389 
L 306.124569 50.623861 
L 307.349419 52.146663 
L 308.574269 53.725169 
L 309.799118 55.356683 
L 311.023968 57.038445 
L 312.248818 58.76764 
L 313.473667 60.541405 
L 314.698517 62.35684 
L 315.923367 64.21101 
L 317.148216 66.100957 
L 318.373066 68.023709 
L 319.597916 69.976284 
L 320.822766 71.955697 
L 322.047615 73.958972 
L 323.272465 75.983147 
L 324.497315 78.025281 
L 325.722164 80.082457 
L 326.947014 82.151798 
L 328.171864 84.230464 
L 329.396713 86.315663 
L 330.621563 88.404655 
L 331.846413 90.494761 
L 333.071263 92.583361 
L 334.296112 94.667909 
L 335.520962 96.745927 
L 336.745812 98.815017 
L 337.970661 100.872861 
L 339.195511 102.917228 
L 340.420361 104.945971 
L 341.64521 106.957037 
L 342.87006 108.948464 
L 344.09491 110.918387 
L 345.31976 112.865037 
L 346.544609 114.786741 
L 347.769459 116.68193 
L 348.994309 118.549131 
L 350.219158 120.386974 
L 351.444008 122.194188 
L 352.668858 123.969601 
L 353.893707 125.712144 
L 355.118557 127.420843 
L 356.343407 129.094825 
L 357.568257 130.733309 
L 358.793106 132.335614 
L 360.017956 133.901146 
L 361.242806 135.429406 
L 362.467655 136.91998 
L 363.692505 138.372544 
L 364.917355 139.786852 
L 366.142204 141.162742 
L 367.367054 142.500129 
L 368.591904 143.799002 
L 369.816754 145.059421 
L 371.041603 146.281516 
L 372.266453 147.46548 
L 373.491303 148.611568 
L 374.716152 149.720093 
L 375.941002 150.791423 
L 377.165852 151.825978 
L 378.390701 152.824225 
L 379.615551 153.786676 
L 380.840401 154.713884 
L 382.065251 155.606439 
L 383.2901 156.464967 
L 384.51495 157.290124 
L 385.7398 158.082595 
L 386.964649 158.84309 
L 388.189499 159.572339 
L 389.414349 160.271094 
L 390.639198 160.940122 
L 391.864048 161.580201 
L 393.088898 162.192125 
L 394.313747 162.776691 
L 395.538597 163.334706 
L 396.763447 163.866978 
L 397.988297 164.374319 
L 399.213146 164.857536 
L 400.437996 165.317439 
L 401.662846 165.754829 
L 402.887695 166.170505 
L 404.112545 166.565253 
L 405.337395 166.939856 
L 406.562244 167.295083 
L 407.787094 167.631691 
L 409.011944 167.950426 
L 410.236794 168.252019 
L 411.461643 168.537186 
L 412.686493 168.806629 
L 413.911343 169.061032 
L 415.136192 169.301063 
L 416.361042 169.527373 
L 417.585892 169.740594 
L 418.810741 169.94134 
L 420.035591 170.130208 
L 421.260441 170.307775 
L 422.485291 170.474598 
L 423.71014 170.631219 
L 424.93499 170.778157 
L 426.15984 170.915914 
L 427.384689 171.044974 
L 428.609539 171.165801 
L 429.834389 171.278841 
L 431.059238 171.384523 
L 432.284088 171.483256 
L 433.508938 171.575434 
L 434.733788 171.661432 
L 435.958637 171.741609 
L 437.183487 171.816308 
L 438.408337 171.885854 
L 439.633186 171.950558 
L 440.858036 172.010716 
L 442.082886 172.066609 
L 443.307735 172.118504 
L 444.532585 172.166654 
L 445.757435 172.211298 
L 446.982285 172.252663 
L 448.207134 172.290964 
L 449.431984 172.326404 
L 450.656834 172.359174 
L 451.881683 172.389455 
L 453.106533 172.417416 
L 454.331383 172.443219 
L 455.556232 172.467012 
L 456.781082 172.488939 
L 458.005932 172.509131 
L 459.230782 172.527714 
L 460.455631 172.544803 
L 461.680481 172.560509 
L 462.905331 172.574934 
L 464.13018 172.588174 
L 465.35503 172.600316 
L 466.57988 172.611446 
L 467.804729 172.62164 
L 469.029579 172.630971 
L 470.254429 172.639507 
L 471.479279 172.647309 
L 472.704128 172.654437 
L 473.928978 172.660943 
L 475.153828 172.666879 
L 476.378677 172.672291 
L 477.603527 172.677221 
L 478.828377 172.68171 
L 480.053226 172.685794 
L 481.278076 172.689507 
L 482.502926 172.692881 
L 483.727776 172.695945 
L 484.952625 172.698725 
L 486.177475 172.701246 
L 487.402325 172.703531 
L 488.627174 172.7056 
L 489.852024 172.707473 
L 491.076874 172.709166 
L 492.301723 172.710697 
L 493.526573 172.712079 
L 494.751423 172.713327 
L 495.976273 172.714453 
L 497.201122 172.715468 
L 498.425972 172.716382 
L 499.650822 172.717205 
L 500.875671 172.717945 
L 502.100521 172.718611 
L 503.325371 172.719209 
L 504.55022 172.719746 
L 505.77507 172.720228 
L 506.99992 172.72066 
L 508.22477 172.721047 
L 509.449619 172.721394 
L 510.674469 172.721704 
L 511.899319 172.721982 
L 513.124168 172.72223 
L 514.349018 172.722451 
L 515.573868 172.722649 
L 516.798717 172.722825 
L 518.023567 172.722983 
L 519.248417 172.723123 
L 520.473267 172.723247 
L 521.698116 172.723358 
L 522.922966 172.723457 
L 524.147816 172.723545 
L 525.372665 172.723622 
L 526.597515 172.723691 
L 527.822365 172.723753 
L 529.047214 172.723807 
L 530.272064 172.723855 
L 531.496914 172.723897 
L 532.721764 172.723935 
L 533.946613 172.723968 
L 535.171463 172.723998 
L 536.396313 172.724024 
L 537.621162 172.724046 
L 538.846012 172.724067 
L 540.070862 172.724084 
L 541.295711 172.7241 
L 542.520561 172.724114 
L 543.745411 172.724126 
L 544.970261 172.724137 
L 546.19511 172.724146 
L 547.41996 172.724154 
L 548.64481 172.724161 
L 549.869659 172.724168 
L 551.094509 172.724173 
L 552.319359 172.724178 
L 553.544208 172.724182 
L 554.769058 172.724186 
L 555.993908 172.724189 
L 557.218758 172.724192 
L 558.443607 172.724194 
L 559.668457 172.724196 
L 560.893307 172.724198 
L 562.118156 172.7242 
L 563.343006 172.724201 
L 564.567856 172.724203 
L 565.792705 172.724204 
L 567.017555 172.724205 
L 568.242405 172.724205 
L 569.467255 172.724206 
L 570.692104 172.724207 
L 571.916954 172.724207 
L 573.141804 172.724208 
L 574.366653 172.724208 
L 575.591503 172.724208 
L 576.816353 172.724209 
L 578.041202 172.724209 
L 579.266052 172.724209 
L 580.490902 172.724209 
L 581.715752 172.72421 
L 582.940601 172.72421 
L 584.165451 172.72421 
L 585.390301 172.72421 
L 586.61515 172.72421 
L 587.84 172.72421 
L 587.84 172.724211 
L 587.84 172.724211 
L 586.61515 172.724211 
L 585.390301 172.724211 
L 584.165451 172.724211 
L 582.940601 172.724211 
L 581.715752 172.724211 
L 580.490902 172.724211 
L 579.266052 172.724211 
L 578.041202 172.724211 
L 576.816353 172.724211 
L 575.591503 172.724211 
L 574.366653 172.724211 
L 573.141804 172.724211 
L 571.916954 172.724211 
L 570.692104 172.724211 
L 569.467255 172.724211 
L 568.242405 172.724211 
L 567.017555 172.724211 
L 565.792705 172.724211 
L 564.567856 172.724211 
L 563.343006 172.724211 
L 562.118156 172.724211 
L 560.893307 172.724211 
L 559.668457 172.724211 
L 558.443607 172.724211 
L 557.218758 172.724211 
L 555.993908 172.724211 
L 554.769058 172.724211 
L 553.544208 172.724211 
L 552.319359 172.724211 
L 551.094509 172.724211 
L 549.869659 172.724211 
L 548.64481 172.724211 
L 547.41996 172.724211 
L 546.19511 172.724211 
L 544.970261 172.724211 
L 543.745411 172.724211 
L 542.520561 172.724211 
L 541.295711 172.724211 
L 540.070862 172.724211 
L 538.846012 172.724211 
L 537.621162 172.724211 
L 536.396313 172.724211 
L 535.171463 172.724211 
L 533.946613 172.724211 
L 532.721764 172.724211 
L 531.496914 172.724211 
L 530.272064 172.724211 
L 529.047214 172.724211 
L 527.822365 172.724211 
L 526.597515 172.724211 
L 525.372665 172.724211 
L 524.147816 172.724211 
L 522.922966 172.724211 
L 521.698116 172.724211 
L 520.473267 172.724211 
L 519.248417 172.724211 
L 518.023567 172.724211 
L 516.798717 172.724211 
L 515.573868 172.724211 
L 514.349018 172.724211 
L 513.124168 172.724211 
L 511.899319 172.724211 
L 510.674469 172.724211 
L 509.449619 172.724211 
L 508.22477 172.724211 
L 506.99992 172.724211 
L 505.77507 172.724211 
L 504.55022 172.724211 
L 503.325371 172.724211 
L 502.100521 172.724211 
L 500.875671 172.724211 
L 499.650822 172.724211 
L 498.425972 172.724211 
L 497.201122 172.724211 
L 495.976273 172.724211 
L 494.751423 172.724211 
L 493.526573 172.724211 
L 492.301723 172.724211 
L 491.076874 172.724211 
L 489.852024 172.724211 
L 488.627174 172.724211 
L 487.402325 172.724211 
L 486.177475 172.724211 
L 484.952625 172.724211 
L 483.727776 172.724211 
L 482.502926 172.724211 
L 481.278076 172.724211 
L 480.053226 172.724211 
L 478.828377 172.724211 
L 477.603527 172.724211 
L 476.378677 172.724211 
L 475.153828 172.724211 
L 473.928978 172.724211 
L 472.704128 172.724211 
L 471.479279 172.724211 
L 470.254429 172.724211 
L 469.029579 172.724211 
L 467.804729 172.724211 
L 466.57988 172.724211 
L 465.35503 172.724211 
L 464.13018 172.724211 
L 462.905331 172.724211 
L 461.680481 172.724211 
L 460.455631 172.724211 
L 459.230782 172.724211 
L 458.005932 172.724211 
L 456.781082 172.724211 
L 455.556232 172.724211 
L 454.331383 172.724211 
L 453.106533 172.724211 
L 451.881683 172.724211 
L 450.656834 172.724211 
L 449.431984 172.724211 
L 448.207134 172.724211 
L 446.982285 172.724211 
L 445.757435 172.724211 
L 444.532585 172.724211 
L 443.307735 172.724211 
L 442.082886 172.724211 
L 440.858036 172.724211 
L 439.633186 172.724211 
L 438.408337 172.724211 
L 437.183487 172.724211 
L 435.958637 172.724211 
L 434.733788 172.724211 
L 433.508938 172.724211 
L 432.284088 172.724211 
L 431.059238 172.724211 
L 429.834389 172.724211 
L 428.609539 172.724211 
L 427.384689 172.724211 
L 426.15984 172.724211 
L 424.93499 172.724211 
L 423.71014 172.724211 
L 422.485291 172.724211 
L 421.260441 172.724211 
L 420.035591 172.724211 
L 418.810741 172.724211 
L 417.585892 172.724211 
L 416.361042 172.724211 
L 415.136192 172.724211 
L 413.911343 172.724211 
L 412.686493 172.724211 
L 411.461643 172.724211 
L 410.236794 172.724211 
L 409.011944 172.724211 
L 407.787094 172.724211 
L 406.562244 172.724211 
L 405.337395 172.724211 
L 404.112545 172.724211 
L 402.887695 172.724211 
L 401.662846 172.724211 
L 400.437996 172.724211 
L 399.213146 172.724211 
L 397.988297 172.724211 
L 396.763447 172.724211 
L 395.538597 172.724211 
L 394.313747 172.724211 
L 393.088898 172.724211 
L 391.864048 172.724211 
L 390.639198 172.724211 
L 389.414349 172.724211 
L 388.189499 172.724211 
L 386.964649 172.724211 
L 385.7398 172.724211 
L 384.51495 172.724211 
L 383.2901 172.724211 
L 382.065251 172.724211 
L 380.840401 172.724211 
L 379.615551 172.724211 
L 378.390701 172.724211 
L 377.165852 172.724211 
L 375.941002 172.724211 
L 374.716152 172.724211 
L 373.491303 172.724211 
L 372.266453 172.724211 
L 371.041603 172.724211 
L 369.816754 172.724211 
L 368.591904 172.724211 
L 367.367054 172.724211 
L 366.142204 172.724211 
L 364.917355 172.724211 
L 363.692505 172.724211 
L 362.467655 172.724211 
L 361.242806 172.724211 
L 360.017956 172.724211 
L 358.793106 172.724211 
L 357.568257 172.724211 
L 356.343407 172.724211 
L 355.118557 172.724211 
L 353.893707 172.724211 
L 352.668858 172.724211 
L 351.444008 172.724211 
L 350.219158 172.724211 
L 348.994309 172.724211 
L 347.769459 172.724211 
L 346.544609 172.724211 
L 345.31976 172.724211 
L 344.09491 172.724211 
L 342.87006 172.724211 
L 341.64521 172.724211 
L 340.420361 172.724211 
L 339.195511 172.724211 
L 337.970661 172.724211 
L 336.745812 172.724211 
L 335.520962 172.724211 
L 334.296112 172.724211 
L 333.071263 172.724211 
L 331.846413 172.724211 
L 330.621563 172.724211 
L 329.396713 172.724211 
L 328.171864 172.724211 
L 326.947014 172.724211 
L 325.722164 172.724211 
L 324.497315 172.724211 
L 323.272465 172.724211 
L 322.047615 172.724211 
L 320.822766 172.724211 
L 319.597916 172.724211 
L 318.373066 172.724211 
L 317.148216 172.724211 
L 315.923367 172.724211 
L 314.698517 172.724211 
L 313.473667 172.724211 
L 312.248818 172.724211 
L 311.023968 172.724211 
L 309.799118 172.724211 
L 308.574269 172.724211 
L 307.349419 172.724211 
L 306.124569 172.724211 
L 304.899719 172.724211 
L 303.67487 172.724211 
L 302.45002 172.724211 
L 301.22517 172.724211 
L 300.000321 172.724211 
L 298.775471 172.724211 
L 297.550621 172.724211 
L 296.325772 172.724211 
L 295.100922 172.724211 
L 293.876072 172.724211 
L 292.651222 172.724211 
L 291.426373 172.724211 
L 290.201523 172.724211 
L 288.976673 172.724211 
L 287.751824 172.724211 
L 286.526974 172.724211 
L 285.302124 172.724211 
L 284.077275 172.724211 
L 282.852425 172.724211 
L 281.627575 172.724211 
L 280.402725 172.724211 
L 279.177876 172.724211 
L 277.953026 172.724211 
L 276.728176 172.724211 
L 275.503327 172.724211 
L 274.278477 172.724211 
L 273.053627 172.724211 
L 271.828778 172.724211 
L 270.603928 172.724211 
L 269.379078 172.724211 
L 268.154228 172.724211 
L 266.929379 172.724211 
L 265.704529 172.724211 
L 264.479679 172.724211 
L 263.25483 172.724211 
L 262.02998 172.724211 
L 260.80513 172.724211 
L 259.580281 172.724211 
L 258.355431 172.724211 
L 257.130581 172.724211 
L 255.905731 172.724211 
L 254.680882 172.724211 
L 253.456032 172.724211 
L 252.231182 172.724211 
L 251.006333 172.724211 
L 249.781483 172.724211 
L 248.556633 172.724211 
L 247.331784 172.724211 
L 246.106934 172.724211 
L 244.882084 172.724211 
L 243.657234 172.724211 
L 242.432385 172.724211 
L 241.207535 172.724211 
L 239.982685 172.724211 
L 238.757836 172.724211 
L 237.532986 172.724211 
L 236.308136 172.724211 
L 235.083287 172.724211 
L 233.858437 172.724211 
L 232.633587 172.724211 
L 231.408737 172.724211 
L 230.183888 172.724211 
L 228.959038 172.724211 
L 227.734188 172.724211 
L 226.509339 172.724211 
L 225.284489 172.724211 
L 224.059639 172.724211 
L 222.83479 172.724211 
L 221.60994 172.724211 
L 220.38509 172.724211 
L 219.16024 172.724211 
L 217.935391 172.724211 
L 216.710541 172.724211 
L 215.485691 172.724211 
L 214.260842 172.724211 
L 213.035992 172.724211 
L 211.811142 172.724211 
L 210.586293 172.724211 
L 209.361443 172.724211 
L 208.136593 172.724211 
L 206.911743 172.724211 
L 205.686894 172.724211 
L 204.462044 172.724211 
L 203.237194 172.724211 
L 202.012345 172.724211 
L 200.787495 172.724211 
L 199.562645 172.724211 
L 198.337796 172.724211 
L 197.112946 172.724211 
L 195.888096 172.724211 
L 194.663246 172.724211 
L 193.438397 172.724211 
L 192.213547 172.724211 
L 190.988697 172.724211 
L 189.763848 172.724211 
L 188.538998 172.724211 
L 187.314148 172.724211 
L 186.089299 172.724211 
L 184.864449 172.724211 
L 183.639599 172.724211 
L 182.414749 172.724211 
L 181.1899 172.724211 
L 179.96505 172.724211 
L 178.7402 172.724211 
L 177.515351 172.724211 
L 176.290501 172.724211 
L 175.065651 172.724211 
L 173.840802 172.724211 
L 172.615952 172.724211 
L 171.391102 172.724211 
L 170.166253 172.724211 
L 168.941403 172.724211 
L 167.716553 172.724211 
L 166.491703 172.724211 
L 165.266854 172.724211 
L 164.042004 172.724211 
L 162.817154 172.724211 
L 161.592305 172.724211 
L 160.367455 172.724211 
L 159.142605 172.724211 
L 157.917756 172.724211 
L 156.692906 172.724211 
L 155.468056 172.724211 
L 154.243206 172.724211 
L 153.018357 172.724211 
L 151.793507 172.724211 
L 150.568657 172.724211 
L 149.343808 172.724211 
L 148.118958 172.724211 
L 146.894108 172.724211 
L 145.669259 172.724211 
L 144.444409 172.724211 
L 143.219559 172.724211 
L 141.994709 172.724211 
L 140.76986 172.724211 
L 139.54501 172.724211 
L 138.32016 172.724211 
L 137.095311 172.724211 
L 135.870461 172.724211 
L 134.645611 172.724211 
L 133.420762 172.724211 
L 132.195912 172.724211 
L 130.971062 172.724211 
L 129.746212 172.724211 
L 128.521363 172.724211 
L 127.296513 172.724211 
L 126.071663 172.724211 
L 124.846814 172.724211 
L 123.621964 172.724211 
L 122.397114 172.724211 
L 121.172265 172.724211 
L 119.947415 172.724211 
L 118.722565 172.724211 
L 117.497715 172.724211 
L 116.272866 172.724211 
L 115.048016 172.724211 
L 113.823166 172.724211 
L 112.598317 172.724211 
L 111.373467 172.724211 
L 110.148617 172.724211 
L 108.923768 172.724211 
L 107.698918 172.724211 
L 106.474068 172.724211 
L 105.249218 172.724211 
L 104.024369 172.724211 
L 102.799519 172.724211 
L 101.574669 172.724211 
L 100.34982 172.724211 
L 99.12497 172.724211 
L 97.90012 172.724211 
L 96.675271 172.724211 
L 95.450421 172.724211 
L 94.225571 172.724211 
L 93.000721 172.724211 
L 91.775872 172.724211 
L 90.551022 172.724211 
L 89.326172 172.724211 
L 88.101323 172.724211 
L 86.876473 172.724211 
L 85.651623 172.724211 
L 84.426774 172.724211 
L 83.201924 172.724211 
L 81.977074 172.724211 
L 80.752224 172.724211 
L 79.527375 172.724211 
L 78.302525 172.724211 
L 77.077675 172.724211 
L 75.852826 172.724211 
L 74.627976 172.724211 
L 73.403126 172.724211 
L 72.178277 172.724211 
L 70.953427 172.724211 
L 69.728577 172.724211 
L 68.503727 172.724211 
L 67.278878 172.724211 
L 66.054028 172.724211 
L 64.829178 172.724211 
L 63.604329 172.724211 
L 62.379479 172.724211 
L 61.154629 172.724211 
L 59.92978 172.724211 
L 58.70493 172.724211 
L 57.48008 172.724211 
L 56.25523 172.724211 
L 55.030381 172.724211 
L 53.805531 172.724211 
L 52.580681 172.724211 
L 51.355832 172.724211 
L 50.130982 172.724211 
L 48.906132 172.724211 
L 47.681283 172.724211 
L 46.456433 172.724211 
L 45.231583 172.724211 
L 44.006733 172.724211 
L 42.781884 172.724211 
L 41.557034 172.724211 
L 40.332184 172.724211 
L 39.107335 172.724211 
L 37.882485 172.724211 
L 36.657635 172.724211 
L 35.432786 172.724211 
L 34.207936 172.724211 
L 32.983086 172.724211 
L 31.758236 172.724211 
L 30.533387 172.724211 
L 29.308537 172.724211 
L 28.083687 172.724211 
L 26.858838 172.724211 
L 25.633988 172.724211 
L 24.409138 172.724211 
L 23.184289 172.724211 
L 21.959439 172.724211 
L 20.734589 172.724211 
L 19.509739 172.724211 
L 18.28489 172.724211 
L 17.06004 172.724211 
L 15.83519 172.724211 
L 14.610341 172.724211 
L 13.385491 172.724211 
L 12.160641 172.724211 
L 10.935792 172.724211 
L 9.710942 172.724211 
L 8.486092 172.724211 
L 7.261242 172.724211 
L 6.036393 172.724211 
L 4.811543 172.724211 
L 3.586693 172.724211 
L 2.361844 172.724211 
L 1.136994 172.724211 
L -0.087856 172.724211 
L -1.312705 172.724211 
L -2.537555 172.724211 
L -3.762405 172.724211 
L -4.987255 172.724211 
L -6.212104 172.724211 
L -7.436954 172.724211 
L -8.661804 172.724211 
L -9.886653 172.724211 
L -11.111503 172.724211 
L -12.336353 172.724211 
L -13.561202 172.724211 
L -14.786052 172.724211 
L -16.010902 172.724211 
L -17.235752 172.724211 
L -18.460601 172.724211 
L -19.685451 172.724211 
L -20.910301 172.724211 
L -22.13515 172.724211 
L -23.36 172.724211 
z
" clip-path="url(#pb9f8c8616b)" style="fill: #e94e77; fill-opacity: 0.15; stroke: #e94e77; stroke-opacity: 0.15"/>
   </g>
   <g id="FillBetweenPolyCollection_3">
    <path d="M -23.36 172.724211 
L -23.36 172.724209 
L -22.13515 172.724209 
L -20.910301 172.724208 
L -19.685451 172.724208 
L -18.460601 172.724208 
L -17.235752 172.724207 
L -16.010902 172.724207 
L -14.786052 172.724207 
L -13.561202 172.724206 
L -12.336353 172.724206 
L -11.111503 172.724205 
L -9.886653 172.724204 
L -8.661804 172.724204 
L -7.436954 172.724203 
L -6.212104 172.724202 
L -4.987255 172.724201 
L -3.762405 172.7242 
L -2.537555 172.724198 
L -1.312705 172.724197 
L -0.087856 172.724195 
L 1.136994 172.724193 
L 2.361844 172.724191 
L 3.586693 172.724189 
L 4.811543 172.724187 
L 6.036393 172.724184 
L 7.261242 172.724181 
L 8.486092 172.724177 
L 9.710942 172.724173 
L 10.935792 172.724169 
L 12.160641 172.724164 
L 13.385491 172.724159 
L 14.610341 172.724153 
L 15.83519 172.724147 
L 17.06004 172.724139 
L 18.28489 172.724131 
L 19.509739 172.724122 
L 20.734589 172.724113 
L 21.959439 172.724102 
L 23.184289 172.72409 
L 24.409138 172.724076 
L 25.633988 172.724061 
L 26.858838 172.724045 
L 28.083687 172.724027 
L 29.308537 172.724007 
L 30.533387 172.723985 
L 31.758236 172.723961 
L 32.983086 172.723934 
L 34.207936 172.723904 
L 35.432786 172.723872 
L 36.657635 172.723836 
L 37.882485 172.723796 
L 39.107335 172.723753 
L 40.332184 172.723705 
L 41.557034 172.723652 
L 42.781884 172.723594 
L 44.006733 172.72353 
L 45.231583 172.72346 
L 46.456433 172.723384 
L 47.681283 172.723299 
L 48.906132 172.723207 
L 50.130982 172.723105 
L 51.355832 172.722994 
L 52.580681 172.722872 
L 53.805531 172.722738 
L 55.030381 172.722592 
L 56.25523 172.722432 
L 57.48008 172.722256 
L 58.70493 172.722065 
L 59.92978 172.721855 
L 61.154629 172.721627 
L 62.379479 172.721377 
L 63.604329 172.721104 
L 64.829178 172.720806 
L 66.054028 172.720481 
L 67.278878 172.720127 
L 68.503727 172.719741 
L 69.728577 172.71932 
L 70.953427 172.718863 
L 72.178277 172.718364 
L 73.403126 172.717822 
L 74.627976 172.717232 
L 75.852826 172.716591 
L 77.077675 172.715894 
L 78.302525 172.715137 
L 79.527375 172.714315 
L 80.752224 172.713423 
L 81.977074 172.712455 
L 83.201924 172.711406 
L 84.426774 172.710268 
L 85.651623 172.709036 
L 86.876473 172.707702 
L 88.101323 172.706257 
L 89.326172 172.704693 
L 90.551022 172.703002 
L 91.775872 172.701174 
L 93.000721 172.699198 
L 94.225571 172.697064 
L 95.450421 172.694759 
L 96.675271 172.692272 
L 97.90012 172.689588 
L 99.12497 172.686694 
L 100.34982 172.683574 
L 101.574669 172.680213 
L 102.799519 172.676592 
L 104.024369 172.672695 
L 105.249218 172.6685 
L 106.474068 172.663989 
L 107.698918 172.659138 
L 108.923768 172.653925 
L 110.148617 172.648324 
L 111.373467 172.64231 
L 112.598317 172.635855 
L 113.823166 172.62893 
L 115.048016 172.621503 
L 116.272866 172.613541 
L 117.497715 172.60501 
L 118.722565 172.595874 
L 119.947415 172.586092 
L 121.172265 172.575625 
L 122.397114 172.564428 
L 123.621964 172.552457 
L 124.846814 172.539662 
L 126.071663 172.525995 
L 127.296513 172.511401 
L 128.521363 172.495823 
L 129.746212 172.479205 
L 130.971062 172.461482 
L 132.195912 172.44259 
L 133.420762 172.422462 
L 134.645611 172.401024 
L 135.870461 172.378203 
L 137.095311 172.353918 
L 138.32016 172.328089 
L 139.54501 172.300627 
L 140.76986 172.271444 
L 141.994709 172.240445 
L 143.219559 172.20753 
L 144.444409 172.172598 
L 145.669259 172.135541 
L 146.894108 172.096246 
L 148.118958 172.054597 
L 149.343808 172.010473 
L 150.568657 171.963747 
L 151.793507 171.914287 
L 153.018357 171.861956 
L 154.243206 171.806613 
L 155.468056 171.74811 
L 156.692906 171.686293 
L 157.917756 171.621005 
L 159.142605 171.552081 
L 160.367455 171.479351 
L 161.592305 171.402639 
L 162.817154 171.321763 
L 164.042004 171.236535 
L 165.266854 171.146762 
L 166.491703 171.052243 
L 167.716553 170.952771 
L 168.941403 170.848136 
L 170.166253 170.738118 
L 171.391102 170.622492 
L 172.615952 170.501028 
L 173.840802 170.373488 
L 175.065651 170.239629 
L 176.290501 170.099203 
L 177.515351 169.951953 
L 178.7402 169.797619 
L 179.96505 169.635934 
L 181.1899 169.466624 
L 182.414749 169.289412 
L 183.639599 169.104014 
L 184.864449 168.910141 
L 186.089299 168.707499 
L 187.314148 168.495788 
L 188.538998 168.274707 
L 189.763848 168.043946 
L 190.988697 167.803194 
L 192.213547 167.552136 
L 193.438397 167.290452 
L 194.663246 167.01782 
L 195.888096 166.733915 
L 197.112946 166.43841 
L 198.337796 166.130976 
L 199.562645 165.811283 
L 200.787495 165.478999 
L 202.012345 165.133792 
L 203.237194 164.775329 
L 204.462044 164.403281 
L 205.686894 164.017316 
L 206.911743 163.617107 
L 208.136593 163.202327 
L 209.361443 162.772653 
L 210.586293 162.327766 
L 211.811142 161.867352 
L 213.035992 161.3911 
L 214.260842 160.898707 
L 215.485691 160.389875 
L 216.710541 159.864315 
L 217.935391 159.321745 
L 219.16024 158.761891 
L 220.38509 158.184491 
L 221.60994 157.589293 
L 222.83479 156.976056 
L 224.059639 156.34455 
L 225.284489 155.694562 
L 226.509339 155.02589 
L 227.734188 154.338348 
L 228.959038 153.631765 
L 230.183888 152.905989 
L 231.408737 152.160883 
L 232.633587 151.39633 
L 233.858437 150.612233 
L 235.083287 149.808514 
L 236.308136 148.985118 
L 237.532986 148.14201 
L 238.757836 147.279179 
L 239.982685 146.396639 
L 241.207535 145.494426 
L 242.432385 144.572604 
L 243.657234 143.631261 
L 244.882084 142.670514 
L 246.106934 141.690505 
L 247.331784 140.691406 
L 248.556633 139.673418 
L 249.781483 138.636772 
L 251.006333 137.581727 
L 252.231182 136.508575 
L 253.456032 135.417637 
L 254.680882 134.309267 
L 255.905731 133.18385 
L 257.130581 132.041805 
L 258.355431 130.88358 
L 259.580281 129.709659 
L 260.80513 128.520558 
L 262.02998 127.316824 
L 263.25483 126.09904 
L 264.479679 124.867819 
L 265.704529 123.623808 
L 266.929379 122.367687 
L 268.154228 121.100167 
L 269.379078 119.821993 
L 270.603928 118.53394 
L 271.828778 117.236814 
L 273.053627 115.931452 
L 274.278477 114.618721 
L 275.503327 113.299517 
L 276.728176 111.974765 
L 277.953026 110.645416 
L 279.177876 109.31245 
L 280.402725 107.976869 
L 281.627575 106.639704 
L 282.852425 105.302006 
L 284.077275 103.96485 
L 285.302124 102.629331 
L 286.526974 101.296563 
L 287.751824 99.96768 
L 288.976673 98.64383 
L 290.201523 97.326178 
L 291.426373 96.015902 
L 292.651222 94.714191 
L 293.876072 93.422246 
L 295.100922 92.141273 
L 296.325772 90.872487 
L 297.550621 89.617106 
L 298.775471 88.376353 
L 300.000321 87.15145 
L 301.22517 85.943616 
L 302.45002 84.754071 
L 303.67487 83.584027 
L 304.899719 82.434688 
L 306.124569 81.307251 
L 307.349419 80.202901 
L 308.574269 79.122808 
L 309.799118 78.068127 
L 311.023968 77.039998 
L 312.248818 76.039538 
L 313.473667 75.067845 
L 314.698517 74.125992 
L 315.923367 73.215026 
L 317.148216 72.335968 
L 318.373066 71.489809 
L 319.597916 70.677509 
L 320.822766 69.899994 
L 322.047615 69.158155 
L 323.272465 68.452849 
L 324.497315 67.784892 
L 325.722164 67.155062 
L 326.947014 66.564095 
L 328.171864 66.012684 
L 329.396713 65.501478 
L 330.621563 65.031083 
L 331.846413 64.602055 
L 333.071263 64.214904 
L 334.296112 63.870092 
L 335.520962 63.568031 
L 336.745812 63.309082 
L 337.970661 63.093556 
L 339.195511 62.921712 
L 340.420361 62.793755 
L 341.64521 62.709841 
L 342.87006 62.67007 
L 344.09491 62.67449 
L 345.31976 62.723095 
L 346.544609 62.815827 
L 347.769459 62.952575 
L 348.994309 63.133175 
L 350.219158 63.357407 
L 351.444008 63.625005 
L 352.668858 63.935647 
L 353.893707 64.288961 
L 355.118557 64.684526 
L 356.343407 65.12187 
L 357.568257 65.600473 
L 358.793106 66.119769 
L 360.017956 66.679145 
L 361.242806 67.277942 
L 362.467655 67.915458 
L 363.692505 68.590948 
L 364.917355 69.303627 
L 366.142204 70.05267 
L 367.367054 70.837215 
L 368.591904 71.656363 
L 369.816754 72.509179 
L 371.041603 73.394699 
L 372.266453 74.311925 
L 373.491303 75.259831 
L 374.716152 76.237364 
L 375.941002 77.243446 
L 377.165852 78.276975 
L 378.390701 79.33683 
L 379.615551 80.421868 
L 380.840401 81.53093 
L 382.065251 82.662842 
L 383.2901 83.816418 
L 384.51495 84.990459 
L 385.7398 86.183759 
L 386.964649 87.395104 
L 388.189499 88.623275 
L 389.414349 89.867051 
L 390.639198 91.12521 
L 391.864048 92.396531 
L 393.088898 93.679796 
L 394.313747 94.973791 
L 395.538597 96.27731 
L 396.763447 97.589156 
L 397.988297 98.908141 
L 399.213146 100.233091 
L 400.437996 101.562842 
L 401.662846 102.896251 
L 402.887695 104.232186 
L 404.112545 105.569537 
L 405.337395 106.907214 
L 406.562244 108.244146 
L 407.787094 109.579285 
L 409.011944 110.911607 
L 410.236794 112.240114 
L 411.461643 113.563832 
L 412.686493 114.881814 
L 413.911343 116.193142 
L 415.136192 117.496925 
L 416.361042 118.792303 
L 417.585892 120.078444 
L 418.810741 121.354548 
L 420.035591 122.619846 
L 421.260441 123.873601 
L 422.485291 125.115107 
L 423.71014 126.343692 
L 424.93499 127.558714 
L 426.15984 128.759567 
L 427.384689 129.945675 
L 428.609539 131.116497 
L 429.834389 132.271523 
L 431.059238 133.410278 
L 432.284088 134.532317 
L 433.508938 135.637231 
L 434.733788 136.724639 
L 435.958637 137.794194 
L 437.183487 138.845582 
L 438.408337 139.878516 
L 439.633186 140.892744 
L 440.858036 141.888039 
L 442.082886 142.864209 
L 443.307735 143.821086 
L 444.532585 144.758534 
L 445.757435 145.67644 
L 446.982285 146.574723 
L 448.207134 147.453323 
L 449.431984 148.312209 
L 450.656834 149.151373 
L 451.881683 149.970831 
L 453.106533 150.77062 
L 454.331383 151.550801 
L 455.556232 152.311456 
L 456.781082 153.052686 
L 458.005932 153.774613 
L 459.230782 154.477374 
L 460.455631 155.161129 
L 461.680481 155.826049 
L 462.905331 156.472323 
L 464.13018 157.100157 
L 465.35503 157.709768 
L 466.57988 158.301387 
L 467.804729 158.875257 
L 469.029579 159.431633 
L 470.254429 159.970779 
L 471.479279 160.492971 
L 472.704128 160.998491 
L 473.928978 161.487632 
L 475.153828 161.960692 
L 476.378677 162.417976 
L 477.603527 162.859795 
L 478.828377 163.286464 
L 480.053226 163.698304 
L 481.278076 164.095638 
L 482.502926 164.478793 
L 483.727776 164.848098 
L 484.952625 165.203883 
L 486.177475 165.546479 
L 487.402325 165.876219 
L 488.627174 166.193433 
L 489.852024 166.498455 
L 491.076874 166.791613 
L 492.301723 167.073238 
L 493.526573 167.343654 
L 494.751423 167.603187 
L 495.976273 167.852159 
L 497.201122 168.090888 
L 498.425972 168.319688 
L 499.650822 168.53887 
L 500.875671 168.748743 
L 502.100521 168.949608 
L 503.325371 169.141762 
L 504.55022 169.3255 
L 505.77507 169.501109 
L 506.99992 169.668872 
L 508.22477 169.829065 
L 509.449619 169.981961 
L 510.674469 170.127826 
L 511.899319 170.266918 
L 513.124168 170.399493 
L 514.349018 170.525799 
L 515.573868 170.646077 
L 516.798717 170.760563 
L 518.023567 170.869487 
L 519.248417 170.973072 
L 520.473267 171.071536 
L 521.698116 171.16509 
L 522.922966 171.253938 
L 524.147816 171.33828 
L 525.372665 171.418309 
L 526.597515 171.49421 
L 527.822365 171.566165 
L 529.047214 171.634348 
L 530.272064 171.698929 
L 531.496914 171.76007 
L 532.721764 171.81793 
L 533.946613 171.872659 
L 535.171463 171.924404 
L 536.396313 171.973306 
L 537.621162 172.019502 
L 538.846012 172.063121 
L 540.070862 172.10429 
L 541.295711 172.143128 
L 542.520561 172.179751 
L 543.745411 172.214271 
L 544.970261 172.246795 
L 546.19511 172.277423 
L 547.41996 172.306254 
L 548.64481 172.333382 
L 549.869659 172.358896 
L 551.094509 172.382881 
L 552.319359 172.40542 
L 553.544208 172.42659 
L 554.769058 172.446465 
L 555.993908 172.465118 
L 557.218758 172.482615 
L 558.443607 172.49902 
L 559.668457 172.514396 
L 560.893307 172.528801 
L 562.118156 172.542289 
L 563.343006 172.554915 
L 564.567856 172.566728 
L 565.792705 172.577775 
L 567.017555 172.588102 
L 568.242405 172.597751 
L 569.467255 172.606764 
L 570.692104 172.615178 
L 571.916954 172.62303 
L 573.141804 172.630354 
L 574.366653 172.637183 
L 575.591503 172.643547 
L 576.816353 172.649476 
L 578.041202 172.654997 
L 579.266052 172.660136 
L 580.490902 172.664917 
L 581.715752 172.669364 
L 582.940601 172.673497 
L 584.165451 172.677338 
L 585.390301 172.680905 
L 586.61515 172.684217 
L 587.84 172.68729 
L 587.84 172.724211 
L 587.84 172.724211 
L 586.61515 172.724211 
L 585.390301 172.724211 
L 584.165451 172.724211 
L 582.940601 172.724211 
L 581.715752 172.724211 
L 580.490902 172.724211 
L 579.266052 172.724211 
L 578.041202 172.724211 
L 576.816353 172.724211 
L 575.591503 172.724211 
L 574.366653 172.724211 
L 573.141804 172.724211 
L 571.916954 172.724211 
L 570.692104 172.724211 
L 569.467255 172.724211 
L 568.242405 172.724211 
L 567.017555 172.724211 
L 565.792705 172.724211 
L 564.567856 172.724211 
L 563.343006 172.724211 
L 562.118156 172.724211 
L 560.893307 172.724211 
L 559.668457 172.724211 
L 558.443607 172.724211 
L 557.218758 172.724211 
L 555.993908 172.724211 
L 554.769058 172.724211 
L 553.544208 172.724211 
L 552.319359 172.724211 
L 551.094509 172.724211 
L 549.869659 172.724211 
L 548.64481 172.724211 
L 547.41996 172.724211 
L 546.19511 172.724211 
L 544.970261 172.724211 
L 543.745411 172.724211 
L 542.520561 172.724211 
L 541.295711 172.724211 
L 540.070862 172.724211 
L 538.846012 172.724211 
L 537.621162 172.724211 
L 536.396313 172.724211 
L 535.171463 172.724211 
L 533.946613 172.724211 
L 532.721764 172.724211 
L 531.496914 172.724211 
L 530.272064 172.724211 
L 529.047214 172.724211 
L 527.822365 172.724211 
L 526.597515 172.724211 
L 525.372665 172.724211 
L 524.147816 172.724211 
L 522.922966 172.724211 
L 521.698116 172.724211 
L 520.473267 172.724211 
L 519.248417 172.724211 
L 518.023567 172.724211 
L 516.798717 172.724211 
L 515.573868 172.724211 
L 514.349018 172.724211 
L 513.124168 172.724211 
L 511.899319 172.724211 
L 510.674469 172.724211 
L 509.449619 172.724211 
L 508.22477 172.724211 
L 506.99992 172.724211 
L 505.77507 172.724211 
L 504.55022 172.724211 
L 503.325371 172.724211 
L 502.100521 172.724211 
L 500.875671 172.724211 
L 499.650822 172.724211 
L 498.425972 172.724211 
L 497.201122 172.724211 
L 495.976273 172.724211 
L 494.751423 172.724211 
L 493.526573 172.724211 
L 492.301723 172.724211 
L 491.076874 172.724211 
L 489.852024 172.724211 
L 488.627174 172.724211 
L 487.402325 172.724211 
L 486.177475 172.724211 
L 484.952625 172.724211 
L 483.727776 172.724211 
L 482.502926 172.724211 
L 481.278076 172.724211 
L 480.053226 172.724211 
L 478.828377 172.724211 
L 477.603527 172.724211 
L 476.378677 172.724211 
L 475.153828 172.724211 
L 473.928978 172.724211 
L 472.704128 172.724211 
L 471.479279 172.724211 
L 470.254429 172.724211 
L 469.029579 172.724211 
L 467.804729 172.724211 
L 466.57988 172.724211 
L 465.35503 172.724211 
L 464.13018 172.724211 
L 462.905331 172.724211 
L 461.680481 172.724211 
L 460.455631 172.724211 
L 459.230782 172.724211 
L 458.005932 172.724211 
L 456.781082 172.724211 
L 455.556232 172.724211 
L 454.331383 172.724211 
L 453.106533 172.724211 
L 451.881683 172.724211 
L 450.656834 172.724211 
L 449.431984 172.724211 
L 448.207134 172.724211 
L 446.982285 172.724211 
L 445.757435 172.724211 
L 444.532585 172.724211 
L 443.307735 172.724211 
L 442.082886 172.724211 
L 440.858036 172.724211 
L 439.633186 172.724211 
L 438.408337 172.724211 
L 437.183487 172.724211 
L 435.958637 172.724211 
L 434.733788 172.724211 
L 433.508938 172.724211 
L 432.284088 172.724211 
L 431.059238 172.724211 
L 429.834389 172.724211 
L 428.609539 172.724211 
L 427.384689 172.724211 
L 426.15984 172.724211 
L 424.93499 172.724211 
L 423.71014 172.724211 
L 422.485291 172.724211 
L 421.260441 172.724211 
L 420.035591 172.724211 
L 418.810741 172.724211 
L 417.585892 172.724211 
L 416.361042 172.724211 
L 415.136192 172.724211 
L 413.911343 172.724211 
L 412.686493 172.724211 
L 411.461643 172.724211 
L 410.236794 172.724211 
L 409.011944 172.724211 
L 407.787094 172.724211 
L 406.562244 172.724211 
L 405.337395 172.724211 
L 404.112545 172.724211 
L 402.887695 172.724211 
L 401.662846 172.724211 
L 400.437996 172.724211 
L 399.213146 172.724211 
L 397.988297 172.724211 
L 396.763447 172.724211 
L 395.538597 172.724211 
L 394.313747 172.724211 
L 393.088898 172.724211 
L 391.864048 172.724211 
L 390.639198 172.724211 
L 389.414349 172.724211 
L 388.189499 172.724211 
L 386.964649 172.724211 
L 385.7398 172.724211 
L 384.51495 172.724211 
L 383.2901 172.724211 
L 382.065251 172.724211 
L 380.840401 172.724211 
L 379.615551 172.724211 
L 378.390701 172.724211 
L 377.165852 172.724211 
L 375.941002 172.724211 
L 374.716152 172.724211 
L 373.491303 172.724211 
L 372.266453 172.724211 
L 371.041603 172.724211 
L 369.816754 172.724211 
L 368.591904 172.724211 
L 367.367054 172.724211 
L 366.142204 172.724211 
L 364.917355 172.724211 
L 363.692505 172.724211 
L 362.467655 172.724211 
L 361.242806 172.724211 
L 360.017956 172.724211 
L 358.793106 172.724211 
L 357.568257 172.724211 
L 356.343407 172.724211 
L 355.118557 172.724211 
L 353.893707 172.724211 
L 352.668858 172.724211 
L 351.444008 172.724211 
L 350.219158 172.724211 
L 348.994309 172.724211 
L 347.769459 172.724211 
L 346.544609 172.724211 
L 345.31976 172.724211 
L 344.09491 172.724211 
L 342.87006 172.724211 
L 341.64521 172.724211 
L 340.420361 172.724211 
L 339.195511 172.724211 
L 337.970661 172.724211 
L 336.745812 172.724211 
L 335.520962 172.724211 
L 334.296112 172.724211 
L 333.071263 172.724211 
L 331.846413 172.724211 
L 330.621563 172.724211 
L 329.396713 172.724211 
L 328.171864 172.724211 
L 326.947014 172.724211 
L 325.722164 172.724211 
L 324.497315 172.724211 
L 323.272465 172.724211 
L 322.047615 172.724211 
L 320.822766 172.724211 
L 319.597916 172.724211 
L 318.373066 172.724211 
L 317.148216 172.724211 
L 315.923367 172.724211 
L 314.698517 172.724211 
L 313.473667 172.724211 
L 312.248818 172.724211 
L 311.023968 172.724211 
L 309.799118 172.724211 
L 308.574269 172.724211 
L 307.349419 172.724211 
L 306.124569 172.724211 
L 304.899719 172.724211 
L 303.67487 172.724211 
L 302.45002 172.724211 
L 301.22517 172.724211 
L 300.000321 172.724211 
L 298.775471 172.724211 
L 297.550621 172.724211 
L 296.325772 172.724211 
L 295.100922 172.724211 
L 293.876072 172.724211 
L 292.651222 172.724211 
L 291.426373 172.724211 
L 290.201523 172.724211 
L 288.976673 172.724211 
L 287.751824 172.724211 
L 286.526974 172.724211 
L 285.302124 172.724211 
L 284.077275 172.724211 
L 282.852425 172.724211 
L 281.627575 172.724211 
L 280.402725 172.724211 
L 279.177876 172.724211 
L 277.953026 172.724211 
L 276.728176 172.724211 
L 275.503327 172.724211 
L 274.278477 172.724211 
L 273.053627 172.724211 
L 271.828778 172.724211 
L 270.603928 172.724211 
L 269.379078 172.724211 
L 268.154228 172.724211 
L 266.929379 172.724211 
L 265.704529 172.724211 
L 264.479679 172.724211 
L 263.25483 172.724211 
L 262.02998 172.724211 
L 260.80513 172.724211 
L 259.580281 172.724211 
L 258.355431 172.724211 
L 257.130581 172.724211 
L 255.905731 172.724211 
L 254.680882 172.724211 
L 253.456032 172.724211 
L 252.231182 172.724211 
L 251.006333 172.724211 
L 249.781483 172.724211 
L 248.556633 172.724211 
L 247.331784 172.724211 
L 246.106934 172.724211 
L 244.882084 172.724211 
L 243.657234 172.724211 
L 242.432385 172.724211 
L 241.207535 172.724211 
L 239.982685 172.724211 
L 238.757836 172.724211 
L 237.532986 172.724211 
L 236.308136 172.724211 
L 235.083287 172.724211 
L 233.858437 172.724211 
L 232.633587 172.724211 
L 231.408737 172.724211 
L 230.183888 172.724211 
L 228.959038 172.724211 
L 227.734188 172.724211 
L 226.509339 172.724211 
L 225.284489 172.724211 
L 224.059639 172.724211 
L 222.83479 172.724211 
L 221.60994 172.724211 
L 220.38509 172.724211 
L 219.16024 172.724211 
L 217.935391 172.724211 
L 216.710541 172.724211 
L 215.485691 172.724211 
L 214.260842 172.724211 
L 213.035992 172.724211 
L 211.811142 172.724211 
L 210.586293 172.724211 
L 209.361443 172.724211 
L 208.136593 172.724211 
L 206.911743 172.724211 
L 205.686894 172.724211 
L 204.462044 172.724211 
L 203.237194 172.724211 
L 202.012345 172.724211 
L 200.787495 172.724211 
L 199.562645 172.724211 
L 198.337796 172.724211 
L 197.112946 172.724211 
L 195.888096 172.724211 
L 194.663246 172.724211 
L 193.438397 172.724211 
L 192.213547 172.724211 
L 190.988697 172.724211 
L 189.763848 172.724211 
L 188.538998 172.724211 
L 187.314148 172.724211 
L 186.089299 172.724211 
L 184.864449 172.724211 
L 183.639599 172.724211 
L 182.414749 172.724211 
L 181.1899 172.724211 
L 179.96505 172.724211 
L 178.7402 172.724211 
L 177.515351 172.724211 
L 176.290501 172.724211 
L 175.065651 172.724211 
L 173.840802 172.724211 
L 172.615952 172.724211 
L 171.391102 172.724211 
L 170.166253 172.724211 
L 168.941403 172.724211 
L 167.716553 172.724211 
L 166.491703 172.724211 
L 165.266854 172.724211 
L 164.042004 172.724211 
L 162.817154 172.724211 
L 161.592305 172.724211 
L 160.367455 172.724211 
L 159.142605 172.724211 
L 157.917756 172.724211 
L 156.692906 172.724211 
L 155.468056 172.724211 
L 154.243206 172.724211 
L 153.018357 172.724211 
L 151.793507 172.724211 
L 150.568657 172.724211 
L 149.343808 172.724211 
L 148.118958 172.724211 
L 146.894108 172.724211 
L 145.669259 172.724211 
L 144.444409 172.724211 
L 143.219559 172.724211 
L 141.994709 172.724211 
L 140.76986 172.724211 
L 139.54501 172.724211 
L 138.32016 172.724211 
L 137.095311 172.724211 
L 135.870461 172.724211 
L 134.645611 172.724211 
L 133.420762 172.724211 
L 132.195912 172.724211 
L 130.971062 172.724211 
L 129.746212 172.724211 
L 128.521363 172.724211 
L 127.296513 172.724211 
L 126.071663 172.724211 
L 124.846814 172.724211 
L 123.621964 172.724211 
L 122.397114 172.724211 
L 121.172265 172.724211 
L 119.947415 172.724211 
L 118.722565 172.724211 
L 117.497715 172.724211 
L 116.272866 172.724211 
L 115.048016 172.724211 
L 113.823166 172.724211 
L 112.598317 172.724211 
L 111.373467 172.724211 
L 110.148617 172.724211 
L 108.923768 172.724211 
L 107.698918 172.724211 
L 106.474068 172.724211 
L 105.249218 172.724211 
L 104.024369 172.724211 
L 102.799519 172.724211 
L 101.574669 172.724211 
L 100.34982 172.724211 
L 99.12497 172.724211 
L 97.90012 172.724211 
L 96.675271 172.724211 
L 95.450421 172.724211 
L 94.225571 172.724211 
L 93.000721 172.724211 
L 91.775872 172.724211 
L 90.551022 172.724211 
L 89.326172 172.724211 
L 88.101323 172.724211 
L 86.876473 172.724211 
L 85.651623 172.724211 
L 84.426774 172.724211 
L 83.201924 172.724211 
L 81.977074 172.724211 
L 80.752224 172.724211 
L 79.527375 172.724211 
L 78.302525 172.724211 
L 77.077675 172.724211 
L 75.852826 172.724211 
L 74.627976 172.724211 
L 73.403126 172.724211 
L 72.178277 172.724211 
L 70.953427 172.724211 
L 69.728577 172.724211 
L 68.503727 172.724211 
L 67.278878 172.724211 
L 66.054028 172.724211 
L 64.829178 172.724211 
L 63.604329 172.724211 
L 62.379479 172.724211 
L 61.154629 172.724211 
L 59.92978 172.724211 
L 58.70493 172.724211 
L 57.48008 172.724211 
L 56.25523 172.724211 
L 55.030381 172.724211 
L 53.805531 172.724211 
L 52.580681 172.724211 
L 51.355832 172.724211 
L 50.130982 172.724211 
L 48.906132 172.724211 
L 47.681283 172.724211 
L 46.456433 172.724211 
L 45.231583 172.724211 
L 44.006733 172.724211 
L 42.781884 172.724211 
L 41.557034 172.724211 
L 40.332184 172.724211 
L 39.107335 172.724211 
L 37.882485 172.724211 
L 36.657635 172.724211 
L 35.432786 172.724211 
L 34.207936 172.724211 
L 32.983086 172.724211 
L 31.758236 172.724211 
L 30.533387 172.724211 
L 29.308537 172.724211 
L 28.083687 172.724211 
L 26.858838 172.724211 
L 25.633988 172.724211 
L 24.409138 172.724211 
L 23.184289 172.724211 
L 21.959439 172.724211 
L 20.734589 172.724211 
L 19.509739 172.724211 
L 18.28489 172.724211 
L 17.06004 172.724211 
L 15.83519 172.724211 
L 14.610341 172.724211 
L 13.385491 172.724211 
L 12.160641 172.724211 
L 10.935792 172.724211 
L 9.710942 172.724211 
L 8.486092 172.724211 
L 7.261242 172.724211 
L 6.036393 172.724211 
L 4.811543 172.724211 
L 3.586693 172.724211 
L 2.361844 172.724211 
L 1.136994 172.724211 
L -0.087856 172.724211 
L -1.312705 172.724211 
L -2.537555 172.724211 
L -3.762405 172.724211 
L -4.987255 172.724211 
L -6.212104 172.724211 
L -7.436954 172.724211 
L -8.661804 172.724211 
L -9.886653 172.724211 
L -11.111503 172.724211 
L -12.336353 172.724211 
L -13.561202 172.724211 
L -14.786052 172.724211 
L -16.010902 172.724211 
L -17.235752 172.724211 
L -18.460601 172.724211 
L -19.685451 172.724211 
L -20.910301 172.724211 
L -22.13515 172.724211 
L -23.36 172.724211 
z
" clip-path="url(#pb9f8c8616b)" style="fill: #50e3c2; fill-opacity: 0.15; stroke: #50e3c2; stroke-opacity: 0.15"/>
   </g>
   <g id="line2d_1">
    <path d="M -1 172.574955 
L 17.06004 172.306254 
L 29.308537 171.924404 
L 39.107335 171.418309 
L 47.681283 170.760563 
L 55.030381 169.981961 
L 61.154629 169.141762 
L 67.278878 168.090888 
L 73.403126 166.791613 
L 78.302525 165.546479 
L 83.201924 164.095638 
L 88.101323 162.417976 
L 93.000721 160.492971 
L 97.90012 158.301387 
L 102.799519 155.826049 
L 107.698918 153.052686 
L 112.598317 149.970831 
L 117.497715 146.574723 
L 122.397114 142.864209 
L 127.296513 138.845582 
L 132.195912 134.532317 
L 137.095311 129.945675 
L 143.219559 123.873601 
L 150.568657 116.193142 
L 161.592305 104.232186 
L 171.391102 93.679796 
L 177.515351 87.395104 
L 182.414749 82.662842 
L 187.314148 78.276975 
L 190.988697 75.259831 
L 194.663246 72.509179 
L 198.337796 70.05267 
L 202.012345 67.915458 
L 205.686894 66.119769 
L 208.136593 65.12187 
L 210.586293 64.288961 
L 213.035992 63.625005 
L 215.485691 63.133175 
L 217.935391 62.815827 
L 220.38509 62.67449 
L 222.83479 62.709841 
L 225.284489 62.921712 
L 227.734188 63.309082 
L 230.183888 63.870092 
L 232.633587 64.602055 
L 235.083287 65.501478 
L 238.757836 67.155062 
L 242.432385 69.158155 
L 246.106934 71.489809 
L 249.781483 74.125992 
L 253.456032 77.039998 
L 257.130581 80.202901 
L 262.02998 84.754071 
L 266.929379 89.617106 
L 273.053627 96.015902 
L 282.852425 106.639704 
L 293.876072 118.53394 
L 300.000321 124.867819 
L 306.124569 130.88358 
L 311.023968 135.417637 
L 315.923367 139.673418 
L 320.822766 143.631261 
L 325.722164 147.279179 
L 330.621563 150.612233 
L 335.520962 153.631765 
L 340.420361 156.34455 
L 345.31976 158.761891 
L 350.219158 160.898707 
L 355.118557 162.772653 
L 360.017956 164.403281 
L 364.917355 165.811283 
L 369.816754 167.01782 
L 375.941002 168.274707 
L 382.065251 169.289412 
L 388.189499 170.099203 
L 395.538597 170.848136 
L 404.112545 171.479351 
L 413.911343 171.963747 
L 426.15984 172.328089 
L 442.082886 172.564428 
L 467.804729 172.692272 
L 537.621162 172.724045 
L 565.48 172.724196 
L 565.48 172.724196 
" clip-path="url(#pb9f8c8616b)" style="fill: none; stroke: #4a90e2; stroke-opacity: 0.9; stroke-width: 6; stroke-linecap: round"/>
   </g>
   <g id="line2d_2">
    <path d="M -1 172.724203 
L 96.675271 172.62164 
L 112.598317 172.389455 
L 123.621964 172.010716 
L 132.195912 171.483256 
L 138.32016 170.915914 
L 144.444409 170.130208 
L 149.343808 169.301063 
L 154.243206 168.252019 
L 159.142605 166.939856 
L 162.817154 165.754829 
L 166.491703 164.374319 
L 170.166253 162.776691 
L 173.840802 160.940122 
L 177.515351 158.84309 
L 181.1899 156.464967 
L 184.864449 153.786676 
L 188.538998 150.791423 
L 192.213547 147.46548 
L 195.888096 143.799002 
L 199.562645 139.786852 
L 203.237194 135.429406 
L 206.911743 130.733309 
L 210.586293 125.712144 
L 215.485691 118.549131 
L 220.38509 110.918387 
L 226.509339 100.872861 
L 247.331784 66.100957 
L 251.006333 60.541405 
L 254.680882 55.356683 
L 258.355431 50.623861 
L 260.80513 47.755796 
L 263.25483 45.141001 
L 265.704529 42.798024 
L 268.154228 40.743711 
L 270.603928 38.993008 
L 273.053627 37.558777 
L 275.503327 36.451642 
L 277.953026 35.679856 
L 280.402725 35.249199 
L 282.852425 35.162905 
L 285.302124 35.421624 
L 287.751824 36.02341 
L 290.201523 36.96375 
L 292.651222 38.235615 
L 295.100922 39.829554 
L 297.550621 41.733804 
L 300.000321 43.934441 
L 302.45002 46.415543 
L 304.899719 49.159389 
L 308.574269 53.725169 
L 312.248818 58.76764 
L 315.923367 64.21101 
L 320.822766 71.955697 
L 326.947014 82.151798 
L 341.64521 106.957037 
L 346.544609 114.786741 
L 351.444008 122.194188 
L 355.118557 127.420843 
L 358.793106 132.335614 
L 362.467655 136.91998 
L 366.142204 141.162742 
L 369.816754 145.059421 
L 373.491303 148.611568 
L 377.165852 151.825978 
L 380.840401 154.713884 
L 384.51495 157.290124 
L 388.189499 159.572339 
L 391.864048 161.580201 
L 395.538597 163.334706 
L 399.213146 164.857536 
L 402.887695 166.170505 
L 406.562244 167.295083 
L 411.461643 168.537186 
L 416.361042 169.527373 
L 421.260441 170.307775 
L 427.384689 171.044974 
L 434.733788 171.661432 
L 443.307735 172.118504 
L 454.331383 172.443219 
L 469.029579 172.630971 
L 495.976273 172.714453 
L 565.48 172.724203 
L 565.48 172.724203 
" clip-path="url(#pb9f8c8616b)" style="fill: none; stroke: #e94e77; stroke-opacity: 0.9; stroke-width: 6; stroke-linecap: round"/>
   </g>
   <g id="line2d_3">
    <path d="M -1 172.724196 
L 116.272866 172.613541 
L 135.870461 172.378203 
L 149.343808 172.010473 
L 160.367455 171.479351 
L 168.941403 170.848136 
L 176.290501 170.099203 
L 183.639599 169.104014 
L 189.763848 168.043946 
L 195.888096 166.733915 
L 200.787495 165.478999 
L 205.686894 164.017316 
L 210.586293 162.327766 
L 215.485691 160.389875 
L 220.38509 158.184491 
L 225.284489 155.694562 
L 230.183888 152.905989 
L 235.083287 149.808514 
L 239.982685 146.396639 
L 244.882084 142.670514 
L 249.781483 138.636772 
L 254.680882 134.309267 
L 259.580281 129.709659 
L 265.704529 123.623808 
L 273.053627 115.931452 
L 284.077275 103.96485 
L 293.876072 93.422246 
L 300.000321 87.15145 
L 304.899719 82.434688 
L 309.799118 78.068127 
L 313.473667 75.067845 
L 317.148216 72.335968 
L 320.822766 69.899994 
L 324.497315 67.784892 
L 328.171864 66.012684 
L 330.621563 65.031083 
L 333.071263 64.214904 
L 335.520962 63.568031 
L 337.970661 63.093556 
L 340.420361 62.793755 
L 342.87006 62.67007 
L 345.31976 62.723095 
L 347.769459 62.952575 
L 350.219158 63.357407 
L 352.668858 63.935647 
L 355.118557 64.684526 
L 357.568257 65.600473 
L 361.242806 67.277942 
L 364.917355 69.303627 
L 368.591904 71.656363 
L 372.266453 74.311925 
L 375.941002 77.243446 
L 379.615551 80.421868 
L 384.51495 84.990459 
L 389.414349 89.867051 
L 395.538597 96.27731 
L 406.562244 108.244146 
L 416.361042 118.792303 
L 422.485291 125.115107 
L 428.609539 131.116497 
L 433.508938 135.637231 
L 438.408337 139.878516 
L 443.307735 143.821086 
L 448.207134 147.453323 
L 453.106533 150.77062 
L 458.005932 153.774613 
L 462.905331 156.472323 
L 467.804729 158.875257 
L 472.704128 160.998491 
L 477.603527 162.859795 
L 482.502926 164.478793 
L 487.402325 165.876219 
L 492.301723 167.073238 
L 498.425972 168.319688 
L 504.55022 169.3255 
L 511.899319 170.266918 
L 519.248417 170.973072 
L 527.822365 171.566165 
L 537.621162 172.019502 
L 549.869659 172.358896 
L 565.48 172.574955 
L 565.48 172.574955 
" clip-path="url(#pb9f8c8616b)" style="fill: none; stroke: #50e3c2; stroke-opacity: 0.9; stroke-width: 6; stroke-linecap: round"/>
   </g>
   <g id="text_1">
    <!-- ModernGraph -->
    <g style="fill: #2d3436" transform="translate(124.9125 235.254079) scale(0.48 -0.48)">
     <defs>
      <path id="Arial-BoldMT-4d" d="M 453 0 
L 453 4581 
L 1838 4581 
L 2669 1456 
L 3491 4581 
L 4878 4581 
L 4878 0 
L 4019 0 
L 4019 3606 
L 3109 0 
L 2219 0 
L 1313 3606 
L 1313 0 
L 453 0 
z
" transform="scale(0.015625)"/>
      <path id="Arial-BoldMT-6f" d="M 256 1706 
Q 256 2144 472 2553 
Q 688 2963 1083 3178 
Q 1478 3394 1966 3394 
Q 2719 3394 3200 2905 
Q 3681 2416 3681 1669 
Q 3681 916 3195 420 
Q 2709 -75 1972 -75 
Q 1516 -75 1102 131 
Q 688 338 472 736 
Q 256 1134 256 1706 
z
M 1156 1659 
Q 1156 1166 1390 903 
Q 1625 641 1969 641 
Q 2313 641 2545 903 
Q 2778 1166 2778 1666 
Q 2778 2153 2545 2415 
Q 2313 2678 1969 2678 
Q 1625 2678 1390 2415 
Q 1156 2153 1156 1659 
z
" transform="scale(0.015625)"/>
      <path id="Arial-BoldMT-64" d="M 3503 0 
L 2688 0 
L 2688 488 
Q 2484 203 2207 64 
Q 1931 -75 1650 -75 
Q 1078 -75 670 386 
Q 263 847 263 1672 
Q 263 2516 659 2955 
Q 1056 3394 1663 3394 
Q 2219 3394 2625 2931 
L 2625 4581 
L 3503 4581 
L 3503 0 
z
M 1159 1731 
Q 1159 1200 1306 963 
Q 1519 619 1900 619 
Q 2203 619 2415 876 
Q 2628 1134 2628 1647 
Q 2628 2219 2422 2470 
Q 2216 2722 1894 2722 
Q 1581 2722 1370 2473 
Q 1159 2225 1159 1731 
z
" transform="scale(0.015625)"/>
      <path id="Arial-BoldMT-65" d="M 2381 1056 
L 3256 909 
Q 3088 428 2723 176 
Q 2359 -75 1813 -75 
Q 947 -75 531 491 
Q 203 944 203 1634 
Q 203 2459 634 2926 
Q 1066 3394 1725 3394 
Q 2466 3394 2894 2905 
Q 3322 2416 3303 1406 
L 1103 1406 
Q 1113 1016 1316 798 
Q 1519 581 1822 581 
Q 2028 581 2168 693 
Q 2309 806 2381 1056 
z
M 2431 1944 
Q 2422 2325 2234 2523 
Q 2047 2722 1778 2722 
Q 1491 2722 1303 2513 
Q 1116 2303 1119 1944 
L 2431 1944 
z
" transform="scale(0.015625)"/>
      <path id="Arial-BoldMT-72" d="M 1300 0 
L 422 0 
L 422 3319 
L 1238 3319 
L 1238 2847 
Q 1447 3181 1614 3287 
Q 1781 3394 1994 3394 
Q 2294 3394 2572 3228 
L 2300 2463 
Q 2078 2606 1888 2606 
Q 1703 2606 1575 2504 
Q 1447 2403 1373 2137 
Q 1300 1872 1300 1025 
L 1300 0 
z
" transform="scale(0.015625)"/>
      <path id="Arial-BoldMT-6e" d="M 3478 0 
L 2600 0 
L 2600 1694 
Q 2600 2231 2544 2389 
Q 2488 2547 2361 2634 
Q 2234 2722 2056 2722 
Q 1828 2722 1647 2597 
Q 1466 2472 1398 2265 
Q 1331 2059 1331 1503 
L 1331 0 
L 453 0 
L 453 3319 
L 1269 3319 
L 1269 2831 
Q 1703 3394 2363 3394 
Q 2653 3394 2893 3289 
Q 3134 3184 3257 3021 
Q 3381 2859 3429 2653 
Q 3478 2447 3478 2063 
L 3478 0 
z
" transform="scale(0.015625)"/>
      <path id="Arial-BoldMT-47" d="M 2597 1684 
L 2597 2456 
L 4591 2456 
L 4591 631 
Q 4300 350 3748 136 
Q 3197 -78 2631 -78 
Q 1913 -78 1378 223 
Q 844 525 575 1086 
Q 306 1647 306 2306 
Q 306 3022 606 3578 
Q 906 4134 1484 4431 
Q 1925 4659 2581 4659 
Q 3434 4659 3914 4301 
Q 4394 3944 4531 3313 
L 3613 3141 
Q 3516 3478 3248 3673 
Q 2981 3869 2581 3869 
Q 1975 3869 1617 3484 
Q 1259 3100 1259 2344 
Q 1259 1528 1621 1120 
Q 1984 713 2572 713 
Q 2863 713 3155 827 
Q 3447 941 3656 1103 
L 3656 1684 
L 2597 1684 
z
" transform="scale(0.015625)"/>
      <path id="Arial-BoldMT-61" d="M 1116 2306 
L 319 2450 
Q 453 2931 781 3162 
Q 1109 3394 1756 3394 
Q 2344 3394 2631 3255 
Q 2919 3116 3036 2902 
Q 3153 2688 3153 2116 
L 3144 1091 
Q 3144 653 3186 445 
Q 3228 238 3344 0 
L 2475 0 
Q 2441 88 2391 259 
Q 2369 338 2359 363 
Q 2134 144 1878 34 
Q 1622 -75 1331 -75 
Q 819 -75 523 203 
Q 228 481 228 906 
Q 228 1188 362 1408 
Q 497 1628 739 1745 
Q 981 1863 1438 1950 
Q 2053 2066 2291 2166 
L 2291 2253 
Q 2291 2506 2166 2614 
Q 2041 2722 1694 2722 
Q 1459 2722 1328 2630 
Q 1197 2538 1116 2306 
z
M 2291 1594 
Q 2122 1538 1756 1459 
Q 1391 1381 1278 1306 
Q 1106 1184 1106 997 
Q 1106 813 1243 678 
Q 1381 544 1594 544 
Q 1831 544 2047 700 
Q 2206 819 2256 991 
Q 2291 1103 2291 1419 
L 2291 1594 
z
" transform="scale(0.015625)"/>
      <path id="Arial-BoldMT-70" d="M 434 3319 
L 1253 3319 
L 1253 2831 
Q 1413 3081 1684 3237 
Q 1956 3394 2288 3394 
Q 2866 3394 3269 2941 
Q 3672 2488 3672 1678 
Q 3672 847 3265 386 
Q 2859 -75 2281 -75 
Q 2006 -75 1782 34 
Q 1559 144 1313 409 
L 1313 -1263 
L 434 -1263 
L 434 3319 
z
M 1303 1716 
Q 1303 1156 1525 889 
Q 1747 622 2066 622 
Q 2372 622 2575 867 
Q 2778 1113 2778 1672 
Q 2778 2194 2568 2447 
Q 2359 2700 2050 2700 
Q 1728 2700 1515 2451 
Q 1303 2203 1303 1716 
z
" transform="scale(0.015625)"/>
      <path id="Arial-BoldMT-68" d="M 1334 4581 
L 1334 2897 
Q 1759 3394 2350 3394 
Q 2653 3394 2897 3281 
Q 3141 3169 3264 2994 
Q 3388 2819 3433 2606 
Q 3478 2394 3478 1947 
L 3478 0 
L 2600 0 
L 2600 1753 
Q 2600 2275 2550 2415 
Q 2500 2556 2373 2639 
Q 2247 2722 2056 2722 
Q 1838 2722 1666 2615 
Q 1494 2509 1414 2295 
Q 1334 2081 1334 1663 
L 1334 0 
L 456 0 
L 456 4581 
L 1334 4581 
z
" transform="scale(0.015625)"/>
     </defs>
     <use xlink:href="#Arial-BoldMT-4d"/>
     <use xlink:href="#Arial-BoldMT-6f" transform="translate(83.300781 0)"/>
     <use xlink:href="#Arial-BoldMT-64" transform="translate(144.384766 0)"/>
     <use xlink:href="#Arial-BoldMT-65" transform="translate(205.46875 0)"/>
     <use xlink:href="#Arial-BoldMT-72" transform="translate(261.083984 0)"/>
     <use xlink:href="#Arial-BoldMT-6e" transform="translate(300 0)"/>
     <use xlink:href="#Arial-BoldMT-47" transform="translate(361.083984 0)"/>
     <use xlink:href="#Arial-BoldMT-72" transform="translate(438.867188 0)"/>
     <use xlink:href="#Arial-BoldMT-61" transform="translate(477.783203 0)"/>
     <use xlink:href="#Arial-BoldMT-70" transform="translate(533.398438 0)"/>
     <use xlink:href="#Arial-BoldMT-68" transform="translate(594.482422 0)"/>
    </g>
   </g>
  </g>
 </g>
 <defs>
  <clipPath id="pb9f8c8616b">
   <rect x="7.2" y="7.2" width="550.08" height="262.08"/>
  </clipPath>
 </defs>
</svg>
